<svg version="1.1" xmlns="http://www.w3.org/2000/svg" xmlns:xlink="http://www.w3.org/1999/xlink" width="964" height="1399"><defs/><g><g/><g/><g/><g/><g/><g/><g/><g/><g/><g/><g/><g/><g/><g/><g/><g/><g/><g/><g/><g><rect fill="white" stroke="none" x="0" y="0" width="964" height="1399"/></g><g><text fill="black" stroke="none" font-family="sans-serif" font-size="16.5pt" font-style="normal" font-weight="normal" text-decoration="normal" x="395.65559962688866" y="22.6179738" text-anchor="start" dominant-baseline="alphabetic" xml:space="preserve">Create Program</text></g><g/><g><path fill="none" stroke="black" paint-order="fill stroke markers" d=" M 105.5505444 118.97054218800001 L 105.5505444 1399.147859268" stroke-miterlimit="10" stroke-width="1.2565541" stroke-dasharray="11.598960923076923,5.0262164"/><path fill="none" stroke="black" paint-order="fill stroke markers" d=" M 281.0889248 118.97054218800001 L 281.0889248 1399.147859268" stroke-miterlimit="10" stroke-width="1.2565541" stroke-dasharray="11.598960923076923,5.0262164"/><path fill="none" stroke="black" paint-order="fill stroke markers" d=" M 513.0939647458983 118.97054218800001 L 513.0939647458983 1399.147859268" stroke-miterlimit="10" stroke-width="1.2565541" stroke-dasharray="11.598960923076923,5.0262164"/><path fill="none" stroke="black" paint-order="fill stroke markers" d=" M 745.0990046917968 118.97054218800001 L 745.0990046917968 1399.147859268" stroke-miterlimit="10" stroke-width="1.2565541" stroke-dasharray="11.598960923076923,5.0262164"/><path fill="none" stroke="black" paint-order="fill stroke markers" d=" M 851.1879897996757 118.97054218800001 L 851.1879897996757 1399.147859268" stroke-miterlimit="10" stroke-width="1.2565541" stroke-dasharray="11.598960923076923,5.0262164"/></g><g><g><path fill="white" stroke="black" paint-order="fill stroke markers" d=" M 114.14537444400001 55.18785607200001 A 8.594830044 8.594830044 0 1 1 114.14537014658535 55.179261243388474 M 105.5505444 63.78268611600001 L 105.5505444 82.17863814 M 94.69391697600001 70.41729176400001 L 116.407171824 70.41729176400001 M 105.5505444 82.17863814 L 94.69391697600001 99.36829822800001 M 105.5505444 82.17863814 L 116.407171824 99.36829822800001" stroke-miterlimit="10" stroke-width="2.5633703640000003" stroke-dasharray=""/></g><g><g/><text fill="black" stroke="none" font-family="sans-serif" font-size="11pt" font-style="normal" font-weight="normal" text-decoration="normal" x="88.82554401853028" y="114.44694742800002" text-anchor="start" dominant-baseline="alphabetic" xml:space="preserve">User</text></g><path fill="none" stroke="none"/><g><path fill="white" stroke="black" paint-order="fill stroke markers" d=" M 232.3452553044746 78.258189348 L 329.8325942955254 78.258189348 L 329.8325942955254 118.970542188 L 232.3452553044746 118.970542188 L 232.3452553044746 78.258189348 Z" stroke-miterlimit="10" stroke-width="2.4125838720000004" stroke-dasharray=""/></g><g><g/><text fill="black" stroke="none" font-family="sans-serif" font-size="11pt" font-style="normal" font-weight="normal" text-decoration="normal" x="248.70558968647458" y="103.89189298800001" text-anchor="start" dominant-baseline="alphabetic" xml:space="preserve">Frontend</text></g><path fill="none" stroke="none"/><g><path fill="white" stroke="black" paint-order="fill stroke markers" d=" M 465.3669635700751 78.258189348 L 560.8209659217216 78.258189348 L 560.8209659217216 118.970542188 L 465.3669635700751 118.970542188 L 465.3669635700751 78.258189348 Z" stroke-miterlimit="10" stroke-width="2.4125838720000004" stroke-dasharray=""/></g><g><g/><text fill="black" stroke="none" font-family="sans-serif" font-size="11pt" font-style="normal" font-weight="normal" text-decoration="normal" x="481.7272979520751" y="103.89189298800001" text-anchor="start" dominant-baseline="alphabetic" xml:space="preserve">Backend</text></g><g><path fill="white" stroke="black" paint-order="fill stroke markers" d=" M 723.0841768597968 89.41638975600002 L 723.0841768597968 57.75122643600001 L 767.1138325237969 57.75122643600001 L 767.1138325237969 89.41638975600002" stroke-miterlimit="10" stroke-width="2.5633703640000003" stroke-dasharray=""/><path fill="white" stroke="black" paint-order="fill stroke markers" d=" M 767.1138325237969 56.65048504440001 L 767.1127317915781 56.750002470476886 L 767.109429704994 56.849509944894095 L 767.1039265942505 56.9489975169871 L 767.0962230096543 57.04845523808161 L 767.0863197215572 57.147873162488395 L 767.0742177202798 57.24724134849785 L 767.0599182160122 57.3465498593742 L 767.0434226386928 57.4457887643491 L 767.0247326378658 57.54494813961476 L 767.0038500825154 57.64401806931628 L 766.9807770608801 57.74298864654325 L 766.9555158802425 57.841849974320425 L 766.9280690666998 57.940592166597405 L 766.8984393649104 58.03920534923725 L 766.8666297378198 58.13767966100388 L 766.8326433663643 58.23600525454817 L 766.7964836491527 58.334172297392705 L 766.7581542021264 58.43217097291501 L 766.7176588581984 58.529991481329205 L 766.6750016668692 58.62762404066595 L 766.6301868938224 58.72505888775068 L 766.5832190204981 58.82228627917988 L 766.5341027436443 58.91929649229543 L 766.4828429748478 59.01607982615686 L 766.4294448400428 59.11262660251144 L 766.3739136789984 59.20892716676198 L 766.3162550447843 59.304971888932315 L 766.2564747032158 59.400751164630265 L 766.1945786322773 59.49625541600807 L 766.1305730215244 59.59147509272019 L 766.0644642714648 59.68640067287828 L 765.9962589929183 59.78102266400345 L 765.925964006356 59.87533160397543 L 765.8535863412181 59.969318061978825 L 765.7791332352107 60.06297263944614 L 765.7026121335822 60.15628597099768 L 765.6240306883792 60.24924872537805 L 765.5433967576807 60.34185160638929 L 765.4607184048126 60.43408535382045 L 765.3760038975412 60.52594074437366 L 765.2892617072466 60.617408592586415 L 765.2005005080756 60.708479751750104 L 765.1097291760742 60.79914511482471 L 765.0169567882999 60.88939561534948 L 764.9221926219143 60.97922222834956 L 764.8254461532549 61.06861597123853 L 764.726727056888 61.15756790471657 L 764.626045204641 61.24606913366447 L 764.5234106646151 61.33411080803308 L 764.4188337001789 61.42168412372834 L 764.3123247689416 61.50878032349165 L 764.2038945217078 61.59539069777562 L 764.0935538014115 61.68150658561499 L 763.9813136420332 61.76711937549275 L 763.867185267495 61.85222050620124 L 763.7511800905393 61.93680146769832 L 763.6333097115871 62.02085380195832 L 763.5135859175782 62.104369103817845 L 763.3920206807921 62.18733902181633 L 763.2686261576513 62.2697552590311 L 763.1434146875051 62.35160957390711 L 763.0163987913963 62.4328937810811 L 762.8875911708088 62.51359975220007 L 762.7570047063971 62.59371941673418 L 762.6246524566989 62.67324476278373 L 762.4905476568288 62.7521678378804 L 762.3547037171552 62.83048074978243 L 762.2171342219586 62.908175667263905 L 762.0778529280742 62.98524482089782 L 761.9368737635151 63.06168050383303 L 761.7942108260804 63.13747507256495 L 761.6498783819449 63.212620947699854 L 761.5038908642326 63.28711061471286 L 761.3562628715739 63.360936624699335 L 761.2070091666449 63.4340915951198 L 761.0561446746916 63.50656821053819 L 760.9036844820375 63.578359223353345 L 760.7496438345751 63.64945745452381 L 760.5940381362406 63.71985579428573 L 760.4368829474739 63.78954720286377 L 760.2781939836633 63.85852471117517 L 760.1179871135728 63.92678142152658 L 759.9562783577559 63.994310508303826 L 759.7930838869535 64.06110521865452 L 759.6284200204765 64.12715887316328 L 759.4623032245744 64.19246486651971 L 759.2947501107884 64.25701666817889 L 759.1257774342904 64.32080782301445 L 758.955402092207 64.38383195196405 L 758.7836411219305 64.44608275266734 L 758.6105116994148 64.5075540000961 L 758.4360311374579 64.56823954717684 L 758.2602168839707 64.62813332540541 L 758.0830865202317 64.6872293454539 L 757.90465775913 64.74552169776953 L 757.724948443393 64.80300455316568 L 757.5439765438024 64.8596721634047 L 757.3617601573973 64.91551886177277 L 757.1783175056646 64.97053906364663 L 756.9936669327166 65.0247272670519 L 756.8078269034565 65.07807805321343 L 756.6208160017328 65.13058608709704 L 756.4326529284795 65.18224611794311 L 756.2433564998472 65.23305297979161 L 756.0529456453211 65.28300159199867 L 755.8614394058277 65.33208695974473 L 755.6688569318318 65.38030417453389 L 755.4752174814199 65.42764841468485 L 755.280540418376 65.47411494581308 L 755.0848452102439 65.51969912130417 L 754.8881514263815 65.56439638277854 L 754.6904787360032 65.60820226054732 L 754.4918469062134 65.65111237405922 L 754.2922758000295 65.69312243233865 L 754.0917853743958 65.73422823441479 L 753.8903956781878 65.7744256697417 L 753.6881268502074 65.81371071860933 L 753.4849991171685 65.85207945254552 L 753.2810327916756 65.88952803470889 L 753.076248270191 65.9260527202724 L 752.8706660309961 65.96164985679792 L 752.6643066321437 65.99631588460149 L 752.4571907094017 66.03004733710921 L 752.2493389741898 66.06284084120392 L 752.0407722115082 66.09469311756257 L 751.8315112778594 66.12560098098405 L 751.6215770991623 66.15556134070776 L 751.4109906686601 66.18457120072271 L 751.1997730448201 66.21262766006708 L 750.9879453492288 66.23972791311832 L 750.7755287644792 66.26586924987369 L 750.5625445320527 66.2910490562213 L 750.3490139501951 66.31526481420151 L 750.1349583717866 66.3385141022587 L 749.9203992022068 66.36079459548343 L 749.7053578971938 66.38210406584494 L 749.4898559606988 66.40244038241397 L 749.273914942736 66.42180151157581 L 749.0575564372272 66.44018551723366 L 748.8408020798425 66.45759056100228 L 748.6236735458373 66.4740149023918 L 748.4061925478838 66.48945689898177 L 748.1883808339009 66.5039150065854 L 747.970260184878 66.51738777940398 L 747.7518524126986 66.52987387017144 L 747.5331793579578 66.54137203028912 L 747.3142628877788 66.55188110995061 L 747.0951248936263 66.56140005825667 L 746.875787289117 66.5699279233204 L 746.6562720078288 66.57746385236243 L 746.4366010011065 66.58400709179611 L 746.2167962358681 66.58955698730296 L 745.9968796924067 66.59411298389804 L 745.7768733621933 66.59767462598552 L 745.556799245678 66.60024155740412 L 745.3366793500887 66.60181352146286 L 745.1165356872316 66.60239036096665 L 744.8963902712896 66.601972018232 L 744.6762651166208 66.60055853509284 L 744.4561822355573 66.59815005289633 L 744.2361636362036 66.59474681248865 L 744.0162313202366 66.59034915419102 L 743.7964072807043 66.5849575177656 L 743.5767134998277 66.57857244237155 L 743.3571719468017 66.57119456651108 L 743.1378045755987 66.56282462796563 L 742.918633322773 66.55346346372208 L 742.6996801052672 66.54311200988904 L 742.4809668182206 66.5317713016033 L 742.2625153327797 66.5194424729262 L 742.044347493911 66.50612675673037 L 741.8264851182165 66.4918254845763 L 741.6089499917523 66.47654008657929 L 741.3917638678497 66.46027209126643 L 741.1749484649401 66.44302312542368 L 740.9585254643832 66.42479491393324 L 740.7425165082986 66.40558927960109 L 740.5269431974021 66.38540814297464 L 740.3118270888449 66.36425352215073 L 740.0971896940588 66.34212753257384 L 739.8830524766041 66.31903238682447 L 739.6694368500245 66.29497039439796 L 739.4563641757044 66.26994396147349 L 739.2438557607336 66.2439555906735 L 739.0319328557767 66.21700788081341 L 738.8206166529476 66.18910352664176 L 738.6099282836904 66.1602453185707 L 738.3998888166665 66.13043614239702 L 738.1905192556474 66.09967897901345 L 737.9818405374149 66.06797690411072 L 737.773873529667 66.03533308786992 L 737.5666390289309 66.00175079464545 L 737.3601577584842 65.96723338263864 L 737.1544503662818 65.93178430356194 L 736.9495374228916 65.89540710229372 L 736.745439419437 65.85810541652378 L 736.5421767655484 65.81988297638962 L 736.3397697873218 65.7807436041034 L 736.1382387252862 65.74069121356973 L 735.93760373238 65.69972980999431 L 735.7378848719353 65.65786348948332 L 735.5391021156717 65.61509643863396 L 735.3412753416991 65.57143293411565 L 735.1444243325301 65.52687734224247 L 734.9485687731017 65.48143411853648 L 734.7537282488063 65.43510780728218 L 734.5599222435343 65.38790304107208 L 734.3671701377245 65.33982454034347 L 734.175491206427 65.29087711290636 L 733.9849046173752 65.2410656534627 L 733.7954294290689 65.19039514311692 L 733.6070845888695 65.13887064887784 L 733.4198889311037 65.08649732315195 L 733.2338611751815 65.03328040322816 L 733.0490199237232 64.97922521075414 L 732.8653836607002 64.92433715120407 L 732.6829707495857 64.86862171333819 L 732.5017994315187 64.81208446865382 L 732.3218878234801 64.75473107082834 L 732.1432539164808 64.69656725515374 L 731.9659155737626 64.63759883796311 L 731.7898905290119 64.57783171604902 L 731.6151963845867 64.51727186607387 L 731.4418506097558 64.45592534397218 L 731.2698705389521 64.39379828434507 L 731.0992733700394 64.33089689984668 L 730.9300761625925 64.26722748056307 L 730.7622958361912 64.20279639338311 L 730.5959491687281 64.13761008136183 L 730.4310527947316 64.0716750630761 L 730.2676232037015 64.00499793197281 L 730.1056767384608 63.9375853557095 L 729.945229593521 63.86944407548762 L 729.786297813463 63.80058090537841 L 729.6288972913321 63.7310027316415 L 729.4730437670497 63.660716512036274 L 729.3187528258381 63.58972927512613 L 729.1660398966629 63.518048119575596 L 729.0149202506899 63.44568021344049 L 728.8654089997576 63.372632793451125 L 728.7175210948666 63.29891316428863 L 728.5712713246841 63.22452869785448 L 728.4266743140652 63.149486832533334 L 728.2837445225905 63.0737950724492 L 728.14249624312 62.997460986715 L 728.0029436003641 62.92049220867569 L 727.8651005494706 62.842896435144944 L 727.7289808746298 62.76468142563545 L 727.5945981876957 62.68585500158298 L 727.4619659268252 62.60642504556425 L 727.3310973551337 62.526399500508674 L 727.2020055593692 62.44578636890406 L 727.0747034486039 62.3645937119964 L 726.9492037529427 62.28282964898372 L 726.8255190222505 62.20050235620419 L 726.7036616248976 62.11762006631847 L 726.583643746522 62.0341910674865 L 726.4654773888113 61.95022370253862 L 726.3491743683031 61.86572636814137 L 726.2347463152025 61.78070751395776 L 726.1222046722194 61.695175641802365 L 726.0115606934241 61.60913930479112 L 725.9028254431228 61.52260710648604 L 725.7960097947495 61.43558770003484 L 725.69112442978 61.348089787305646 L 725.5881798366636 61.26012211801682 L 725.4871863097737 61.17169348886198 L 725.388153948379 61.08281274263036 L 725.291092655633 60.99348876732251 L 725.1960121375839 60.90373049526153 L 725.1029219022046 60.81354690219982 L 725.0118312584408 60.722947006421535 L 724.9227493152812 60.63193986784075 L 724.8356849808456 60.54053458709549 L 724.7506469614952 60.44874030463767 L 724.6676437609609 60.356566199819014 L 724.5866836794935 60.26402148997322 L 724.507774813034 60.17111542949413 L 724.4309250524028 60.07785730891038 L 724.3561420825124 59.98425645395631 L 724.2834333815972 59.89032222463943 L 724.2128062204667 59.79606401430437 L 724.1442676617784 59.70149124869363 L 724.0778245593308 59.606613385004955 L 724.0134835573788 59.511439910945654 L 723.951251089969 59.41598034378382 L 723.8911333802964 59.32024422939662 L 723.8331364400817 59.224241141315716 L 723.7772660689708 59.127980679769905 L 723.7235278539541 59.03147247072513 L 723.6719271688082 58.93472616492187 L 723.6224691735589 58.83775143691009 L 723.5751588139644 58.74055798408177 L 723.5300008210211 58.64315552570121 L 723.4869997104909 58.54555380193307 L 723.4461597824487 58.44776257286839 L 723.4074851208536 58.3497916175486 L 723.3709795931393 58.25165073298757 L 723.3366468498283 58.15334973319199 L 723.3044903241663 58.054898448179905 L 723.2745132317789 57.95630672299779 L 723.2467185703506 57.85758441673599 L 723.2211091193242 57.75874140154287 L 723.1976874396236 57.659787561637586 L 723.1764558733971 57.56073279232165 L 723.1574165437837 57.46158699898947 L 723.1405713547006 57.36236009613774 L 723.1259219906525 57.26306200637407 L 723.1134699165636 57.16370265942468 L 723.1032163776312 57.06429199114147 L 723.0951623992003 56.96483994250841 L 723.0893087866623 56.86535645864751 L 723.0856561253734 56.76585148782425 L 723.0842047805967 56.666334980452774 L 723.0849548974655 56.56681688810091 L 723.0879064009689 56.46730716249495 L 723.0930589959587 56.367815754524536 L 723.10041216718 56.268352613247544 L 723.1099651793215 56.16892768489523 L 723.1217170770902 56.06955091187757 L 723.1356666853061 55.970232231789055 L 723.1518126090199 55.87098157641492 L 723.1701532336526 55.771808870738006 L 723.1906867251572 55.672724031946224 L 723.2134110302017 55.57373696844089 L 723.2383238763742 55.47485757884587 L 723.2654227724113 55.376095751017715 L 723.2947050084456 55.27746136105691 L 723.326167656278 55.17896427232026 L 723.3598075696701 55.08061433443455 L 723.3956213846584 54.98242138231162 L 723.4336055198914 54.884395235164845 L 723.4737561769871 54.786545695527266 L 723.5160693409133 54.68888254827129 L 723.5605407803889 54.59141555963026 L 723.607166048307 54.49415447622183 L 723.6559404821796 54.39710902407328 L 723.706859204604 54.30028890764895 L 723.7599171237504 54.20370380887981 L 723.8151089338711 54.10736338619524 L 723.872429115831 54.01127727355723 L 723.9318719376598 53.91545507949698 L 723.9934314551248 53.81990638615403 L 724.0571015123255 53.724640748318095 L 724.1228757423094 53.629667692473575 L 724.1907475677082 53.53499671584691 L 724.2607102013958 53.440637285456866 L 724.3327566471672 53.34659883716785 L 724.4068797004381 53.252890774746334 L 724.4830719489646 53.15952246892046 L 724.5613257735856 53.066503256443006 L 724.6416333489838 52.973842439157714 L 724.7239866444684 52.88154928306908 L 724.8083774247787 52.78963301741581 L 724.8947972509068 52.69810283374788 L 724.9832374809422 52.606967885007364 L 725.0736892709357 52.51623728461321 L 725.1661435757835 52.425920105549835 L 725.2605911501323 52.33602537945989 L 725.3570225493033 52.24656209574106 L 725.4554281302369 52.15753920064718 L 725.5557980524571 52.06896559639356 L 725.6581222790553 51.980850140266824 L 725.7623905776941 51.893201643739154 L 725.8685925216305 51.80602887158716 L 725.9767174907586 51.71934054101541 L 726.0867546726716 51.63314532078473 L 726.1986930637431 51.5474518303453 L 726.3125214702272 51.46226863897477 L 726.4282285093781 51.37760426492128 L 726.5458026105882 51.29346717455169 L 726.6652320165456 51.20986578150492 L 726.7865047844091 51.12680844585059 L 726.9096087870029 51.04430347325308 L 727.0345317140294 50.962359114140874 L 727.1612610733 50.88098356288161 L 727.2897841919844 50.800184956962596 L 727.4200882178778 50.71997137617709 L 727.5521601206863 50.64035084181633 L 727.6859866933295 50.5613313158674 L 727.8215545532618 50.48292070021704 L 727.9588501438101 50.40512683586149 L 728.0978597355297 50.32795750212234 L 728.2385694275774 50.25142041586866 L 728.3809651491013 50.17552323074529 L 728.5250326606478 50.100273536407514 L 728.6707575555856 50.025678857762045 L 728.8181252615472 49.95174665421458 L 728.9671210418842 49.878484318923874 L 729.1177299971431 49.8058991780624 L 729.2699370665538 49.733998490083756 L 729.4237270295362 49.662789444996825 L 729.5790845072221 49.59227916364677 L 729.7359939639932 49.52247469700298 L 729.8944397090346 49.45338302545394 L 730.0544058979038 49.38501105810922 L 730.2158765341154 49.3173656321086 L 730.3788354707402 49.25045351193829 L 730.5432664120203 49.18428138875455 L 730.7091529149986 49.118855879714566 L 730.8764783911631 49.054183527314706 L 731.0452261081057 48.990270798736326 L 731.2153791911951 48.927124085199026 L 731.3869206252649 48.864749701321536 L 731.5598332563147 48.80315388449026 L 731.7340997932255 48.74234279423555 L 731.9097028094887 48.68232251161576 L 732.0866247449491 48.62309903860914 L 732.2648479075606 48.56467829751363 L 732.4443544751554 48.50706613035466 L 732.6251264972263 48.450268298300934 L 732.8071458967219 48.394290481088326 L 732.9903944718537 48.33913827645191 L 733.1748538979172 48.28481719956619 L 733.3605057291231 48.23133268249359 L 733.5473314004435 48.17869007364124 L 733.7353122294664 48.12689463722616 L 733.924429418266 48.07595155274883 L 734.1146640552807 48.02586591447525 L 734.3059971172056 47.976642730927495 L 734.4984094708938 47.92828692438291 L 734.6918818752702 47.88080333038186 L 734.8863949832556 47.83419669724416 L 735.0819293437015 47.788471685594295 L 735.2784654033347 47.74363286789533 L 735.475983508713 47.69968472799165 L 735.6744639081904 47.65663166066065 L 735.8738867538924 47.614477971173166 L 736.0742321037006 47.57322787486302 L 736.2754799232471 47.532885496705475 L 736.4776100879175 47.49345487090473 L 736.6806023848637 47.45493994049049 L 736.8844365150254 47.41734455692372 L 737.0890920951592 47.38067247971144 L 737.2945486598779 47.34492737603081 L 737.5007856636961 47.310112820362406 L 737.7077824830852 47.2762322941328 L 737.9155184185358 47.24328918536636 L 738.1239726966277 47.21128678834652 L 738.3331244721064 47.18022830328631 L 738.542952829969 47.150116836008365 L 738.7534367875544 47.120955397634305 L 738.9645552966422 47.09274690428368 L 739.1762872455575 47.06549417678231 L 739.3886114612819 47.03919994038023 L 739.6015067115707 47.01386682447918 L 739.8149517070763 46.98949736236963 L 740.0289251034769 46.96609399097749 L 740.2434055036114 46.94365905062039 L 740.4583714596183 46.92219478477368 L 740.6738014750813 46.901703339846044 L 740.8896740071783 46.882186764964906 L 741.105967468836 46.86364701177149 L 741.3226602308885 46.84608593422567 L 741.5397306242401 46.82950528842056 L 741.7571569420325 46.81390673240693 L 741.9749174418149 46.79929182602737 L 742.1929903477189 46.78566203076035 L 742.4113538526357 46.77301870957403 L 742.6299861203967 46.76136312679001 L 742.8488652879573 46.750696447956834 L 743.0679694675832 46.74101973973351 L 743.287276749039 46.732333969782786 L 743.5067652017793 46.724640006674434 L 743.7264128771418 46.717938619798346 L 743.9461978105419 46.71223047928761 L 744.1660980236694 46.70751615595155 L 744.3860915266863 46.703796121218545 L 744.6061563204257 46.701070747088984 L 744.8262703985915 46.699340306098 L 745.0464117499594 46.698604971288255 L 745.2665583605775 46.69886481619261 L 745.4866882159685 46.700119814826806 L 745.70677930333 46.702369841692004 L 745.926809613737 46.705614671787416 L 746.1467571443414 46.709853980632715 L 746.3665999005739 46.715087344300564 L 746.5863158983418 46.72131423945895 L 746.8058831662285 46.72853404342355 L 747.02527974769 46.73674603421998 L 747.2444837032513 46.745949390656016 L 747.4634731126991 46.75614319240367 L 747.6822260772755 46.767326420091266 L 747.9007207218658 46.77949795540535 L 748.118935197188 46.792656581202536 L 748.3368476819762 46.80680098163122 L 748.5544363851636 46.82192974226314 L 748.7716795480611 46.83804135023483 L 748.9885554465336 46.85513419439893 L 749.2050423931719 46.87320656548526 L 749.4211187394618 46.89225665627179 L 749.6367628779486 46.912282561765295 L 749.8519532443983 46.93328227939192 L 750.0666683199535 46.95525370919741 L 750.2808866332855 46.97819465405708 L 750.4945867627416 47.00210281989557 L 750.707747338487 47.026975815916224 L 750.9203470446416 47.05281115484016 L 751.1323646214121 47.07960625315501 L 751.3437788672173 47.107358431373285 L 751.554568640809 47.136064914300285 L 751.7647128633854 47.16572283131164 L 751.9741905206994 47.19632921664036 L 752.1829806651598 47.22788100967341 L 752.391062417926 47.260375055257796 L 752.5984149709965 47.29380810401604 L 752.8050175892885 47.3281768126711 L 753.0108496127124 47.36347774438077 L 753.2158904582374 47.39970736908131 L 753.4201196219498 47.436862063840415 L 753.6235166811034 47.47493811321959 L 753.8260612961618 47.51393170964561 L 754.0277332128323 47.55383895379134 L 754.2285122640914 47.59465585496562 L 754.428378372201 47.63637833151234 L 754.6273115507171 47.679002211218624 L 754.8252919064875 47.72252323173201 L 755.0222996416417 47.76693704098672 L 755.2183150555702 47.812239197638846 L 755.4133185468951 47.85842517151046 L 755.6072906154297 47.905490344042676 L 755.8002118641289 47.95343000875745 L 755.9920630010284 48.00223937172827 L 756.1828248411746 48.05191355205951 L 756.3724783085422 48.10244758237453 L 756.5610044379428 48.15383640931242 L 756.7483843769204 48.20607489403329 L 756.9345993876371 48.25915781273222 L 757.1196308487474 48.31307985716156 L 757.3034602572591 48.36783563516181 L 757.4860692303846 48.423419671200804 L 757.6674395073787 48.479826406921255 L 757.847552951365 48.53705020169659 L 758.026391551149 48.59508533319502 L 758.2039374230199 48.65392599795177 L 758.3801728125384 48.71356631194938 L 758.5550800963124 48.77400031120615 L 758.7286417837594 48.835221952372535 L 758.9008405188551 48.89722511333542 L 759.0716590818697 48.96000359383039 L 759.241080391089 49.0235511160617 L 759.4090875045235 49.08786132533009 L 759.5756636216017 49.152927790668215 L 759.7407920848508 49.21874400548377 L 759.904456381562 49.285303388210124 L 760.0666401454421 49.35259928296446 L 760.2273271582498 49.420624960213395 L 760.3865013514177 49.489373617445885 L 760.5441468076592 49.55883837985349 L 760.7002477625601 49.62901230101787 L 760.8547886061549 49.69988836360538 L 761.007753884488 49.77145948006883 L 761.1591283011591 49.8437184933562 L 761.3088967188526 49.916658177626395 L 761.4570441608516 49.99027123897176 L 761.6035558125354 50.0645503161475 L 761.7484170228608 50.13948798130782 L 761.8916133058276 50.21507674074863 L 762.0331303419268 50.29130903565699 L 762.1729539795728 50.36817724286692 L 762.3110702365182 50.44567367562176 L 762.4474653012524 50.52379058434283 L 762.5821255343827 50.602520157404335 L 762.7150374699979 50.68185452191459 L 762.8461878170153 50.76178574450325 L 762.9755634605095 50.84230583211467 L 763.1031514630239 50.92340673280718 L 763.2289390658646 51.00508033655831 L 763.3529136903761 51.08731847607572 L 763.4750629391992 51.17011292761402 L 763.5953745975111 51.25345541179703 L 763.7138366342458 51.33733759444579 L 763.8304372032986 51.42175108741194 L 763.9451646447098 51.506687449416525 L 764.0580074858308 51.592138186894125 L 764.1689544424714 51.6780947548422 L 764.2779944200286 51.76454855767558 L 764.3851165145954 51.85149095008604 L 764.4903100140516 51.93891323790678 L 764.593564399135 52.02680667898187 L 764.694869344493 52.115162484040454 L 764.7942147197156 52.20397181757565 L 764.8915905903481 52.293225798728116 L 764.9869872188843 52.38291550217411 L 765.0803950657413 52.47303195901802 L 765.1718047902119 52.56356615768928 L 765.2612072513999 52.65450904484346 L 765.3485935091338 52.74585152626762 L 765.4339548248605 52.837584467789746 L 765.5172826625196 52.92969869619212 L 765.5985686893969 53.02218500012867 L 765.6778047769574 53.11503413104609 L 765.7549830016582 53.20823680410863 L 765.8300956457413 53.30178369912667 L 765.9031351980049 53.39566546148867 L 765.9740943545545 53.48987270309661 L 766.0429660195338 53.58439600330485 L 766.1097433058335 53.67922590986214 L 766.1744195357807 53.77435293985683 L 766.2369882418062 53.86976758066522 L 766.2974431670917 53.96546029090272 L 766.355778266195 54.06142150137806 L 766.4119877056548 54.15764161605015 L 766.4660658645739 54.254111012987714 L 766.5180073351817 54.350820045331446 L 766.5678069233741 54.4477590422587 L 766.615459649234 54.54491830995058 L 766.6609607475285 54.64228813256127 L 766.7043056681856 54.739858773189646 L 766.7454900767494 54.83762047485297 L 766.7845098548136 54.93556346146252 L 766.8213611004325 55.033677938801276 L 766.8560401285124 55.131954095503254 L 766.8885434711796 55.23038210403468 L 766.9188678781267 55.328952121676735 L 766.9470103169382 55.42765429150978 L 766.9729679733939 55.5264787433991 L 766.9967382517497 55.62541559498185 L 767.0183187749975 55.72445495265532 L 767.0377073851031 55.82358691256627 L 767.0549021432214 55.92280156160133 L 767.0699013298912 56.022088978378264 L 767.0827034452062 56.121439234238146 L 767.0933072089656 56.22084239423817 L 767.1017115608017 56.32028851814517 L 767.1079156602865 56.41976766142964 L 767.1119188870151 56.51926987626014 L 767.1137208406682 56.61878521249811 M 767.1138325237969 88.31564836440002 L 767.1127317915781 88.4151657904769 L 767.109429704994 88.5146732648941 L 767.1039265942505 88.61416083698711 L 767.0962230096543 88.71361855808162 L 767.0863197215572 88.8130364824884 L 767.0742177202798 88.91240466849787 L 767.0599182160122 89.01171317937421 L 767.0434226386928 89.11095208434912 L 767.0247326378658 89.21011145961478 L 767.0038500825154 89.3091813893163 L 766.9807770608801 89.40815196654326 L 766.9555158802425 89.50701329432043 L 766.9280690666998 89.60575548659742 L 766.8984393649104 89.70436866923727 L 766.8666297378198 89.80284298100389 L 766.8326433663643 89.90116857454818 L 766.7964836491527 89.99933561739272 L 766.7581542021264 90.09733429291502 L 766.7176588581984 90.19515480132921 L 766.6750016668692 90.29278736066595 L 766.6301868938224 90.3902222077507 L 766.5832190204981 90.4874495991799 L 766.5341027436443 90.58445981229544 L 766.4828429748478 90.68124314615687 L 766.4294448400428 90.77778992251145 L 766.3739136789984 90.874090486762 L 766.3162550447843 90.97013520893233 L 766.2564747032158 91.06591448463028 L 766.1945786322773 91.16141873600809 L 766.1305730215244 91.25663841272019 L 766.0644642714648 91.3515639928783 L 765.9962589929183 91.44618598400346 L 765.925964006356 91.54049492397544 L 765.8535863412181 91.63448138197883 L 765.7791332352107 91.72813595944615 L 765.7026121335822 91.82144929099769 L 765.6240306883792 91.91441204537807 L 765.5433967576807 92.0070149263893 L 765.4607184048126 92.09924867382047 L 765.3760038975412 92.19110406437368 L 765.2892617072466 92.28257191258642 L 765.2005005080756 92.37364307175011 L 765.1097291760742 92.46430843482472 L 765.0169567882999 92.55455893534949 L 764.9221926219143 92.64438554834958 L 764.8254461532549 92.73377929123853 L 764.726727056888 92.82273122471658 L 764.626045204641 92.91123245366448 L 764.5234106646151 92.9992741280331 L 764.4188337001789 93.08684744372835 L 764.3123247689416 93.17394364349167 L 764.2038945217078 93.26055401777563 L 764.0935538014115 93.346669905615 L 763.9813136420332 93.43228269549276 L 763.867185267495 93.51738382620125 L 763.7511800905393 93.60196478769834 L 763.6333097115871 93.68601712195833 L 763.5135859175782 93.76953242381786 L 763.3920206807921 93.85250234181635 L 763.2686261576513 93.9349185790311 L 763.1434146875051 94.01677289390713 L 763.0163987913963 94.09805710108111 L 762.8875911708088 94.17876307220008 L 762.7570047063971 94.2588827367342 L 762.6246524566989 94.33840808278374 L 762.4905476568288 94.41733115788041 L 762.3547037171552 94.49564406978244 L 762.2171342219586 94.57333898726392 L 762.0778529280742 94.65040814089784 L 761.9368737635151 94.72684382383305 L 761.7942108260804 94.80263839256496 L 761.6498783819449 94.87778426769987 L 761.5038908642326 94.95227393471288 L 761.3562628715739 95.02609994469935 L 761.2070091666449 95.09925491511981 L 761.0561446746916 95.1717315305382 L 760.9036844820375 95.24352254335335 L 760.7496438345751 95.31462077452383 L 760.5940381362406 95.38501911428574 L 760.4368829474739 95.45471052286379 L 760.2781939836633 95.52368803117518 L 760.1179871135728 95.59194474152659 L 759.9562783577559 95.65947382830383 L 759.7930838869535 95.72626853865452 L 759.6284200204765 95.7923221931633 L 759.4623032245744 95.85762818651972 L 759.2947501107884 95.9221799881789 L 759.1257774342904 95.98597114301445 L 758.955402092207 96.04899527196406 L 758.7836411219305 96.11124607266736 L 758.6105116994148 96.17271732009613 L 758.4360311374579 96.23340286717686 L 758.2602168839707 96.29329664540542 L 758.0830865202317 96.3523926654539 L 757.90465775913 96.41068501776955 L 757.724948443393 96.4681678731657 L 757.5439765438024 96.5248354834047 L 757.3617601573973 96.58068218177279 L 757.1783175056646 96.63570238364663 L 756.9936669327166 96.6898905870519 L 756.8078269034565 96.74324137321344 L 756.6208160017328 96.79574940709705 L 756.4326529284795 96.84740943794313 L 756.2433564998472 96.89821629979161 L 756.0529456453211 96.94816491199869 L 755.8614394058277 96.99725027974473 L 755.6688569318318 97.0454674945339 L 755.4752174814199 97.09281173468487 L 755.280540418376 97.13927826581309 L 755.0848452102439 97.18486244130418 L 754.8881514263815 97.22955970277856 L 754.6904787360032 97.27336558054733 L 754.4918469062134 97.31627569405923 L 754.2922758000295 97.35828575233866 L 754.0917853743958 97.3993915544148 L 753.8903956781878 97.43958898974171 L 753.6881268502074 97.47887403860933 L 753.4849991171685 97.51724277254554 L 753.2810327916756 97.5546913547089 L 753.076248270191 97.5912160402724 L 752.8706660309961 97.62681317679792 L 752.6643066321437 97.6614792046015 L 752.4571907094017 97.69521065710921 L 752.2493389741898 97.72800416120393 L 752.0407722115082 97.75985643756258 L 751.8315112778594 97.79076430098405 L 751.6215770991623 97.82072466070777 L 751.4109906686601 97.84973452072273 L 751.1997730448201 97.8777909800671 L 750.9879453492288 97.90489123311833 L 750.7755287644792 97.93103256987371 L 750.5625445320527 97.95621237622132 L 750.3490139501951 97.98042813420153 L 750.1349583717866 98.0036774222587 L 749.9203992022068 98.02595791548345 L 749.7053578971938 98.04726738584496 L 749.4898559606988 98.06760370241399 L 749.273914942736 98.08696483157581 L 749.0575564372272 98.10534883723366 L 748.8408020798425 98.1227538810023 L 748.6236735458373 98.13917822239182 L 748.4061925478838 98.15462021898179 L 748.1883808339009 98.16907832658542 L 747.970260184878 98.182551099404 L 747.7518524126986 98.19503719017146 L 747.5331793579578 98.20653535028914 L 747.3142628877788 98.21704442995062 L 747.0951248936263 98.22656337825667 L 746.875787289117 98.23509124332041 L 746.6562720078288 98.24262717236243 L 746.4366010011065 98.24917041179611 L 746.2167962358681 98.25472030730296 L 745.9968796924067 98.25927630389805 L 745.7768733621933 98.26283794598552 L 745.556799245678 98.26540487740414 L 745.3366793500887 98.26697684146288 L 745.1165356872316 98.26755368096666 L 744.8963902712896 98.26713533823201 L 744.6762651166208 98.26572185509286 L 744.4561822355573 98.26331337289633 L 744.2361636362036 98.25991013248867 L 744.0162313202366 98.25551247419104 L 743.7964072807043 98.25012083776562 L 743.5767134998277 98.24373576237157 L 743.3571719468017 98.2363578865111 L 743.1378045755987 98.22798794796564 L 742.918633322773 98.21862678372209 L 742.6996801052672 98.20827532988906 L 742.4809668182206 98.1969346216033 L 742.2625153327797 98.18460579292622 L 742.044347493911 98.17129007673037 L 741.8264851182165 98.1569888045763 L 741.6089499917523 98.14170340657931 L 741.3917638678497 98.12543541126645 L 741.1749484649401 98.1081864454237 L 740.9585254643832 98.08995823393326 L 740.7425165082986 98.07075259960111 L 740.5269431974021 98.05057146297464 L 740.3118270888449 98.02941684215075 L 740.0971896940588 98.00729085257386 L 739.8830524766041 97.9841957068245 L 739.6694368500245 97.96013371439797 L 739.4563641757044 97.9351072814735 L 739.2438557607336 97.90911891067351 L 739.0319328557767 97.88217120081342 L 738.8206166529476 97.85426684664178 L 738.6099282836904 97.82540863857072 L 738.3998888166665 97.79559946239702 L 738.1905192556474 97.76484229901347 L 737.9818405374149 97.73314022411074 L 737.773873529667 97.70049640786993 L 737.5666390289309 97.66691411464545 L 737.3601577584842 97.63239670263864 L 737.1544503662818 97.59694762356195 L 736.9495374228916 97.56057042229372 L 736.745439419437 97.52326873652379 L 736.5421767655484 97.48504629638963 L 736.3397697873218 97.44590692410341 L 736.1382387252862 97.40585453356975 L 735.93760373238 97.36489312999431 L 735.7378848719353 97.32302680948334 L 735.5391021156717 97.28025975863397 L 735.3412753416991 97.23659625411567 L 735.1444243325301 97.19204066224249 L 734.9485687731017 97.14659743853649 L 734.7537282488063 97.10027112728218 L 734.5599222435343 97.05306636107208 L 734.3671701377245 97.00498786034348 L 734.175491206427 96.95604043290636 L 733.9849046173752 96.9062289734627 L 733.7954294290689 96.85555846311694 L 733.6070845888695 96.80403396887786 L 733.4198889311037 96.75166064315196 L 733.2338611751815 96.69844372322818 L 733.0490199237232 96.64438853075416 L 732.8653836607002 96.58950047120409 L 732.6829707495857 96.53378503333819 L 732.5017994315187 96.47724778865383 L 732.3218878234801 96.41989439082836 L 732.1432539164808 96.36173057515376 L 731.9659155737626 96.30276215796312 L 731.7898905290119 96.24299503604902 L 731.6151963845867 96.18243518607389 L 731.4418506097558 96.1210886639722 L 731.2698705389521 96.05896160434507 L 731.0992733700394 95.99606021984668 L 730.9300761625925 95.93239080056308 L 730.7622958361912 95.86795971338313 L 730.5959491687281 95.80277340136185 L 730.4310527947316 95.73683838307612 L 730.2676232037015 95.67016125197281 L 730.1056767384608 95.6027486757095 L 729.945229593521 95.53460739548763 L 729.786297813463 95.46574422537843 L 729.6288972913321 95.39616605164152 L 729.4730437670497 95.32587983203629 L 729.3187528258381 95.25489259512614 L 729.1660398966629 95.1832114395756 L 729.0149202506899 95.1108435334405 L 728.8654089997576 95.03779611345114 L 728.7175210948666 94.96407648428864 L 728.5712713246841 94.88969201785449 L 728.4266743140652 94.81465015253335 L 728.2837445225905 94.7389583924492 L 728.14249624312 94.662624306715 L 728.0029436003641 94.5856555286757 L 727.8651005494706 94.50805975514496 L 727.7289808746298 94.42984474563546 L 727.5945981876957 94.351018321583 L 727.4619659268252 94.27158836556427 L 727.3310973551337 94.19156282050868 L 727.2020055593692 94.11094968890407 L 727.0747034486039 94.02975703199641 L 726.9492037529427 93.94799296898373 L 726.8255190222505 93.8656656762042 L 726.7036616248976 93.78278338631848 L 726.583643746522 93.69935438748651 L 726.4654773888113 93.61538702253864 L 726.3491743683031 93.53088968814139 L 726.2347463152025 93.44587083395777 L 726.1222046722194 93.36033896180237 L 726.0115606934241 93.27430262479113 L 725.9028254431228 93.18777042648605 L 725.7960097947495 93.10075102003485 L 725.69112442978 93.01325310730566 L 725.5881798366636 92.92528543801683 L 725.4871863097737 92.836856808862 L 725.388153948379 92.74797606263037 L 725.291092655633 92.65865208732252 L 725.1960121375839 92.56889381526153 L 725.1029219022046 92.47871022219982 L 725.0118312584408 92.38811032642154 L 724.9227493152812 92.29710318784076 L 724.8356849808456 92.20569790709551 L 724.7506469614952 92.11390362463769 L 724.6676437609609 92.02172951981903 L 724.5866836794935 91.92918480997322 L 724.507774813034 91.83627874949414 L 724.4309250524028 91.74302062891039 L 724.3561420825124 91.64941977395632 L 724.2834333815972 91.55548554463944 L 724.2128062204667 91.46122733430438 L 724.1442676617784 91.36665456869365 L 724.0778245593308 91.27177670500497 L 724.0134835573788 91.17660323094567 L 723.951251089969 91.08114366378383 L 723.8911333802964 90.98540754939663 L 723.8331364400817 90.88940446131572 L 723.7772660689708 90.79314399976991 L 723.7235278539541 90.69663579072514 L 723.6719271688082 90.59988948492189 L 723.6224691735589 90.5029147569101 L 723.5751588139644 90.40572130408178 L 723.5300008210211 90.30831884570122 L 723.4869997104909 90.21071712193307 L 723.4461597824487 90.1129258928684 L 723.4074851208536 90.01495493754861 L 723.3709795931393 89.91681405298758 L 723.3366468498283 89.81851305319199 L 723.3044903241663 89.72006176817992 L 723.2745132317789 89.6214700429978 L 723.2467185703506 89.52274773673601 L 723.2211091193242 89.42390472154288 L 723.1976874396236 89.32495088163759 L 723.1764558733971 89.22589611232166 L 723.1574165437837 89.12675031898948 L 723.1405713547006 89.02752341613775 L 723.1259219906525 88.92822532637408 L 723.1134699165636 88.82886597942469 L 723.1032163776312 88.72945531114148 L 723.0951623992003 88.63000326250842 L 723.0893087866623 88.53051977864753 L 723.0856561253734 88.43101480782425 L 723.0842047805967 88.3314983004528" stroke-miterlimit="10" stroke-width="2.5633703640000003" stroke-dasharray=""/></g><g><g/><text fill="black" stroke="none" font-family="sans-serif" font-size="11pt" font-style="normal" font-weight="normal" text-decoration="normal" x="710.0990046917968" y="114.44694742800002" text-anchor="start" dominant-baseline="alphabetic" xml:space="preserve">Database</text></g><path fill="none" stroke="none"/><g><path fill="white" stroke="black" paint-order="fill stroke markers" d=" M 795.1776538917968 78.258189348 L 907.1983257075547 78.258189348 L 907.1983257075547 118.970542188 L 795.1776538917968 118.970542188 L 795.1776538917968 78.258189348 Z" stroke-miterlimit="10" stroke-width="2.4125838720000004" stroke-dasharray=""/></g><g><g/><text fill="black" stroke="none" font-family="sans-serif" font-size="11pt" font-style="normal" font-weight="normal" text-decoration="normal" x="811.5379882737968" y="103.89189298800001" text-anchor="start" dominant-baseline="alphabetic" xml:space="preserve">FileSystem</text></g></g><g><path fill="white" stroke="black" paint-order="fill stroke markers" d=" M 98.0112198 126.50986678800001 L 113.08986900000001 126.50986678800001 L 113.08986900000001 168.730084548 L 98.0112198 168.730084548 L 98.0112198 126.50986678800001" stroke-miterlimit="10" stroke-width="1.2565541" stroke-dasharray=""/><path fill="white" stroke="black" paint-order="fill stroke markers" d=" M 273.5496002 250.154790228 L 288.62824939999996 250.154790228 L 288.62824939999996 292.375007988 L 273.5496002 292.375007988 L 273.5496002 250.154790228" stroke-miterlimit="10" stroke-width="1.2565541" stroke-dasharray=""/><path fill="white" stroke="black" paint-order="fill stroke markers" d=" M 505.55464014589836 292.375007988 L 520.6332893458983 292.375007988 L 520.6332893458983 334.595225748 L 505.55464014589836 334.595225748 L 505.55464014589836 292.375007988" stroke-miterlimit="10" stroke-width="1.2565541" stroke-dasharray=""/><path fill="white" stroke="black" paint-order="fill stroke markers" d=" M 737.5596800917968 334.595225748 L 752.6383292917968 334.595225748 L 752.6383292917968 376.81544350800004 L 737.5596800917968 376.81544350800004 L 737.5596800917968 334.595225748" stroke-miterlimit="10" stroke-width="1.2565541" stroke-dasharray=""/><path fill="white" stroke="black" paint-order="fill stroke markers" d=" M 505.55464014589836 376.81544350800004 L 520.6332893458983 376.81544350800004 L 520.6332893458983 419.03566126800007 L 505.55464014589836 419.03566126800007 L 505.55464014589836 376.81544350800004" stroke-miterlimit="10" stroke-width="1.2565541" stroke-dasharray=""/><path fill="white" stroke="black" paint-order="fill stroke markers" d=" M 273.5496002 419.03566126800007 L 288.62824939999996 419.03566126800007 L 288.62824939999996 461.2558790280001 L 273.5496002 461.2558790280001 L 273.5496002 419.03566126800007" stroke-miterlimit="10" stroke-width="1.2565541" stroke-dasharray=""/><path fill="white" stroke="black" paint-order="fill stroke markers" d=" M 98.0112198 483.8738528280001 L 113.08986900000001 483.8738528280001 L 113.08986900000001 630.1367500680001 L 98.0112198 630.1367500680001 L 98.0112198 483.8738528280001" stroke-miterlimit="10" stroke-width="1.2565541" stroke-dasharray=""/><path fill="white" stroke="black" paint-order="fill stroke markers" d=" M 273.5496002 526.0940705880001 L 288.62824939999996 526.0940705880001 L 288.62824939999996 630.1367500680001 L 273.5496002 630.1367500680001 L 273.5496002 526.0940705880001" stroke-miterlimit="10" stroke-width="1.2565541" stroke-dasharray=""/><path fill="white" stroke="black" paint-order="fill stroke markers" d=" M 273.5496002 670.8491029080001 L 288.62824939999996 670.8491029080001 L 288.62824939999996 713.069320668 L 273.5496002 713.069320668 L 273.5496002 670.8491029080001" stroke-miterlimit="10" stroke-width="1.2565541" stroke-dasharray=""/><path fill="white" stroke="black" paint-order="fill stroke markers" d=" M 273.5496002 753.781673508 L 288.62824939999996 753.781673508 L 288.62824939999996 796.001891268 L 273.5496002 796.001891268 L 273.5496002 753.781673508" stroke-miterlimit="10" stroke-width="1.2565541" stroke-dasharray=""/><path fill="white" stroke="black" paint-order="fill stroke markers" d=" M 505.55464014589836 836.714244108 L 520.6332893458983 836.714244108 L 520.6332893458983 878.934461868 L 505.55464014589836 878.934461868 L 505.55464014589836 836.714244108" stroke-miterlimit="10" stroke-width="1.2565541" stroke-dasharray=""/><path fill="white" stroke="black" paint-order="fill stroke markers" d=" M 273.5496002 878.934461868 L 288.62824939999996 878.934461868 L 288.62824939999996 921.1546796279999 L 273.5496002 921.1546796279999 L 273.5496002 878.934461868" stroke-miterlimit="10" stroke-width="1.2565541" stroke-dasharray=""/><path fill="white" stroke="black" paint-order="fill stroke markers" d=" M 505.55464014589836 1002.5793853079999 L 520.6332893458983 1002.5793853079999 L 520.6332893458983 1087.0198208279999 L 505.55464014589836 1087.0198208279999 L 505.55464014589836 1002.5793853079999" stroke-miterlimit="10" stroke-width="1.2565541" stroke-dasharray=""/><path fill="white" stroke="black" paint-order="fill stroke markers" d=" M 505.55464014589836 1109.637794628 L 520.6332893458983 1109.637794628 L 520.6332893458983 1151.858012388 L 505.55464014589836 1151.858012388 L 505.55464014589836 1109.637794628" stroke-miterlimit="10" stroke-width="1.2565541" stroke-dasharray=""/><path fill="white" stroke="black" paint-order="fill stroke markers" d=" M 737.5596800917968 1151.858012388 L 752.6383292917968 1151.858012388 L 752.6383292917968 1194.0782301479999 L 737.5596800917968 1194.0782301479999 L 737.5596800917968 1151.858012388" stroke-miterlimit="10" stroke-width="1.2565541" stroke-dasharray=""/><path fill="white" stroke="black" paint-order="fill stroke markers" d=" M 505.55464014589836 1194.0782301479999 L 520.6332893458983 1194.0782301479999 L 520.6332893458983 1236.2984479079998 L 505.55464014589836 1236.2984479079998 L 505.55464014589836 1194.0782301479999" stroke-miterlimit="10" stroke-width="1.2565541" stroke-dasharray=""/><path fill="white" stroke="black" paint-order="fill stroke markers" d=" M 273.5496002 1236.2984479079998 L 288.62824939999996 1236.2984479079998 L 288.62824939999996 1278.5186656679998 L 273.5496002 1278.5186656679998 L 273.5496002 1236.2984479079998" stroke-miterlimit="10" stroke-width="1.2565541" stroke-dasharray=""/><g><g><rect fill="white" stroke="none" x="134.70259952" y="149.127840588" width="124.77359476" height="19.602243960000003"/></g><text fill="black" stroke="none" font-family="sans-serif" font-size="11pt" font-style="normal" font-weight="normal" text-decoration="normal" x="136.9643969" y="162.698624868" text-anchor="start" dominant-baseline="alphabetic" xml:space="preserve">callCreateView()</text></g><g><path fill="none" stroke="black" paint-order="fill stroke markers" d=" M 113.08986900000001 168.730084548 L 268.674170292 168.730084548" stroke-miterlimit="10" stroke-width="1.2565541" stroke-dasharray=""/><g transform="translate(281.0889248,168.730084548) translate(-281.0889248,-168.730084548)"><path fill="black" stroke="none" paint-order="stroke fill markers" d=" M 268.5233838 162.447314048 L 281.0889248 168.730084548 L 268.5233838 175.012855048 Z"/></g></g><g><g><rect fill="white" stroke="none" x="306.4713176199999" y="272.772764028" width="181.24025430589845" height="19.602243960000003"/></g><text fill="black" stroke="none" font-family="sans-serif" font-size="11pt" font-style="normal" font-weight="normal" text-decoration="normal" x="308.73311499999994" y="286.343548308" text-anchor="start" dominant-baseline="alphabetic" xml:space="preserve">queryDependentFields()</text></g><g><path fill="none" stroke="black" paint-order="fill stroke markers" d=" M 288.62824939999996 292.375007988 L 493.1398856378984 292.375007988" stroke-miterlimit="10" stroke-width="1.2565541" stroke-dasharray=""/><g transform="translate(505.55464014589836,292.375007988) translate(-505.55464014589836,-292.375007988)"><path fill="black" stroke="none" paint-order="stroke fill markers" d=" M 492.98909914589836 286.09223748799997 L 505.55464014589836 292.375007988 L 492.98909914589836 298.657778488 Z"/></g></g><g><g><rect fill="white" stroke="none" x="538.4763575658984" y="314.992981788" width="181.24025430589845" height="19.602243960000003"/></g><text fill="black" stroke="none" font-family="sans-serif" font-size="11pt" font-style="normal" font-weight="normal" text-decoration="normal" x="540.7381549458984" y="328.56376606800006" text-anchor="start" dominant-baseline="alphabetic" xml:space="preserve">queryDependentFields()</text></g><g><path fill="none" stroke="black" paint-order="fill stroke markers" d=" M 520.6332893458983 334.595225748 L 725.1449255837969 334.595225748" stroke-miterlimit="10" stroke-width="1.2565541" stroke-dasharray=""/><g transform="translate(737.5596800917968,334.595225748) translate(-737.5596800917968,-334.595225748)"><path fill="black" stroke="none" paint-order="stroke fill markers" d=" M 724.9941390917968 328.312455248 L 737.5596800917968 334.595225748 L 724.9941390917968 340.87799624800004 Z"/></g></g><g><g><rect fill="white" stroke="none" x="576.3846865759082" y="357.21319954800003" width="105.4235962858789" height="19.602243960000003"/></g><text fill="black" stroke="none" font-family="sans-serif" font-size="11pt" font-style="normal" font-weight="normal" text-decoration="normal" x="578.6464839559081" y="370.78398382800003" text-anchor="start" dominant-baseline="alphabetic" xml:space="preserve">returnQuery()</text></g><g><path fill="none" stroke="black" paint-order="fill stroke markers" d=" M 737.5596800917968 376.81544350800004 L 533.0480438538983 376.81544350800004" stroke-miterlimit="10" stroke-width="1.2565541" stroke-dasharray=""/><g transform="translate(520.6332893458983,376.81544350800004) translate(-520.6332893458983,-376.81544350800004)"><path fill="black" stroke="none" paint-order="stroke fill markers" d=" M 533.1988303458984 370.532673008 L 520.6332893458983 376.81544350800004 L 533.1988303458984 383.09821400800007 Z"/></g></g><g><g><rect fill="white" stroke="none" x="349.1713145682421" y="399.43341730800006" width="95.84026040941406" height="19.602243960000003"/></g><text fill="black" stroke="none" font-family="sans-serif" font-size="11pt" font-style="normal" font-weight="normal" text-decoration="normal" x="351.43311194824213" y="413.0042015880001" text-anchor="start" dominant-baseline="alphabetic" xml:space="preserve">returnData()</text></g><g><path fill="none" stroke="black" paint-order="fill stroke markers" d=" M 505.55464014589836 419.03566126800007 L 301.04300390799995 419.03566126800007" stroke-miterlimit="10" stroke-width="1.2565541" stroke-dasharray=""/><g transform="translate(288.62824939999996,419.03566126800007) translate(-288.62824939999996,-419.03566126800007)"><path fill="black" stroke="none" paint-order="stroke fill markers" d=" M 301.19379039999995 412.75289076800004 L 288.62824939999996 419.03566126800007 L 301.19379039999995 425.3184317680001 Z"/></g></g><g><g><rect fill="white" stroke="none" x="132.97160927058596" y="441.6536350680001" width="113.15692605882812" height="19.602243960000003"/></g><text fill="black" stroke="none" font-family="sans-serif" font-size="11pt" font-style="normal" font-weight="normal" text-decoration="normal" x="135.23340665058595" y="455.2244193480001" text-anchor="start" dominant-baseline="alphabetic" xml:space="preserve">renderCreate()</text></g><g><path fill="none" stroke="black" paint-order="fill stroke markers" d=" M 273.5496002 461.2558790280001 L 117.96529890800001 461.2558790280001" stroke-miterlimit="10" stroke-width="1.2565541" stroke-dasharray=""/><g transform="translate(105.5505444,461.2558790280001) translate(-105.5505444,-461.2558790280001)"><path fill="black" stroke="none" paint-order="stroke fill markers" d=" M 118.1160854 454.97310852800007 L 105.5505444 461.2558790280001 L 118.1160854 467.5386495280001 Z"/></g></g><g><g><rect fill="white" stroke="none" x="134.1662708076465" y="506.4918266280001" width="118.30692758470703" height="19.602243960000003"/></g><text fill="black" stroke="none" font-family="sans-serif" font-size="11pt" font-style="normal" font-weight="normal" text-decoration="normal" x="136.4280681876465" y="520.0626109080001" text-anchor="start" dominant-baseline="alphabetic" xml:space="preserve">fillInformation()</text></g><g><path fill="none" stroke="black" paint-order="fill stroke markers" d=" M 113.08986900000001 526.0940705880001 L 261.134845692 526.0940705880001" stroke-miterlimit="10" stroke-width="1.2565541" stroke-dasharray=""/><g transform="translate(273.5496002,526.0940705880001) translate(-273.5496002,-526.0940705880001)"><path fill="black" stroke="none" paint-order="stroke fill markers" d=" M 260.9840592 519.8113000880002 L 273.5496002 526.0940705880001 L 260.9840592 532.3768410880001 Z"/></g></g><g><g><rect fill="white" stroke="none" x="306.4713176199999" y="548.7120443880001" width="159.82359781175782" height="19.602243960000003"/></g><text fill="black" stroke="none" font-family="sans-serif" font-size="11pt" font-style="normal" font-weight="normal" text-decoration="normal" x="308.73311499999994" y="562.2828286680001" text-anchor="start" dominant-baseline="alphabetic" xml:space="preserve">validateInformation()</text></g><g><path fill="none" stroke="black" paint-order="fill stroke markers" d=" M 288.62824939999996 568.3142883480001 L 348.94284619999996 568.3142883480001 L 348.94284619999996 587.9165323080001 L 301.04300390799995 587.9165323080001" stroke-miterlimit="10" stroke-width="1.2565541" stroke-dasharray=""/><g transform="translate(288.62824939999996,587.9165323080001) translate(-288.62824939999996,-587.9165323080001)"><path fill="black" stroke="none" paint-order="stroke fill markers" d=" M 301.19379039999995 581.6337618080001 L 288.62824939999996 587.9165323080001 L 301.19379039999995 594.1993028080001 Z"/></g></g><g><g><rect fill="white" stroke="none" x="142.9079356941211" y="610.5345061080001" width="100.82359781175781" height="19.602243960000003"/></g><text fill="black" stroke="none" font-family="sans-serif" font-size="11pt" font-style="normal" font-weight="normal" text-decoration="normal" x="145.1697330741211" y="624.1052903880001" text-anchor="start" dominant-baseline="alphabetic" xml:space="preserve">clickSubmit()</text></g><g><path fill="none" stroke="black" paint-order="fill stroke markers" d=" M 113.08986900000001 630.1367500680001 L 261.134845692 630.1367500680001" stroke-miterlimit="10" stroke-width="1.2565541" stroke-dasharray=""/><g transform="translate(273.5496002,630.1367500680001) translate(-273.5496002,-630.1367500680001)"><path fill="black" stroke="none" paint-order="stroke fill markers" d=" M 260.9840592 623.8539795680001 L 273.5496002 630.1367500680001 L 260.9840592 636.419520568 Z"/></g></g><g><g><rect fill="white" stroke="none" x="132.97160927058596" y="693.467076708" width="113.15692605882812" height="19.602243960000003"/></g><text fill="black" stroke="none" font-family="sans-serif" font-size="11pt" font-style="normal" font-weight="normal" text-decoration="normal" x="135.23340665058595" y="707.037860988" text-anchor="start" dominant-baseline="alphabetic" xml:space="preserve">renderCreate()</text></g><g><path fill="none" stroke="black" paint-order="fill stroke markers" d=" M 273.5496002 713.069320668 L 117.96529890800001 713.069320668" stroke-miterlimit="10" stroke-width="1.2565541" stroke-dasharray=""/><g transform="translate(105.5505444,713.069320668) translate(-105.5505444,-713.069320668)"><path fill="black" stroke="none" paint-order="stroke fill markers" d=" M 118.1160854 706.7865501680001 L 105.5505444 713.069320668 L 118.1160854 719.352091168 Z"/></g></g><g><g><rect fill="white" stroke="none" x="320.9493081670702" y="776.399647308" width="159.82359781175782" height="19.602243960000003"/></g><text fill="black" stroke="none" font-family="sans-serif" font-size="11pt" font-style="normal" font-weight="normal" text-decoration="normal" x="323.21110554707025" y="789.970431588" text-anchor="start" dominant-baseline="alphabetic" xml:space="preserve">validateInformation()</text></g><g><path fill="none" stroke="black" paint-order="fill stroke markers" d=" M 288.62824939999996 796.001891268 L 500.67921023789836 796.001891268" stroke-miterlimit="10" stroke-width="1.2565541" stroke-dasharray=""/><g transform="translate(513.0939647458983,796.001891268) translate(-513.0939647458983,-796.001891268)"><path fill="black" stroke="none" paint-order="stroke fill markers" d=" M 500.52842374589835 789.719120768 L 513.0939647458983 796.001891268 L 500.52842374589835 802.284661768 Z"/></g></g><g><g><rect fill="white" stroke="none" x="313.00465044470695" y="859.332217908" width="168.17358865648438" height="19.602243960000003"/></g><text fill="black" stroke="none" font-family="sans-serif" font-size="11pt" font-style="normal" font-weight="normal" text-decoration="normal" x="315.266447824707" y="872.903002188" text-anchor="start" dominant-baseline="alphabetic" xml:space="preserve">displayErrorMessage()</text></g><g><path fill="none" stroke="black" paint-order="fill stroke markers" d=" M 505.55464014589836 878.934461868 L 301.04300390799995 878.934461868" stroke-miterlimit="10" stroke-width="1.2565541" stroke-dasharray=""/><g transform="translate(288.62824939999996,878.934461868) translate(-288.62824939999996,-878.934461868)"><path fill="black" stroke="none" paint-order="stroke fill markers" d=" M 301.19379039999995 872.651691368 L 288.62824939999996 878.934461868 L 301.19379039999995 885.2172323679999 Z"/></g></g><g><g><rect fill="white" stroke="none" x="132.97160927058596" y="901.5524356679999" width="113.15692605882812" height="19.602243960000003"/></g><text fill="black" stroke="none" font-family="sans-serif" font-size="11pt" font-style="normal" font-weight="normal" text-decoration="normal" x="135.23340665058595" y="915.1232199479999" text-anchor="start" dominant-baseline="alphabetic" xml:space="preserve">renderCreate()</text></g><g><path fill="none" stroke="black" paint-order="fill stroke markers" d=" M 273.5496002 921.1546796279999 L 117.96529890800001 921.1546796279999" stroke-miterlimit="10" stroke-width="1.2565541" stroke-dasharray=""/><g transform="translate(105.5505444,921.1546796279999) translate(-105.5505444,-921.1546796279999)"><path fill="black" stroke="none" paint-order="stroke fill markers" d=" M 118.1160854 914.871909128 L 105.5505444 921.1546796279999 L 118.1160854 927.4374501279999 Z"/></g></g><g><g><rect fill="white" stroke="none" x="554.5793481129688" y="1025.197359108" width="156.57359781175782" height="19.602243960000003"/></g><text fill="black" stroke="none" font-family="sans-serif" font-size="11pt" font-style="normal" font-weight="normal" text-decoration="normal" x="556.8411454929687" y="1038.768143388" text-anchor="start" dominant-baseline="alphabetic" xml:space="preserve">createFileMetadata()</text></g><g><path fill="none" stroke="black" paint-order="fill stroke markers" d=" M 520.6332893458983 1044.799603068 L 732.6842501837968 1044.799603068" stroke-miterlimit="10" stroke-width="1.2565541" stroke-dasharray=""/><g transform="translate(745.0990046917968,1044.799603068) translate(-745.0990046917968,-1044.799603068)"><path fill="black" stroke="none" paint-order="stroke fill markers" d=" M 732.5334636917968 1038.516832568 L 745.0990046917968 1044.799603068 L 732.5334636917968 1051.0823735679999 Z"/></g></g><g><g><rect fill="white" stroke="none" x="647.082176543373" y="1067.417576868" width="77.65692605882812" height="19.602243960000003"/></g><text fill="black" stroke="none" font-family="sans-serif" font-size="11pt" font-style="normal" font-weight="normal" text-decoration="normal" x="649.3439739233729" y="1080.988361148" text-anchor="start" dominant-baseline="alphabetic" xml:space="preserve">storeFile()</text></g><g><path fill="none" stroke="black" paint-order="fill stroke markers" d=" M 520.6332893458983 1087.0198208279999 L 838.7732352916757 1087.0198208279999" stroke-miterlimit="10" stroke-width="1.2565541" stroke-dasharray=""/><g transform="translate(851.1879897996757,1087.0198208279999) translate(-851.1879897996757,-1087.0198208279999)"><path fill="black" stroke="none" paint-order="stroke fill markers" d=" M 838.6224487996757 1080.737050328 L 851.1879897996757 1087.0198208279999 L 838.6224487996757 1093.3025913279998 Z"/></g></g><g><g><rect fill="white" stroke="none" x="580.3180209264941" y="1132.255768428" width="97.55692758470703" height="19.602243960000003"/></g><text fill="black" stroke="none" font-family="sans-serif" font-size="11pt" font-style="normal" font-weight="normal" text-decoration="normal" x="582.5798183064941" y="1145.826552708" text-anchor="start" dominant-baseline="alphabetic" xml:space="preserve">createData()</text></g><g><path fill="none" stroke="black" paint-order="fill stroke markers" d=" M 520.6332893458983 1151.858012388 L 725.1449255837969 1151.858012388" stroke-miterlimit="10" stroke-width="1.2565541" stroke-dasharray=""/><g transform="translate(737.5596800917968,1151.858012388) translate(-737.5596800917968,-1151.858012388)"><path fill="black" stroke="none" paint-order="stroke fill markers" d=" M 724.9941390917968 1145.575241888 L 737.5596800917968 1151.858012388 L 724.9941390917968 1158.1407828879999 Z"/></g></g><g><g><rect fill="white" stroke="none" x="576.3846865759082" y="1174.475986188" width="105.4235962858789" height="19.602243960000003"/></g><text fill="black" stroke="none" font-family="sans-serif" font-size="11pt" font-style="normal" font-weight="normal" text-decoration="normal" x="578.6464839559081" y="1188.046770468" text-anchor="start" dominant-baseline="alphabetic" xml:space="preserve">returnQuery()</text></g><g><path fill="none" stroke="black" paint-order="fill stroke markers" d=" M 737.5596800917968 1194.0782301479999 L 533.0480438538983 1194.0782301479999" stroke-miterlimit="10" stroke-width="1.2565541" stroke-dasharray=""/><g transform="translate(520.6332893458983,1194.0782301479999) translate(-520.6332893458983,-1194.0782301479999)"><path fill="black" stroke="none" paint-order="stroke fill markers" d=" M 533.1988303458984 1187.795459648 L 520.6332893458983 1194.0782301479999 L 533.1988303458984 1200.3610006479998 Z"/></g></g><g><g><rect fill="white" stroke="none" x="349.1713145682421" y="1216.696203948" width="95.84026040941406" height="19.602243960000003"/></g><text fill="black" stroke="none" font-family="sans-serif" font-size="11pt" font-style="normal" font-weight="normal" text-decoration="normal" x="351.43311194824213" y="1230.266988228" text-anchor="start" dominant-baseline="alphabetic" xml:space="preserve">returnData()</text></g><g><path fill="none" stroke="black" paint-order="fill stroke markers" d=" M 505.55464014589836 1236.2984479079998 L 301.04300390799995 1236.2984479079998" stroke-miterlimit="10" stroke-width="1.2565541" stroke-dasharray=""/><g transform="translate(288.62824939999996,1236.2984479079998) translate(-288.62824939999996,-1236.2984479079998)"><path fill="black" stroke="none" paint-order="stroke fill markers" d=" M 301.19379039999995 1230.0156774079999 L 288.62824939999996 1236.2984479079998 L 301.19379039999995 1242.5812184079998 Z"/></g></g><g><g><rect fill="white" stroke="none" x="139.93827644587893" y="1258.916421708" width="99.22359170824218" height="19.602243960000003"/></g><text fill="black" stroke="none" font-family="sans-serif" font-size="11pt" font-style="normal" font-weight="normal" text-decoration="normal" x="142.20007382587892" y="1272.487205988" text-anchor="start" dominant-baseline="alphabetic" xml:space="preserve">renderView()</text></g><g><path fill="none" stroke="black" paint-order="fill stroke markers" d=" M 273.5496002 1278.5186656679998 L 117.96529890800001 1278.5186656679998" stroke-miterlimit="10" stroke-width="1.2565541" stroke-dasharray=""/><g transform="translate(105.5505444,1278.5186656679998) translate(-105.5505444,-1278.5186656679998)"><path fill="black" stroke="none" paint-order="stroke fill markers" d=" M 118.1160854 1272.2358951679998 L 105.5505444 1278.5186656679998 L 118.1160854 1284.8014361679998 Z"/></g></g><g><g/><path fill="none" stroke="black" paint-order="fill stroke markers" d=" M 22.6179738 191.348058348 L 949.1992095996758 191.348058348 L 949.1992095996758 1346.372587068 L 22.6179738 1346.372587068 L 22.6179738 191.348058348 Z" stroke-miterlimit="10" stroke-width="2.154092742857143" stroke-dasharray=""/><path fill="white" stroke="black" paint-order="fill stroke markers" d=" M 22.6179738 191.348058348 L 22.6179738 209.442437388 L 81.32527143706055 209.442437388 L 90.37246095706055 200.39524786799998 L 90.37246095706055 191.348058348 L 22.6179738 191.348058348" stroke-miterlimit="10" stroke-width="2.154092742857143" stroke-dasharray=""/><text fill="black" stroke="none" font-family="sans-serif" font-size="8.8pt" font-style="normal" font-weight="bold" text-decoration="normal" x="37.696623" y="203.410977708" text-anchor="start" dominant-baseline="alphabetic" xml:space="preserve">loop</text><text fill="black" stroke="none" font-family="sans-serif" font-size="8.8pt" font-style="normal" font-weight="bold" text-decoration="normal" x="105.45111015706055" y="203.410977708" text-anchor="start" dominant-baseline="alphabetic" xml:space="preserve">[while invalid]</text></g><g><g/><path fill="none" stroke="black" paint-order="fill stroke markers" d=" M 52.7752722 232.060411188 L 797.8742768917969 232.060411188 L 797.8742768917969 483.8738528280001 L 52.7752722 483.8738528280001 L 52.7752722 232.060411188 Z" stroke-miterlimit="10" stroke-width="2.154092742857143" stroke-dasharray=""/><path fill="white" stroke="black" paint-order="fill stroke markers" d=" M 52.7752722 232.060411188 L 52.7752722 250.154790228 L 100.48256983706055 250.154790228 L 109.52975935706056 241.10760070799998 L 109.52975935706056 232.060411188 L 52.7752722 232.060411188" stroke-miterlimit="10" stroke-width="2.154092742857143" stroke-dasharray=""/><text fill="black" stroke="none" font-family="sans-serif" font-size="8.8pt" font-style="normal" font-weight="bold" text-decoration="normal" x="67.8539214" y="244.12333054799998" text-anchor="start" dominant-baseline="alphabetic" xml:space="preserve">alt</text><text fill="black" stroke="none" font-family="sans-serif" font-size="8.8pt" font-style="normal" font-weight="bold" text-decoration="normal" x="124.60840855706056" y="244.12333054799998" text-anchor="start" dominant-baseline="alphabetic" xml:space="preserve">[case hasDependentField]</text></g><g><g/><path fill="none" stroke="black" paint-order="fill stroke markers" d=" M 37.696623 652.754723868 L 934.1205603996757 652.754723868 L 934.1205603996757 1323.754613268 L 37.696623 1323.754613268 L 37.696623 652.754723868 Z" stroke-miterlimit="10" stroke-width="2.154092742857143" stroke-dasharray=""/><path fill="white" stroke="black" paint-order="fill stroke markers" d=" M 37.696623 652.754723868 L 37.696623 670.8491029080001 L 85.40392063706055 670.8491029080001 L 94.45111015706055 661.801913388 L 94.45111015706055 652.754723868 L 37.696623 652.754723868" stroke-miterlimit="10" stroke-width="2.154092742857143" stroke-dasharray=""/><text fill="black" stroke="none" font-family="sans-serif" font-size="8.8pt" font-style="normal" font-weight="bold" text-decoration="normal" x="52.7752722" y="664.8176432280001" text-anchor="start" dominant-baseline="alphabetic" xml:space="preserve">alt</text><text fill="black" stroke="none" font-family="sans-serif" font-size="8.8pt" font-style="normal" font-weight="bold" text-decoration="normal" x="109.52975935706056" y="664.8176432280001" text-anchor="start" dominant-baseline="alphabetic" xml:space="preserve">[case invalid]</text><g><path fill="none" stroke="black" paint-order="fill stroke markers" d=" M 37.696623 735.687294468 L 934.1205603996757 735.687294468" stroke-miterlimit="10" stroke-width="2.154092742857143" stroke-dasharray="3.7696623000000002"/></g><g/><text fill="black" stroke="none" font-family="sans-serif" font-size="8.8pt" font-style="normal" font-weight="bold" text-decoration="normal" x="109.52975935706056" y="747.750213828" text-anchor="start" dominant-baseline="alphabetic" xml:space="preserve">[case valid]</text></g><g/><g><g/><path fill="none" stroke="black" paint-order="fill stroke markers" d=" M 52.7752722 818.619865068 L 919.0419111996757 818.619865068 L 919.0419111996757 1301.1366394679999 L 52.7752722 1301.1366394679999 L 52.7752722 818.619865068 Z" stroke-miterlimit="10" stroke-width="2.154092742857143" stroke-dasharray=""/><path fill="white" stroke="black" paint-order="fill stroke markers" d=" M 52.7752722 818.619865068 L 52.7752722 836.714244108 L 100.48256983706055 836.714244108 L 109.52975935706056 827.6670545879999 L 109.52975935706056 818.619865068 L 52.7752722 818.619865068" stroke-miterlimit="10" stroke-width="2.154092742857143" stroke-dasharray=""/><text fill="black" stroke="none" font-family="sans-serif" font-size="8.8pt" font-style="normal" font-weight="bold" text-decoration="normal" x="67.8539214" y="830.682784428" text-anchor="start" dominant-baseline="alphabetic" xml:space="preserve">alt</text><text fill="black" stroke="none" font-family="sans-serif" font-size="8.8pt" font-style="normal" font-weight="bold" text-decoration="normal" x="124.60840855706056" y="830.682784428" text-anchor="start" dominant-baseline="alphabetic" xml:space="preserve">[case databaseError]</text><g><path fill="none" stroke="black" paint-order="fill stroke markers" d=" M 52.7752722 943.7726534279999 L 919.0419111996757 943.7726534279999" stroke-miterlimit="10" stroke-width="2.154092742857143" stroke-dasharray="3.7696623000000002"/></g><g/><text fill="black" stroke="none" font-family="sans-serif" font-size="8.8pt" font-style="normal" font-weight="bold" text-decoration="normal" x="124.60840855706056" y="955.8355727879999" text-anchor="start" dominant-baseline="alphabetic" xml:space="preserve">[case valid]</text></g><g/><g><g/><path fill="none" stroke="black" paint-order="fill stroke markers" d=" M 460.31869254589833 984.4850062679999 L 903.9632619996758 984.4850062679999 L 903.9632619996758 1109.637794628 L 460.31869254589833 1109.637794628 L 460.31869254589833 984.4850062679999 Z" stroke-miterlimit="10" stroke-width="2.154092742857143" stroke-dasharray=""/><path fill="white" stroke="black" paint-order="fill stroke markers" d=" M 460.31869254589833 984.4850062679999 L 460.31869254589833 1002.5793853079999 L 508.0259901829589 1002.5793853079999 L 517.0731797029589 993.5321957879999 L 517.0731797029589 984.4850062679999 L 460.31869254589833 984.4850062679999" stroke-miterlimit="10" stroke-width="2.154092742857143" stroke-dasharray=""/><text fill="black" stroke="none" font-family="sans-serif" font-size="8.8pt" font-style="normal" font-weight="bold" text-decoration="normal" x="475.3973417458983" y="996.5479256279999" text-anchor="start" dominant-baseline="alphabetic" xml:space="preserve">alt</text><text fill="black" stroke="none" font-family="sans-serif" font-size="8.8pt" font-style="normal" font-weight="bold" text-decoration="normal" x="532.1518289029589" y="996.5479256279999" text-anchor="start" dominant-baseline="alphabetic" xml:space="preserve">[case fileAttachment]</text></g></g><g/><g/><g/><g/><g/></g></svg>