<svg version="1.1" xmlns="http://www.w3.org/2000/svg" xmlns:xlink="http://www.w3.org/1999/xlink" width="805" height="811"><defs/><g><g/><g/><g/><g/><g/><g/><g/><g/><g/><g/><g/><g><rect fill="white" stroke="none" x="0" y="0" width="805" height="811"/></g><g><text fill="black" stroke="none" font-family="sans-serif" font-size="16.5pt" font-style="normal" font-weight="normal" text-decoration="normal" x="296.75484614941405" y="22.6179738" text-anchor="start" dominant-baseline="alphabetic" xml:space="preserve">Delete Many Model</text></g><g/><g><path fill="none" stroke="black" paint-order="fill stroke markers" d=" M 75.393246 119.724474648 L 75.393246 811.834472928" stroke-miterlimit="10" stroke-width="1.2565541" stroke-dasharray="11.598960923076923,5.0262164"/><path fill="none" stroke="black" paint-order="fill stroke markers" d=" M 288.9482889976563 119.724474648 L 288.9482889976563 811.834472928" stroke-miterlimit="10" stroke-width="1.2565541" stroke-dasharray="11.598960923076923,5.0262164"/><path fill="none" stroke="black" paint-order="fill stroke markers" d=" M 478.8366755011719 119.724474648 L 478.8366755011719 811.834472928" stroke-miterlimit="10" stroke-width="1.2565541" stroke-dasharray="11.598960923076923,5.0262164"/><path fill="none" stroke="black" paint-order="fill stroke markers" d=" M 668.3750559011719 119.724474648 L 668.3750559011719 811.834472928" stroke-miterlimit="10" stroke-width="1.2565541" stroke-dasharray="11.598960923076923,5.0262164"/><path fill="none" stroke="black" paint-order="fill stroke markers" d=" M 758.1037066270508 119.724474648 L 758.1037066270508 811.834472928" stroke-miterlimit="10" stroke-width="1.2565541" stroke-dasharray="11.598960923076923,5.0262164"/></g><g><g><path fill="white" stroke="black" paint-order="fill stroke markers" d=" M 83.98807604400001 55.941788532 A 8.594830044 8.594830044 0 1 1 83.98807174658535 55.93319370338846 M 75.393246 64.536618576 L 75.393246 82.93257059999999 M 64.53661857600001 71.171224224 L 86.249873424 71.171224224 M 75.393246 82.93257059999999 L 64.53661857600001 100.122230688 M 75.393246 82.93257059999999 L 86.249873424 100.122230688" stroke-miterlimit="10" stroke-width="2.5633703640000003" stroke-dasharray=""/></g><g><g/><text fill="black" stroke="none" font-family="sans-serif" font-size="11pt" font-style="normal" font-weight="normal" text-decoration="normal" x="58.66824561853028" y="115.200879888" text-anchor="start" dominant-baseline="alphabetic" xml:space="preserve">User</text></g><g><path fill="white" stroke="black" paint-order="fill stroke markers" d=" M 318.8794076596563 76.448751444 A 22.391794062000002 22.391794062000002 0 1 1 318.87939646376014 76.42635965366995 M 260.29885551765625 52.775272199999996 L 260.29885551765625 100.122230688 M 259.01717033565626 76.448751444 L 274.09581953565623 76.448751444" stroke-miterlimit="10" stroke-width="2.5633703640000003" stroke-dasharray=""/></g><g><g/><text fill="black" stroke="none" font-family="sans-serif" font-size="11pt" font-style="normal" font-weight="normal" text-decoration="normal" x="256.5649538841309" y="115.200879888" text-anchor="start" dominant-baseline="alphabetic" xml:space="preserve">Frontend</text></g><g><path fill="white" stroke="black" paint-order="fill stroke markers" d=" M 501.22846956317187 76.448751444 A 22.391794062000002 22.391794062000002 0 1 1 501.2284583672758 76.42635965366995 M 475.8209456611719 54.05695738199999 L 484.8681351811719 46.51763278199999 M 475.8209456611719 54.05695738199999 L 484.8681351811719 61.596281981999994" stroke-miterlimit="10" stroke-width="2.5633703640000003" stroke-dasharray=""/></g><g><g/><text fill="black" stroke="none" font-family="sans-serif" font-size="11pt" font-style="normal" font-weight="normal" text-decoration="normal" x="447.47000870734865" y="115.200879888" text-anchor="start" dominant-baseline="alphabetic" xml:space="preserve">Backend</text></g><g><path fill="white" stroke="black" paint-order="fill stroke markers" d=" M 646.3602280691719 90.170322216 L 646.3602280691719 58.505158896 L 690.3898837331719 58.505158896 L 690.3898837331719 90.170322216" stroke-miterlimit="10" stroke-width="2.5633703640000003" stroke-dasharray=""/><path fill="white" stroke="black" paint-order="fill stroke markers" d=" M 690.3898837331719 57.404417504399994 L 690.3887830009531 57.50393493047687 L 690.385480914369 57.60344240489408 L 690.3799778036256 57.702929976987086 L 690.3722742190294 57.802387698081596 L 690.3623709309322 57.90180562248838 L 690.3502689296548 58.00117380849784 L 690.3359694253872 58.10048231937419 L 690.3194738480679 58.19972122434909 L 690.3007838472408 58.29888059961475 L 690.2799012918905 58.39795052931627 L 690.2568282702551 58.49692110654324 L 690.2315670896176 58.59578243432041 L 690.2041202760748 58.69452462659739 L 690.1744905742854 58.79313780923724 L 690.1426809471949 58.89161212100387 L 690.1086945757394 58.989937714548155 L 690.0725348585278 59.08810475739269 L 690.0342054115015 59.186103432915 L 689.9937100675735 59.28392394132919 L 689.9510528762443 59.38155650066594 L 689.9062381031974 59.478991347750664 L 689.8592702298731 59.576218739179865 L 689.8101539530194 59.67322895229542 L 689.7588941842229 59.77001228615685 L 689.7054960494179 59.86655906251143 L 689.6499648883735 59.96285962676197 L 689.5923062541593 60.0589043489323 L 689.5325259125908 60.15468362463025 L 689.4706298416523 60.250187876008056 L 689.4066242308994 60.345407552720175 L 689.3405154808398 60.440333132878266 L 689.2723102022934 60.53495512400344 L 689.2020152157311 60.62926406397542 L 689.1296375505932 60.72325052197881 L 689.0551844445857 60.816905099446124 L 688.9786633429572 60.910218430997666 L 688.9000818977543 61.00318118537804 L 688.8194479670558 61.09578406638928 L 688.7367696141877 61.18801781382044 L 688.6520551069162 61.27987320437365 L 688.5653129166217 61.3713410525864 L 688.4765517174507 61.46241221175009 L 688.3857803854493 61.5530775748247 L 688.293007997675 61.643328075349466 L 688.1982438312893 61.73315468834955 L 688.10149736263 61.822548431238516 L 688.002778266263 61.91150036471656 L 687.902096414016 62.00000159366446 L 687.7994618739901 62.08804326803307 L 687.6948849095539 62.17561658372833 L 687.5883759783167 62.26271278349164 L 687.4799457310828 62.34932315777561 L 687.3696050107866 62.43543904561498 L 687.2573648514083 62.521051835492734 L 687.14323647687 62.60615296620123 L 687.0272312999143 62.690733927698304 L 686.9093609209622 62.774786261958305 L 686.7896371269533 62.85830156381783 L 686.6680718901672 62.941271481816315 L 686.5446773670263 63.02368771903109 L 686.4194658968802 63.1055420339071 L 686.2924500007714 63.186826241081086 L 686.1636423801839 63.26753221220006 L 686.0330559157721 63.34765187673417 L 685.9007036660739 63.42717722278372 L 685.7665988662038 63.50610029788039 L 685.6307549265302 63.58441320978242 L 685.4931854313337 63.66210812726389 L 685.3539041374493 63.739177280897806 L 685.2129249728902 63.81561296383302 L 685.0702620354555 63.89140753256494 L 684.9259295913199 63.96655340769984 L 684.7799420736077 64.04104307471285 L 684.632314080949 64.11486908469932 L 684.4830603760199 64.1880240551198 L 684.3321958840667 64.26050067053818 L 684.1797356914126 64.33229168335333 L 684.0256950439501 64.4033899145238 L 683.8700893456156 64.47378825428571 L 683.712934156849 64.54347966286376 L 683.5542451930384 64.61245717117517 L 683.3940383229478 64.68071388152656 L 683.2323295671309 64.74824296830381 L 683.0691350963285 64.8150376786545 L 682.9044712298515 64.88109133316327 L 682.7383544339494 64.9463973265197 L 682.5708013201635 65.01094912817888 L 682.4018286436655 65.07474028301444 L 682.2314533015821 65.13776441196404 L 682.0596923313055 65.20001521266732 L 681.8865629087899 65.2614864600961 L 681.712082346833 65.32217200717683 L 681.5362680933457 65.3820657854054 L 681.3591377296068 65.44116180545389 L 681.1807089685051 65.49945415776952 L 681.0009996527681 65.55693701316567 L 680.8200277531774 65.61360462340468 L 680.6378113667723 65.66945132177275 L 680.4543687150397 65.72447152364661 L 680.2697181420916 65.77865972705189 L 680.0838781128316 65.83201051321342 L 679.8968672111079 65.88451854709703 L 679.7087041378545 65.9361785779431 L 679.5194077092223 65.9869854397916 L 679.3289968546961 66.03693405199866 L 679.1374906152028 66.08601941974472 L 678.9449081412068 66.13423663453388 L 678.751268690795 66.18158087468484 L 678.556591627751 66.22804740581307 L 678.3608964196189 66.27363158130416 L 678.1642026357565 66.31832884277853 L 677.9665299453783 66.3621347205473 L 677.7678981155884 66.40504483405921 L 677.5683270094046 66.44705489233864 L 677.3678365837709 66.48816069441477 L 677.1664468875629 66.52835812974169 L 676.9641780595824 66.56764317860932 L 676.7610503265436 66.60601191254551 L 676.5570840010506 66.64346049470888 L 676.352299479566 66.67998518027238 L 676.1467172403711 66.7155823167979 L 675.9403578415188 66.75024834460147 L 675.7332419187768 66.7839797971092 L 675.5253901835648 66.81677330120391 L 675.3168234208832 66.84862557756256 L 675.1075624872344 66.87953344098403 L 674.8976283085374 66.90949380070775 L 674.6870418780352 66.9385036607227 L 674.4758242541951 66.96656012006707 L 674.2639965586038 66.9936603731183 L 674.0515799738542 67.01980170987368 L 673.8385957414278 67.04498151622128 L 673.6250651595701 67.0691972742015 L 673.4110095811617 67.09244656225869 L 673.1964504115818 67.11472705548341 L 672.9814091065689 67.13603652584493 L 672.7659071700739 67.15637284241396 L 672.5499661521111 67.1757339715758 L 672.3336076466022 67.19411797723365 L 672.1168532892176 67.21152302100226 L 671.8997247552123 67.22794736239179 L 671.6822437572589 67.24338935898176 L 671.4644320432759 67.25784746658539 L 671.2463113942531 67.27132023940396 L 671.0279036220736 67.28380633017143 L 670.8092305673329 67.29530449028911 L 670.5903140971539 67.3058135699506 L 670.3711761030014 67.31533251825665 L 670.1518384984921 67.3238603833204 L 669.9323232172038 67.33139631236241 L 669.7126522104816 67.3379395517961 L 669.4928474452431 67.34348944730294 L 669.2729309017817 67.34804544389803 L 669.0529245715684 67.3516070859855 L 668.8328504550531 67.3541740174041 L 668.6127305594638 67.35574598146285 L 668.3925868966066 67.35632282096664 L 668.1724414806647 67.35590447823199 L 667.9523163259959 67.35449099509283 L 667.7322334449324 67.35208251289632 L 667.5122148455787 67.34867927248864 L 667.2922825296116 67.344281614191 L 667.0724584900794 67.33888997776559 L 666.8527647092028 67.33250490237154 L 666.6332231561768 67.32512702651107 L 666.4138557849737 67.31675708796561 L 666.194684532148 67.30739592372207 L 665.9757313146423 67.29704446988903 L 665.7570180275957 67.28570376160329 L 665.5385665421547 67.27337493292619 L 665.3203987032861 67.26005921673035 L 665.1025363275916 67.24575794457628 L 664.8850012011274 67.23047254657928 L 664.6678150772248 67.21420455126642 L 664.4509996743152 67.19695558542367 L 664.2345766737583 67.17872737393323 L 664.0185677176737 67.15952173960108 L 663.8029944067772 67.13934060297463 L 663.58787829822 67.11818598215072 L 663.3732409034338 67.09605999257383 L 663.1591036859792 67.07296484682446 L 662.9454880593995 67.04890285439795 L 662.7324153850794 67.02387642147347 L 662.5199069701087 66.99788805067348 L 662.3079840651518 66.9709403408134 L 662.0966678623226 66.94303598664175 L 661.8859794930654 66.91417777857069 L 661.6759400260415 66.884368602397 L 661.4665704650224 66.85361143901343 L 661.2578917467899 66.82190936411071 L 661.049924739042 66.7892655478699 L 660.842690238306 66.75568325464543 L 660.6362089678593 66.72116584263863 L 660.4305015756569 66.68571676356193 L 660.2255886322666 66.6493395622937 L 660.0214906288121 66.61203787652377 L 659.8182279749235 66.57381543638961 L 659.6158209966968 66.5346760641034 L 659.4142899346613 66.49462367356972 L 659.2136549417551 66.4536622699943 L 659.0139360813104 66.4117959494833 L 658.8151533250467 66.36902889863394 L 658.6173265510741 66.32536539411564 L 658.4204755419051 66.28080980224246 L 658.2246199824767 66.23536657853647 L 658.0297794581813 66.18904026728217 L 657.8359734529093 66.14183550107207 L 657.6432213470996 66.09375700034346 L 657.451542415802 66.04480957290635 L 657.2609558267502 65.99499811346269 L 657.071480638444 65.9443276031169 L 656.8831357982446 65.89280310887783 L 656.6959401404788 65.84042978315193 L 656.5099123845565 65.78721286322815 L 656.3250711330983 65.73315767075412 L 656.1414348700753 65.67826961120406 L 655.9590219589608 65.62255417333817 L 655.7778506408938 65.56601692865381 L 655.5979390328552 65.50866353082833 L 655.4193051258559 65.45049971515373 L 655.2419667831376 65.3915312979631 L 655.065941738387 65.331764176049 L 654.8912475939618 65.27120432607386 L 654.7179018191308 65.20985780397217 L 654.5459217483271 65.14773074434505 L 654.3753245794145 65.08482935984667 L 654.2061273719676 65.02115994056305 L 654.0383470455663 64.9567288533831 L 653.8720003781032 64.89154254136182 L 653.7071040041067 64.82560752307609 L 653.5436744130766 64.7589303919728 L 653.3817279478359 64.69151781570949 L 653.2212808028961 64.62337653548761 L 653.062349022838 64.5545133653784 L 652.9049485007072 64.48493519164148 L 652.7490949764248 64.41464897203626 L 652.5948040352132 64.34366173512612 L 652.442091106038 64.27198057957558 L 652.290971460065 64.19961267344047 L 652.1414602091327 64.12656525345112 L 651.9935723042416 64.05284562428861 L 651.8473225340591 63.97846115785447 L 651.7027255234402 63.90341929253332 L 651.5597957319656 63.82772753244919 L 651.4185474524951 63.751393446714985 L 651.2789948097392 63.67442466867568 L 651.1411517588457 63.59682889514493 L 651.0050320840048 63.51861388563544 L 650.8706493970708 63.439787461582966 L 650.7380171362003 63.36035750556424 L 650.6071485645087 63.28033196050866 L 650.4780567687443 63.19971882890405 L 650.350754657979 63.118526171996386 L 650.2252549623178 63.03676210898371 L 650.1015702316256 62.95443481620418 L 649.9797128342726 62.87155252631846 L 649.859694955897 62.78812352748649 L 649.7415285981864 62.70415616253861 L 649.6252255776782 62.619658828141354 L 649.5107975245776 62.534639973957745 L 649.3982558815944 62.44910810180235 L 649.2876119027992 62.36307176479111 L 649.1788766524978 62.27653956648603 L 649.0720610041245 62.189520160034824 L 648.967175639155 62.102022247305634 L 648.8642310460386 62.014054578016804 L 648.7632375191488 61.92562594886197 L 648.664205157754 61.83674520263035 L 648.567143865008 61.7474212273225 L 648.472063346959 61.657662955261515 L 648.3789731115796 61.567479362199805 L 648.2878824678158 61.47687946642152 L 648.1988005246562 61.38587232784074 L 648.1117361902207 61.29446704709548 L 648.0266981708703 61.202672764637654 L 647.943694970336 61.110498659819 L 647.8627348888685 61.017953949973204 L 647.783826022409 60.92504788949412 L 647.7069762617779 60.83178976891037 L 647.6321932918875 60.7381889139563 L 647.5594845909723 60.644254684639414 L 647.4888574298418 60.54999647430436 L 647.4203188711534 60.455423708693615 L 647.3538757687058 60.36054584500494 L 647.2895347667538 60.26537237094564 L 647.227302299344 60.16991280378381 L 647.1671845896715 60.07417668939661 L 647.1091876494568 59.9781736013157 L 647.0533172783458 59.88191313976989 L 646.9995790633292 59.785404930725115 L 646.9479783781833 59.68865862492186 L 646.898520382934 59.59168389691008 L 646.8512100233395 59.494490444081755 L 646.8060520303961 59.3970879857012 L 646.7630509198659 59.299486261933055 L 646.7222109918238 59.20169503286838 L 646.6835363302287 59.103724077548584 L 646.6470308025143 59.00558319298756 L 646.6126980592034 58.907282193191975 L 646.5805415335413 58.80883090817989 L 646.5505644411539 58.710239182997775 L 646.5227697797256 58.611516876735976 L 646.4971603286992 58.51267386154286 L 646.4737386489986 58.41372002163757 L 646.4525070827722 58.31466525232164 L 646.4334677531588 58.215519458989455 L 646.4166225640756 58.11629255613773 L 646.4019732000276 58.01699446637406 L 646.3895211259387 57.917635119424666 L 646.3792675870062 57.818224451141454 L 646.3712136085753 57.7187724025084 L 646.3653599960373 57.6192889186475 L 646.3617073347484 57.51978394782424 L 646.3602559899717 57.42026744045276 L 646.3610061068406 57.3207493481009 L 646.363957610344 57.221239622494934 L 646.3691102053338 57.12174821452452 L 646.3764633765551 57.02228507324753 L 646.3860163886966 56.92286014489522 L 646.3977682864653 56.82348337187756 L 646.4117178946811 56.72416469178904 L 646.4278638183949 56.62491403641491 L 646.4462044430277 56.52574133073799 L 646.4667379345323 56.42665649194621 L 646.4894622395767 56.32766942844088 L 646.5143750857493 56.22879003884586 L 646.5414739817863 56.1300282110177 L 646.5707562178206 56.031393821056895 L 646.6022188656531 55.932896732320245 L 646.6358587790452 55.83454679443454 L 646.6716725940335 55.73635384231161 L 646.7096567292665 55.63832769516483 L 646.7498073863621 55.54047815552725 L 646.7921205502884 55.442815008271275 L 646.836591989764 55.34534801963025 L 646.8832172576821 55.24808693622182 L 646.9319916915547 55.15104148407327 L 646.9829104139791 55.054221367648935 L 647.0359683331254 54.957636268879796 L 647.0911601432462 54.861295846195226 L 647.148480325206 54.76520973355722 L 647.2079231470349 54.66938753949697 L 647.2694826644998 54.57383884615402 L 647.3331527217006 54.47857320831808 L 647.3989269516844 54.38360015247356 L 647.4667987770832 54.288929175846896 L 647.5367614107709 54.19456974545685 L 647.6088078565423 54.10053129716784 L 647.6829309098132 54.00682323474632 L 647.7591231583397 53.913454928920444 L 647.8373769829607 53.820435716442994 L 647.9176845583588 53.7277748991577 L 648.0000378538434 53.635481743069064 L 648.0844286341537 53.5435654774158 L 648.1708484602818 53.45203529374787 L 648.2592886903172 53.36090034500735 L 648.3497404803107 53.2701697446132 L 648.4421947851586 53.17985256554982 L 648.5366423595074 53.08995783945988 L 648.6330737586784 53.00049455574105 L 648.731479339612 52.911471660647166 L 648.8318492618322 52.82289805639355 L 648.9341734884304 52.73478260026681 L 649.0384417870691 52.64713410373914 L 649.1446437310055 52.55996133158715 L 649.2527687001336 52.4732730010154 L 649.3628058820467 52.387077780784715 L 649.4747442731182 52.30138429034529 L 649.5885726796023 52.21620109897476 L 649.7042797187531 52.13153672492127 L 649.8218538199633 52.047399634551674 L 649.9412832259206 51.963798241504904 L 650.0625559937841 51.88074090585058 L 650.1856599963779 51.79823593325307 L 650.3105829234045 51.71629157414086 L 650.4373122826751 51.6349160228816 L 650.5658354013594 51.55411741696258 L 650.6961394272529 51.47390383617708 L 650.8282113300613 51.394283301816316 L 650.9620379027045 51.315263775867386 L 651.0976057626368 51.23685316021703 L 651.2349013531851 51.159059295861475 L 651.3739109449048 51.081889962122325 L 651.5146206369525 51.005352875868645 L 651.6570163584763 50.92945569074528 L 651.8010838700228 50.8542059964075 L 651.9468087649607 50.77961131776203 L 652.0941764709222 50.70567911421457 L 652.2431722512592 50.63241677892386 L 652.3937812065182 50.559831638062384 L 652.5459882759288 50.487930950083744 L 652.6997782389112 50.41672190499681 L 652.8551357165971 50.34621162364676 L 653.0120451733683 50.276407157002964 L 653.1704909184097 50.207315485453925 L 653.3304571072789 50.13894351810921 L 653.4919277434905 50.071298092108584 L 653.6548866801153 50.00438597193828 L 653.8193176213954 49.938213848754536 L 653.9852041243737 49.87278833971455 L 654.1525296005382 49.80811598731469 L 654.3212773174807 49.74420325873631 L 654.4914304005702 49.68105654519901 L 654.66297183464 49.61868216132152 L 654.8358844656898 49.557086344490244 L 655.0101510026005 49.496275254235535 L 655.1857540188638 49.436254971615746 L 655.3626759543241 49.37703149860913 L 655.5408991169356 49.31861075751362 L 655.7204056845304 49.260998590354646 L 655.9011777066014 49.20420075830092 L 656.0831971060969 49.148222941088314 L 656.2664456812288 49.0930707364519 L 656.4509051072922 49.03874965956618 L 656.6365569384982 48.985265142493574 L 656.8233826098185 48.93262253364123 L 657.0113634388415 48.880827097226145 L 657.200480627641 48.82988401274882 L 657.3907152646558 48.779798374475234 L 657.5820483265807 48.73057519092748 L 657.7744606802688 48.6822193843829 L 657.9679330846452 48.634735790381846 L 658.1624461926307 48.58812915724415 L 658.3579805530766 48.54240414559428 L 658.5545166127098 48.497565327895316 L 658.7520347180881 48.45361718799164 L 658.9505151175655 48.41056412066064 L 659.1499379632675 48.36841043117315 L 659.3502833130757 48.32716033486301 L 659.5515311326221 48.28681795670546 L 659.7536612972925 48.247387330904715 L 659.9566535942388 48.20887240049048 L 660.1604877244005 48.17127701692371 L 660.3651433045343 48.13460493971143 L 660.570599869253 48.0988598360308 L 660.7768368730711 48.06404528036239 L 660.9838336924603 48.030164754132784 L 661.1915696279109 47.997221645366345 L 661.4000239060027 47.96521924834651 L 661.6091756814815 47.9341607632863 L 661.819004039344 47.90404929600835 L 662.0294879969294 47.87488785763429 L 662.2406065060172 47.846679364283666 L 662.4523384549326 47.819426636782296 L 662.664662670657 47.793132400380216 L 662.8775579209457 47.76779928447917 L 663.0910029164513 47.74342982236962 L 663.304976312852 47.72002645097748 L 663.5194567129864 47.69759151062038 L 663.7344226689934 47.67612724477367 L 663.9498526844563 47.65563579984603 L 664.1657252165534 47.636119224964894 L 664.382018678211 47.61757947177148 L 664.5987114402635 47.60001839422566 L 664.8157818336151 47.58343774842055 L 665.0332081514075 47.567839192406915 L 665.25096865119 47.55322428602736 L 665.469041557094 47.53959449076034 L 665.6874050620107 47.52695116957402 L 665.9060373297717 47.515295586789996 L 666.1249164973324 47.50462890795682 L 666.3440206769583 47.4949521997335 L 666.5633279584141 47.48626642978277 L 666.7828164111544 47.47857246667442 L 667.0024640865169 47.47187107979833 L 667.222249019917 47.4661629392876 L 667.4421492330445 47.46144861595154 L 667.6621427360614 47.45772858121853 L 667.8822075298008 47.45500320708897 L 668.1023216079666 47.45327276609799 L 668.3224629593344 47.45253743128824 L 668.5426095699526 47.4527972761926 L 668.7627394253435 47.45405227482679 L 668.982830512705 47.45630230169199 L 669.202860823112 47.4595471317874 L 669.4228083537165 47.4637864406327 L 669.6426511099489 47.46901980430055 L 669.8623671077169 47.475246699458935 L 670.0819343756035 47.48246650342354 L 670.301330957065 47.49067849421997 L 670.5205349126263 47.499881850656 L 670.7395243220742 47.51007565240366 L 670.9582772866505 47.52125888009125 L 671.1767719312409 47.533430415405334 L 671.394986406563 47.54658904120252 L 671.6128988913513 47.56073344163121 L 671.8304875945387 47.575862202263124 L 672.0477307574362 47.59197381023482 L 672.2646066559087 47.609066654398916 L 672.4810936025469 47.62713902548525 L 672.6971699488369 47.64618911627178 L 672.9128140873237 47.66621502176528 L 673.1280044537733 47.687214739391905 L 673.3427195293285 47.709186169197395 L 673.5569378426605 47.732127114057064 L 673.7706379721167 47.756035279895556 L 673.9837985478621 47.78090827591621 L 674.1963982540167 47.806743614840144 L 674.4084158307871 47.833538713155 L 674.6198300765924 47.86129089137327 L 674.830619850184 47.88999737430027 L 675.0407640727605 47.91965529131163 L 675.2502417300744 47.950261676640345 L 675.4590318745348 47.9818134696734 L 675.6671136273011 48.014307515257784 L 675.8744661803715 48.047740564016024 L 676.0810687986635 48.08210927267109 L 676.2869008220874 48.11741020438076 L 676.4919416676124 48.1536398290813 L 676.6961708313248 48.1907945238404 L 676.8995678904785 48.228870573219574 L 677.1021125055369 48.2678641696456 L 677.3037844222074 48.30777141379133 L 677.5045634734664 48.34858831496561 L 677.704429581576 48.39031079151233 L 677.9033627600921 48.43293467121861 L 678.1013431158625 48.476455691732 L 678.2983508510167 48.520869500986706 L 678.4943662649453 48.56617165763883 L 678.6893697562701 48.61235763151045 L 678.8833418248048 48.65942280404266 L 679.0762630735039 48.70736246875744 L 679.2681142104035 48.75617183172826 L 679.4588760505496 48.8058460120595 L 679.6485295179173 48.85638004237452 L 679.8370556473178 48.907768869312406 L 680.0244355862955 48.96000735403328 L 680.2106505970122 49.01309027273221 L 680.3956820581225 49.06701231716155 L 680.5795114666341 49.1217680951618 L 680.7621204397597 49.17735213120079 L 680.9434907167538 49.23375886692124 L 681.12360416074 49.290982661696574 L 681.3024427605241 49.34901779319501 L 681.4799886323949 49.407858457951754 L 681.6562240219134 49.467498771949366 L 681.8311313056874 49.52793277120614 L 682.0046929931344 49.58915441237252 L 682.1768917282302 49.65115757333541 L 682.3477102912448 49.71393605383038 L 682.517131600464 49.777483576061684 L 682.6851387138986 49.841793785330076 L 682.8517148309768 49.9068602506682 L 683.0168432942259 49.97267646548376 L 683.180507590937 50.03923584821011 L 683.3426913548171 50.10653174296445 L 683.5033783676248 50.17455742021338 L 683.6625525607927 50.24330607744587 L 683.8201980170343 50.31277083985348 L 683.9762989719352 50.38294476101786 L 684.13083981553 50.45382082360537 L 684.2838050938631 50.525391940068815 L 684.4351795105341 50.59765095335619 L 684.5849479282276 50.67059063762638 L 684.7330953702267 50.744203698971745 L 684.8796070219105 50.81848277614749 L 685.0244682322359 50.89342044130781 L 685.1676645152027 50.969009200748616 L 685.3091815513019 51.045241495656974 L 685.4490051889478 51.12210970286691 L 685.5871214458932 51.19960613562175 L 685.7235165106274 51.277723044342814 L 685.8581767437578 51.35645261740432 L 685.991088679373 51.435786981914575 L 686.1222390263904 51.51571820450324 L 686.2516146698846 51.596238292114656 L 686.379202672399 51.67733919280717 L 686.5049902752396 51.759012796558295 L 686.6289648997512 51.84125093607571 L 686.7511141485743 51.92404538761401 L 686.8714258068861 52.007387871797015 L 686.9898878436209 52.09127005444578 L 687.1064884126737 52.17568354741193 L 687.2212158540849 52.26061990941651 L 687.3340586952058 52.34607064689411 L 687.4450056518465 52.432027214842186 L 687.5540456294036 52.51848101767557 L 687.6611677239705 52.605423410086026 L 687.7663612234267 52.69284569790677 L 687.86961560851 52.78073913898186 L 687.970920553868 52.86909494404044 L 688.0702659290906 52.957904277575636 L 688.1676417997231 53.0471582587281 L 688.2630384282594 53.136847962174095 L 688.3564462751164 53.22696441901801 L 688.447855999587 53.31749861768927 L 688.537258460775 53.408441504843445 L 688.6246447185089 53.49978398626761 L 688.7100060342356 53.59151692778973 L 688.7933338718947 53.68363115619211 L 688.8746198987719 53.77611746012866 L 688.9538559863324 53.868966591046075 L 689.0310342110332 53.96216926410862 L 689.1061468551163 54.05571615912666 L 689.1791864073799 54.149597921488656 L 689.2501455639296 54.243805163096596 L 689.3190172289088 54.33832846330484 L 689.3857945152085 54.43315836986213 L 689.4504707451557 54.52828539985682 L 689.5130394511813 54.623700040665206 L 689.5734943764668 54.719392750902706 L 689.63182947557 54.815353961378044 L 689.6880389150299 54.91157407605014 L 689.742117073949 55.0080434729877 L 689.7940585445567 55.10475250533143 L 689.8438581327491 55.20169150225869 L 689.8915108586091 55.29885076995057 L 689.9370119569036 55.39622059256126 L 689.9803568775607 55.49379123318963 L 690.0215412861245 55.591552934852956 L 690.0605610641886 55.68949592146251 L 690.0974123098075 55.78761039880126 L 690.1320913378875 55.88588655550324 L 690.1645946805546 55.98431456403467 L 690.1949190875017 56.08288458167672 L 690.2230615263132 56.18158675150977 L 690.249019182769 56.28041120339909 L 690.2727894611247 56.37934805498184 L 690.2943699843726 56.47838741265531 L 690.3137585944781 56.57751937256626 L 690.3309533525965 56.67673402160132 L 690.3459525392662 56.77602143837825 L 690.3587546545813 56.87537169423813 L 690.3693584183407 56.974774854238156 L 690.3777627701768 57.074220978145156 L 690.3839668696615 57.173700121429626 L 690.3879700963902 57.27320233626013 L 690.3897720500432 57.3727176724981 M 690.3898837331719 89.0695808244 L 690.3887830009531 89.16909825047689 L 690.385480914369 89.26860572489409 L 690.3799778036256 89.3680932969871 L 690.3722742190294 89.46755101808161 L 690.3623709309322 89.56696894248839 L 690.3502689296548 89.66633712849786 L 690.3359694253872 89.7656456393742 L 690.3194738480679 89.86488454434911 L 690.3007838472408 89.96404391961477 L 690.2799012918905 90.06311384931628 L 690.2568282702551 90.16208442654325 L 690.2315670896176 90.26094575432042 L 690.2041202760748 90.3596879465974 L 690.1744905742854 90.45830112923726 L 690.1426809471949 90.55677544100388 L 690.1086945757394 90.65510103454817 L 690.0725348585278 90.7532680773927 L 690.0342054115015 90.85126675291501 L 689.9937100675735 90.9490872613292 L 689.9510528762443 91.04671982066594 L 689.9062381031974 91.14415466775068 L 689.8592702298731 91.24138205917988 L 689.8101539530194 91.33839227229542 L 689.7588941842229 91.43517560615686 L 689.7054960494179 91.53172238251143 L 689.6499648883735 91.62802294676199 L 689.5923062541593 91.72406766893232 L 689.5325259125908 91.81984694463027 L 689.4706298416523 91.91535119600807 L 689.4066242308994 92.01057087272018 L 689.3405154808398 92.10549645287828 L 689.2723102022934 92.20011844400345 L 689.2020152157311 92.29442738397543 L 689.1296375505932 92.38841384197882 L 689.0551844445857 92.48206841944614 L 688.9786633429572 92.57538175099768 L 688.9000818977543 92.66834450537806 L 688.8194479670558 92.76094738638929 L 688.7367696141877 92.85318113382046 L 688.6520551069162 92.94503652437366 L 688.5653129166217 93.0365043725864 L 688.4765517174507 93.1275755317501 L 688.3857803854493 93.2182408948247 L 688.293007997675 93.30849139534948 L 688.1982438312893 93.39831800834956 L 688.10149736263 93.48771175123852 L 688.002778266263 93.57666368471656 L 687.902096414016 93.66516491366447 L 687.7994618739901 93.75320658803308 L 687.6948849095539 93.84077990372833 L 687.5883759783167 93.92787610349166 L 687.4799457310828 94.01448647777562 L 687.3696050107866 94.10060236561499 L 687.2573648514083 94.18621515549275 L 687.14323647687 94.27131628620124 L 687.0272312999143 94.35589724769832 L 686.9093609209622 94.43994958195832 L 686.7896371269533 94.52346488381785 L 686.6680718901672 94.60643480181633 L 686.5446773670263 94.68885103903109 L 686.4194658968802 94.77070535390712 L 686.2924500007714 94.8519895610811 L 686.1636423801839 94.93269553220007 L 686.0330559157721 95.01281519673418 L 685.9007036660739 95.09234054278373 L 685.7665988662038 95.1712636178804 L 685.6307549265302 95.24957652978243 L 685.4931854313337 95.32727144726391 L 685.3539041374493 95.40434060089783 L 685.2129249728902 95.48077628383304 L 685.0702620354555 95.55657085256495 L 684.9259295913199 95.63171672769985 L 684.7799420736077 95.70620639471286 L 684.632314080949 95.78003240469934 L 684.4830603760199 95.8531873751198 L 684.3321958840667 95.92566399053818 L 684.1797356914126 95.99745500335334 L 684.0256950439501 96.06855323452382 L 683.8700893456156 96.13895157428573 L 683.712934156849 96.20864298286378 L 683.5542451930384 96.27762049117517 L 683.3940383229478 96.34587720152658 L 683.2323295671309 96.41340628830382 L 683.0691350963285 96.48020099865451 L 682.9044712298515 96.54625465316329 L 682.7383544339494 96.6115606465197 L 682.5708013201635 96.67611244817888 L 682.4018286436655 96.73990360301444 L 682.2314533015821 96.80292773196405 L 682.0596923313055 96.86517853266734 L 681.8865629087899 96.92664978009611 L 681.712082346833 96.98733532717685 L 681.5362680933457 97.0472291054054 L 681.3591377296068 97.10632512545389 L 681.1807089685051 97.16461747776954 L 681.0009996527681 97.22210033316568 L 680.8200277531774 97.27876794340469 L 680.6378113667723 97.33461464177277 L 680.4543687150397 97.38963484364662 L 680.2697181420916 97.4438230470519 L 680.0838781128316 97.49717383321342 L 679.8968672111079 97.54968186709704 L 679.7087041378545 97.60134189794312 L 679.5194077092223 97.6521487597916 L 679.3289968546961 97.70209737199868 L 679.1374906152028 97.75118273974472 L 678.9449081412068 97.79939995453388 L 678.751268690795 97.84674419468486 L 678.556591627751 97.89321072581308 L 678.3608964196189 97.93879490130416 L 678.1642026357565 97.98349216277855 L 677.9665299453783 98.02729804054732 L 677.7678981155884 98.07020815405922 L 677.5683270094046 98.11221821233865 L 677.3678365837709 98.15332401441479 L 677.1664468875629 98.1935214497417 L 676.9641780595824 98.23280649860932 L 676.7610503265436 98.27117523254553 L 676.5570840010506 98.30862381470888 L 676.352299479566 98.34514850027239 L 676.1467172403711 98.38074563679791 L 675.9403578415188 98.41541166460149 L 675.7332419187768 98.4491431171092 L 675.5253901835648 98.48193662120391 L 675.3168234208832 98.51378889756256 L 675.1075624872344 98.54469676098404 L 674.8976283085374 98.57465712070776 L 674.6870418780352 98.60366698072272 L 674.4758242541951 98.63172344006709 L 674.2639965586038 98.65882369311832 L 674.0515799738542 98.6849650298737 L 673.8385957414278 98.7101448362213 L 673.6250651595701 98.73436059420152 L 673.4110095811617 98.75760988225869 L 673.1964504115818 98.77989037548343 L 672.9814091065689 98.80119984584495 L 672.7659071700739 98.82153616241398 L 672.5499661521111 98.8408972915758 L 672.3336076466022 98.85928129723365 L 672.1168532892176 98.87668634100228 L 671.8997247552123 98.89311068239181 L 671.6822437572589 98.90855267898178 L 671.4644320432759 98.92301078658541 L 671.2463113942531 98.93648355940398 L 671.0279036220736 98.94896965017145 L 670.8092305673329 98.96046781028913 L 670.5903140971539 98.9709768899506 L 670.3711761030014 98.98049583825666 L 670.1518384984921 98.9890237033204 L 669.9323232172038 98.99655963236242 L 669.7126522104816 99.0031028717961 L 669.4928474452431 99.00865276730295 L 669.2729309017817 99.01320876389804 L 669.0529245715684 99.01677040598551 L 668.8328504550531 99.01933733740412 L 668.6127305594638 99.02090930146286 L 668.3925868966066 99.02148614096664 L 668.1724414806647 99.021067798232 L 667.9523163259959 99.01965431509285 L 667.7322334449324 99.01724583289632 L 667.5122148455787 99.01384259248866 L 667.2922825296116 99.00944493419102 L 667.0724584900794 99.00405329776561 L 666.8527647092028 98.99766822237156 L 666.6332231561768 98.99029034651109 L 666.4138557849737 98.98192040796563 L 666.194684532148 98.97255924372207 L 665.9757313146423 98.96220778988905 L 665.7570180275957 98.95086708160329 L 665.5385665421547 98.93853825292621 L 665.3203987032861 98.92522253673036 L 665.1025363275916 98.91092126457629 L 664.8850012011274 98.8956358665793 L 664.6678150772248 98.87936787126644 L 664.4509996743152 98.86211890542369 L 664.2345766737583 98.84389069393325 L 664.0185677176737 98.8246850596011 L 663.8029944067772 98.80450392297463 L 663.58787829822 98.78334930215074 L 663.3732409034338 98.76122331257385 L 663.1591036859792 98.73812816682448 L 662.9454880593995 98.71406617439796 L 662.7324153850794 98.6890397414735 L 662.5199069701087 98.6630513706735 L 662.3079840651518 98.6361036608134 L 662.0966678623226 98.60819930664177 L 661.8859794930654 98.57934109857071 L 661.6759400260415 98.54953192239701 L 661.4665704650224 98.51877475901345 L 661.2578917467899 98.48707268411073 L 661.049924739042 98.45442886786992 L 660.842690238306 98.42084657464544 L 660.6362089678593 98.38632916263863 L 660.4305015756569 98.35088008356193 L 660.2255886322666 98.31450288229371 L 660.0214906288121 98.27720119652378 L 659.8182279749235 98.23897875638961 L 659.6158209966968 98.1998393841034 L 659.4142899346613 98.15978699356974 L 659.2136549417551 98.1188255899943 L 659.0139360813104 98.07695926948332 L 658.8151533250467 98.03419221863396 L 658.6173265510741 97.99052871411565 L 658.4204755419051 97.94597312224248 L 658.2246199824767 97.90052989853648 L 658.0297794581813 97.85420358728217 L 657.8359734529093 97.80699882107207 L 657.6432213470996 97.75892032034346 L 657.451542415802 97.70997289290635 L 657.2609558267502 97.66016143346269 L 657.071480638444 97.60949092311692 L 656.8831357982446 97.55796642887785 L 656.6959401404788 97.50559310315195 L 656.5099123845565 97.45237618322817 L 656.3250711330983 97.39832099075414 L 656.1414348700753 97.34343293120408 L 655.9590219589608 97.28771749333818 L 655.7778506408938 97.23118024865381 L 655.5979390328552 97.17382685082835 L 655.4193051258559 97.11566303515374 L 655.2419667831376 97.0566946179631 L 655.065941738387 96.99692749604901 L 654.8912475939618 96.93636764607388 L 654.7179018191308 96.87502112397219 L 654.5459217483271 96.81289406434506 L 654.3753245794145 96.74999267984667 L 654.2061273719676 96.68632326056307 L 654.0383470455663 96.62189217338312 L 653.8720003781032 96.55670586136183 L 653.7071040041067 96.4907708430761 L 653.5436744130766 96.4240937119728 L 653.3817279478359 96.3566811357095 L 653.2212808028961 96.28853985548761 L 653.062349022838 96.21967668537842 L 652.9049485007072 96.1500985116415 L 652.7490949764248 96.07981229203628 L 652.5948040352132 96.00882505512612 L 652.442091106038 95.93714389957559 L 652.290971460065 95.86477599344049 L 652.1414602091327 95.79172857345112 L 651.9935723042416 95.71800894428863 L 651.8473225340591 95.64362447785447 L 651.7027255234402 95.56858261253333 L 651.5597957319656 95.4928908524492 L 651.4185474524951 95.41655676671499 L 651.2789948097392 95.33958798867569 L 651.1411517588457 95.26199221514494 L 651.0050320840048 95.18377720563545 L 650.8706493970708 95.10495078158299 L 650.7380171362003 95.02552082556426 L 650.6071485645087 94.94549528050867 L 650.4780567687443 94.86488214890406 L 650.350754657979 94.7836894919964 L 650.2252549623178 94.70192542898371 L 650.1015702316256 94.61959813620419 L 649.9797128342726 94.53671584631847 L 649.859694955897 94.4532868474865 L 649.7415285981864 94.36931948253863 L 649.6252255776782 94.28482214814137 L 649.5107975245776 94.19980329395776 L 649.3982558815944 94.11427142180236 L 649.2876119027992 94.02823508479112 L 649.1788766524978 93.94170288648604 L 649.0720610041245 93.85468348003484 L 648.967175639155 93.76718556730565 L 648.8642310460386 93.67921789801682 L 648.7632375191488 93.59078926886198 L 648.664205157754 93.50190852263036 L 648.567143865008 93.41258454732251 L 648.472063346959 93.32282627526152 L 648.3789731115796 93.23264268219981 L 648.2878824678158 93.14204278642153 L 648.1988005246562 93.05103564784075 L 648.1117361902207 92.9596303670955 L 648.0266981708703 92.86783608463767 L 647.943694970336 92.77566197981902 L 647.8627348888685 92.68311726997321 L 647.783826022409 92.59021120949413 L 647.7069762617779 92.49695308891037 L 647.6321932918875 92.40335223395631 L 647.5594845909723 92.30941800463943 L 647.4888574298418 92.21515979430437 L 647.4203188711534 92.12058702869363 L 647.3538757687058 92.02570916500495 L 647.2895347667538 91.93053569094566 L 647.227302299344 91.83507612378382 L 647.1671845896715 91.73934000939661 L 647.1091876494568 91.64333692131571 L 647.0533172783458 91.5470764597699 L 646.9995790633292 91.45056825072513 L 646.9479783781833 91.35382194492188 L 646.898520382934 91.25684721691009 L 646.8512100233395 91.15965376408177 L 646.8060520303961 91.06225130570121 L 646.7630509198659 90.96464958193306 L 646.7222109918238 90.86685835286839 L 646.6835363302287 90.7688873975486 L 646.6470308025143 90.67074651298756 L 646.6126980592034 90.57244551319198 L 646.5805415335413 90.4739942281799 L 646.5505644411539 90.37540250299779 L 646.5227697797256 90.276680196736 L 646.4971603286992 90.17783718154287 L 646.4737386489986 90.07888334163758 L 646.4525070827722 89.97982857232165 L 646.4334677531588 89.88068277898947 L 646.4166225640756 89.78145587613774 L 646.4019732000276 89.68215778637406 L 646.3895211259387 89.58279843942468 L 646.3792675870062 89.48338777114147 L 646.3712136085753 89.38393572250841 L 646.3653599960373 89.28445223864752 L 646.3617073347484 89.18494726782424 L 646.3602559899717 89.08543076045278" stroke-miterlimit="10" stroke-width="2.5633703640000003" stroke-dasharray=""/></g><g><g/><text fill="black" stroke="none" font-family="sans-serif" font-size="11pt" font-style="normal" font-weight="normal" text-decoration="normal" x="633.3750559011719" y="115.200879888" text-anchor="start" dominant-baseline="alphabetic" xml:space="preserve">Database</text></g><g><path fill="white" stroke="black" paint-order="fill stroke markers" d=" M 780.4955006890508 74.3980551528 A 22.391794062000002 22.391794062000002 0 1 1 780.4954894931547 74.37566336246995 M 734.4302273830507 98.840545506 L 781.7771858710508 98.840545506" stroke-miterlimit="10" stroke-width="2.5633703640000003" stroke-dasharray=""/></g><g><g/><text fill="black" stroke="none" font-family="sans-serif" font-size="11pt" font-style="normal" font-weight="normal" text-decoration="normal" x="718.4537051011719" y="115.200879888" text-anchor="start" dominant-baseline="alphabetic" xml:space="preserve">FileSystem</text></g></g><g><path fill="white" stroke="black" paint-order="fill stroke markers" d=" M 67.8539214 127.263799248 L 82.9325706 127.263799248 L 82.9325706 169.484017008 L 67.8539214 169.484017008 L 67.8539214 127.263799248" stroke-miterlimit="10" stroke-width="1.2565541" stroke-dasharray=""/><path fill="white" stroke="black" paint-order="fill stroke markers" d=" M 281.4089643976563 169.484017008 L 296.48761359765626 169.484017008 L 296.48761359765626 759.059200728 L 281.4089643976563 759.059200728 L 281.4089643976563 169.484017008" stroke-miterlimit="10" stroke-width="1.2565541" stroke-dasharray=""/><path fill="white" stroke="black" paint-order="fill stroke markers" d=" M 471.2973509011719 211.704234768 L 486.3760001011719 211.704234768 L 486.3760001011719 694.221009168 L 471.2973509011719 694.221009168 L 471.2973509011719 211.704234768" stroke-miterlimit="10" stroke-width="1.2565541" stroke-dasharray=""/><path fill="white" stroke="black" paint-order="fill stroke markers" d=" M 660.8357313011719 401.6952146880001 L 675.9143805011719 401.6952146880001 L 675.9143805011719 652.000791408 L 660.8357313011719 652.000791408 L 660.8357313011719 401.6952146880001" stroke-miterlimit="10" stroke-width="1.2565541" stroke-dasharray=""/><g><g><rect fill="white" stroke="none" x="106.60063576824219" y="149.88177304799999" width="151.14026346117188" height="19.602243960000003"/></g><text fill="black" stroke="none" font-family="sans-serif" font-size="11pt" font-style="normal" font-weight="normal" text-decoration="normal" x="108.86243314824219" y="163.45255732799998" text-anchor="start" dominant-baseline="alphabetic" xml:space="preserve">Clicks delete button</text></g><g><path fill="none" stroke="black" paint-order="fill stroke markers" d=" M 82.9325706 169.484017008 L 268.9942098896563 169.484017008" stroke-miterlimit="10" stroke-width="1.2565541" stroke-dasharray=""/><g transform="translate(281.4089643976563,169.484017008) translate(-281.4089643976563,-169.484017008)"><path fill="black" stroke="none" paint-order="stroke fill markers" d=" M 268.8434233976563 163.201246508 L 281.4089643976563 169.484017008 L 268.8434233976563 175.766787508 Z"/></g></g><g><g><rect fill="white" stroke="none" x="314.3306818176563" y="192.10199080799998" width="139.12360086351563" height="19.602243960000003"/></g><text fill="black" stroke="none" font-family="sans-serif" font-size="11pt" font-style="normal" font-weight="normal" text-decoration="normal" x="316.5924791976563" y="205.67277508799998" text-anchor="start" dominant-baseline="alphabetic" xml:space="preserve">Delete documents</text></g><g><path fill="none" stroke="black" paint-order="fill stroke markers" d=" M 296.48761359765626 211.704234768 L 458.8825963931719 211.704234768" stroke-miterlimit="10" stroke-width="1.2565541" stroke-dasharray=""/><g transform="translate(471.2973509011719,211.704234768) translate(-471.2973509011719,-211.704234768)"><path fill="black" stroke="none" paint-order="stroke fill markers" d=" M 458.7318099011719 205.421464268 L 471.2973509011719 211.704234768 L 458.7318099011719 217.987005268 Z"/></g></g><g><g><rect fill="white" stroke="none" x="363.8640184570606" y="275.034561408" width="40.05692758470703" height="19.602243960000003"/></g><text fill="black" stroke="none" font-family="sans-serif" font-size="11pt" font-style="normal" font-weight="normal" text-decoration="normal" x="366.1258158370606" y="288.60534568800006" text-anchor="start" dominant-baseline="alphabetic" xml:space="preserve">error</text></g><g><path fill="none" stroke="black" paint-order="fill stroke markers" d=" M 471.2973509011719 294.636805368 L 298.3724447476563 294.636805368" stroke-miterlimit="10" stroke-width="1.2565541" stroke-dasharray="6.03145968"/><g transform="translate(296.48761359765626,294.636805368) translate(-296.48761359765626,-294.636805368)"><path fill="none" stroke="black" paint-order="fill stroke markers" d=" M 309.4063007204754 288.8736692274245 L 297.9001980889327 294.636805368 L 309.4063007204754 300.3999415085755" stroke-miterlimit="10" stroke-width="1.2565541"/></g></g><g><g><rect fill="white" stroke="none" x="158.37264140647463" y="317.254779168" width="40.05692758470703" height="19.602243960000003"/></g><text fill="black" stroke="none" font-family="sans-serif" font-size="11pt" font-style="normal" font-weight="normal" text-decoration="normal" x="160.63443878647462" y="330.825563448" text-anchor="start" dominant-baseline="alphabetic" xml:space="preserve">error</text></g><g><path fill="none" stroke="black" paint-order="fill stroke markers" d=" M 281.4089643976563 336.85702312800004 L 77.27807715 336.85702312800004" stroke-miterlimit="10" stroke-width="1.2565541" stroke-dasharray="6.03145968"/><g transform="translate(75.393246,336.85702312800004) translate(-75.393246,-336.85702312800004)"><path fill="none" stroke="black" paint-order="fill stroke markers" d=" M 88.31193312281911 331.0938869874245 L 76.80583049127645 336.85702312800004 L 88.31193312281911 342.62015926857555" stroke-miterlimit="10" stroke-width="1.2565541"/></g></g><g><g><rect fill="white" stroke="none" x="504.21906832117185" y="382.09297072800007" width="138.77359476" height="19.602243960000003"/></g><text fill="black" stroke="none" font-family="sans-serif" font-size="11pt" font-style="normal" font-weight="normal" text-decoration="normal" x="506.48086570117187" y="395.66375500800007" text-anchor="start" dominant-baseline="alphabetic" xml:space="preserve">Database deletion</text></g><g><path fill="none" stroke="black" paint-order="fill stroke markers" d=" M 486.3760001011719 401.6952146880001 L 648.4209767931719 401.6952146880001" stroke-miterlimit="10" stroke-width="1.2565541" stroke-dasharray=""/><g transform="translate(660.8357313011719,401.6952146880001) translate(-660.8357313011719,-401.6952146880001)"><path fill="black" stroke="none" paint-order="stroke fill markers" d=" M 648.2701903011719 395.41244418800005 L 660.8357313011719 401.6952146880001 L 648.2701903011719 407.9779851880001 Z"/></g></g><g><g><rect fill="white" stroke="none" x="553.5774019088184" y="465.0255413280001" width="40.05692758470703" height="19.602243960000003"/></g><text fill="black" stroke="none" font-family="sans-serif" font-size="11pt" font-style="normal" font-weight="normal" text-decoration="normal" x="555.8391992888183" y="478.59632560800014" text-anchor="start" dominant-baseline="alphabetic" xml:space="preserve">error</text></g><g><path fill="none" stroke="black" paint-order="fill stroke markers" d=" M 660.8357313011719 484.6277852880001 L 488.2608312511719 484.6277852880001" stroke-miterlimit="10" stroke-width="1.2565541" stroke-dasharray="6.03145968"/><g transform="translate(486.3760001011719,484.6277852880001) translate(-486.3760001011719,-484.6277852880001)"><path fill="none" stroke="black" paint-order="fill stroke markers" d=" M 499.294687223991 478.8646491474246 L 487.78858459244833 484.6277852880001 L 499.294687223991 490.3909214285756" stroke-miterlimit="10" stroke-width="1.2565541"/></g></g><g><g><rect fill="white" stroke="none" x="363.8640184570606" y="507.2457590880001" width="40.05692758470703" height="19.602243960000003"/></g><text fill="black" stroke="none" font-family="sans-serif" font-size="11pt" font-style="normal" font-weight="normal" text-decoration="normal" x="366.1258158370606" y="520.8165433680001" text-anchor="start" dominant-baseline="alphabetic" xml:space="preserve">error</text></g><g><path fill="none" stroke="black" paint-order="fill stroke markers" d=" M 471.2973509011719 526.8480030480001 L 298.3724447476563 526.8480030480001" stroke-miterlimit="10" stroke-width="1.2565541" stroke-dasharray="6.03145968"/><g transform="translate(296.48761359765626,526.8480030480001) translate(-296.48761359765626,-526.8480030480001)"><path fill="none" stroke="black" paint-order="fill stroke markers" d=" M 309.4063007204754 521.0848669074247 L 297.9001980889327 526.8480030480001 L 309.4063007204754 532.6111391885755" stroke-miterlimit="10" stroke-width="1.2565541"/></g></g><g><g><rect fill="white" stroke="none" x="158.37264140647463" y="549.4659768480001" width="40.05692758470703" height="19.602243960000003"/></g><text fill="black" stroke="none" font-family="sans-serif" font-size="11pt" font-style="normal" font-weight="normal" text-decoration="normal" x="160.63443878647462" y="563.0367611280001" text-anchor="start" dominant-baseline="alphabetic" xml:space="preserve">error</text></g><g><path fill="none" stroke="black" paint-order="fill stroke markers" d=" M 281.4089643976563 569.0682208080001 L 77.27807715 569.0682208080001" stroke-miterlimit="10" stroke-width="1.2565541" stroke-dasharray="6.03145968"/><g transform="translate(75.393246,569.0682208080001) translate(-75.393246,-569.0682208080001)"><path fill="none" stroke="black" paint-order="fill stroke markers" d=" M 88.31193312281911 563.3050846674247 L 76.80583049127645 569.0682208080001 L 88.31193312281911 574.8313569485755" stroke-miterlimit="10" stroke-width="1.2565541"/></g></g><g><g><rect fill="white" stroke="none" x="546.7524011458789" y="632.398547448" width="53.70692911058594" height="19.602243960000003"/></g><text fill="black" stroke="none" font-family="sans-serif" font-size="11pt" font-style="normal" font-weight="normal" text-decoration="normal" x="549.0141985258789" y="645.969331728" text-anchor="start" dominant-baseline="alphabetic" xml:space="preserve">results</text></g><g><path fill="none" stroke="black" paint-order="fill stroke markers" d=" M 660.8357313011719 652.000791408 L 488.2608312511719 652.000791408" stroke-miterlimit="10" stroke-width="1.2565541" stroke-dasharray="6.03145968"/><g transform="translate(486.3760001011719,652.000791408) translate(-486.3760001011719,-652.000791408)"><path fill="none" stroke="black" paint-order="fill stroke markers" d=" M 499.294687223991 646.2376552674247 L 487.78858459244833 652.000791408 L 499.294687223991 657.7639275485755" stroke-miterlimit="10" stroke-width="1.2565541"/></g></g><g><g><rect fill="white" stroke="none" x="357.0390176941211" y="674.618765208" width="53.70692911058594" height="19.602243960000003"/></g><text fill="black" stroke="none" font-family="sans-serif" font-size="11pt" font-style="normal" font-weight="normal" text-decoration="normal" x="359.30081507412115" y="688.189549488" text-anchor="start" dominant-baseline="alphabetic" xml:space="preserve">results</text></g><g><path fill="none" stroke="black" paint-order="fill stroke markers" d=" M 471.2973509011719 694.221009168 L 298.3724447476563 694.221009168" stroke-miterlimit="10" stroke-width="1.2565541" stroke-dasharray="6.03145968"/><g transform="translate(296.48761359765626,694.221009168) translate(-296.48761359765626,-694.221009168)"><path fill="none" stroke="black" paint-order="fill stroke markers" d=" M 309.4063007204754 688.4578730274246 L 297.9001980889327 694.221009168 L 309.4063007204754 699.9841453085754" stroke-miterlimit="10" stroke-width="1.2565541"/></g></g><g><g><rect fill="white" stroke="none" x="97.00597652" y="739.4569567679999" width="162.79025735765626" height="19.602243960000003"/></g><text fill="black" stroke="none" font-family="sans-serif" font-size="11pt" font-style="normal" font-weight="normal" text-decoration="normal" x="99.26777390000001" y="753.0277410479999" text-anchor="start" dominant-baseline="alphabetic" xml:space="preserve">Render list view page</text></g><g><path fill="none" stroke="black" paint-order="fill stroke markers" d=" M 281.4089643976563 759.059200728 L 77.27807715 759.059200728" stroke-miterlimit="10" stroke-width="1.2565541" stroke-dasharray="6.03145968"/><g transform="translate(75.393246,759.059200728) translate(-75.393246,-759.059200728)"><path fill="none" stroke="black" paint-order="fill stroke markers" d=" M 88.31193312281911 753.2960645874246 L 76.80583049127645 759.059200728 L 88.31193312281911 764.8223368685753" stroke-miterlimit="10" stroke-width="1.2565541"/></g></g><g><g/><path fill="none" stroke="black" paint-order="fill stroke markers" d=" M 22.6179738 234.32220856799998 L 531.6119477011719 234.32220856799998 L 531.6119477011719 359.47499692800005 L 22.6179738 359.47499692800005 L 22.6179738 234.32220856799998 Z" stroke-miterlimit="10" stroke-width="2.154092742857143" stroke-dasharray=""/><path fill="white" stroke="black" paint-order="fill stroke markers" d=" M 22.6179738 234.32220856799998 L 22.6179738 252.416587608 L 70.32527143706055 252.416587608 L 79.37246095706055 243.36939808799997 L 79.37246095706055 234.32220856799998 L 22.6179738 234.32220856799998" stroke-miterlimit="10" stroke-width="2.154092742857143" stroke-dasharray=""/><text fill="black" stroke="none" font-family="sans-serif" font-size="8.8pt" font-style="normal" font-weight="bold" text-decoration="normal" x="37.696623" y="246.38512792799997" text-anchor="start" dominant-baseline="alphabetic" xml:space="preserve">alt</text><text fill="black" stroke="none" font-family="sans-serif" font-size="8.8pt" font-style="normal" font-weight="bold" text-decoration="normal" x="94.45111015706055" y="246.38512792799997" text-anchor="start" dominant-baseline="alphabetic" xml:space="preserve">[user role is not privileged]</text></g><g><g/><path fill="none" stroke="black" paint-order="fill stroke markers" d=" M 22.6179738 424.3131884880001 L 721.1503281011719 424.3131884880001 L 721.1503281011719 716.838982968 L 22.6179738 716.838982968 L 22.6179738 424.3131884880001 Z" stroke-miterlimit="10" stroke-width="2.154092742857143" stroke-dasharray=""/><path fill="white" stroke="black" paint-order="fill stroke markers" d=" M 22.6179738 424.3131884880001 L 22.6179738 442.4075675280001 L 74.87527258146973 442.4075675280001 L 83.92246210146973 433.3603780080001 L 83.92246210146973 424.3131884880001 L 22.6179738 424.3131884880001" stroke-miterlimit="10" stroke-width="2.154092742857143" stroke-dasharray=""/><text fill="black" stroke="none" font-family="sans-serif" font-size="8.8pt" font-style="normal" font-weight="bold" text-decoration="normal" x="37.696623" y="436.37610784800006" text-anchor="start" dominant-baseline="alphabetic" xml:space="preserve">par</text><text fill="black" stroke="none" font-family="sans-serif" font-size="8.8pt" font-style="normal" font-weight="bold" text-decoration="normal" x="99.00111130146973" y="436.37610784800006" text-anchor="start" dominant-baseline="alphabetic" xml:space="preserve">[database deletion constraints are not met]</text><g><path fill="none" stroke="black" paint-order="fill stroke markers" d=" M 22.6179738 591.686194608 L 721.1503281011719 591.686194608" stroke-miterlimit="10" stroke-width="2.154092742857143" stroke-dasharray="3.7696623000000002"/></g><g/><text fill="black" stroke="none" font-family="sans-serif" font-size="8.8pt" font-style="normal" font-weight="bold" text-decoration="normal" x="99.00111130146973" y="603.7491139680001" text-anchor="start" dominant-baseline="alphabetic" xml:space="preserve">[database deletion constraints are met]</text></g><g/></g><g/><g/><g/><g/><g/></g></svg>