<svg version="1.1" xmlns="http://www.w3.org/2000/svg" xmlns:xlink="http://www.w3.org/1999/xlink" width="797" height="811"><defs/><g><g/><g/><g/><g/><g/><g/><g/><g/><g/><g/><g/><g><rect fill="white" stroke="none" x="0" y="0" width="797" height="811"/></g><g><text fill="black" stroke="none" font-family="sans-serif" font-size="16.5pt" font-style="normal" font-weight="normal" text-decoration="normal" x="326.1465087470703" y="22.6179738" text-anchor="start" dominant-baseline="alphabetic" xml:space="preserve">Delete Model</text></g><g/><g><path fill="none" stroke="black" paint-order="fill stroke markers" d=" M 75.393246 119.724474648 L 75.393246 811.834472928" stroke-miterlimit="10" stroke-width="1.2565541" stroke-dasharray="11.598960923076923,5.0262164"/><path fill="none" stroke="black" paint-order="fill stroke markers" d=" M 288.9482889976563 119.724474648 L 288.9482889976563 811.834472928" stroke-miterlimit="10" stroke-width="1.2565541" stroke-dasharray="11.598960923076923,5.0262164"/><path fill="none" stroke="black" paint-order="fill stroke markers" d=" M 471.18666634589846 119.724474648 L 471.18666634589846 811.834472928" stroke-miterlimit="10" stroke-width="1.2565541" stroke-dasharray="11.598960923076923,5.0262164"/><path fill="none" stroke="black" paint-order="fill stroke markers" d=" M 660.7250467458985 119.724474648 L 660.7250467458985 811.834472928" stroke-miterlimit="10" stroke-width="1.2565541" stroke-dasharray="11.598960923076923,5.0262164"/><path fill="none" stroke="black" paint-order="fill stroke markers" d=" M 750.4536974717773 119.724474648 L 750.4536974717773 811.834472928" stroke-miterlimit="10" stroke-width="1.2565541" stroke-dasharray="11.598960923076923,5.0262164"/></g><g><g><path fill="white" stroke="black" paint-order="fill stroke markers" d=" M 83.98807604400001 55.941788532 A 8.594830044 8.594830044 0 1 1 83.98807174658535 55.93319370338846 M 75.393246 64.536618576 L 75.393246 82.93257059999999 M 64.53661857600001 71.171224224 L 86.249873424 71.171224224 M 75.393246 82.93257059999999 L 64.53661857600001 100.122230688 M 75.393246 82.93257059999999 L 86.249873424 100.122230688" stroke-miterlimit="10" stroke-width="2.5633703640000003" stroke-dasharray=""/></g><g><g/><text fill="black" stroke="none" font-family="sans-serif" font-size="11pt" font-style="normal" font-weight="normal" text-decoration="normal" x="58.66824561853028" y="115.200879888" text-anchor="start" dominant-baseline="alphabetic" xml:space="preserve">User</text></g><g><path fill="white" stroke="black" paint-order="fill stroke markers" d=" M 318.8794076596563 76.448751444 A 22.391794062000002 22.391794062000002 0 1 1 318.87939646376014 76.42635965366995 M 260.29885551765625 52.775272199999996 L 260.29885551765625 100.122230688 M 259.01717033565626 76.448751444 L 274.09581953565623 76.448751444" stroke-miterlimit="10" stroke-width="2.5633703640000003" stroke-dasharray=""/></g><g><g/><text fill="black" stroke="none" font-family="sans-serif" font-size="11pt" font-style="normal" font-weight="normal" text-decoration="normal" x="256.5649538841309" y="115.200879888" text-anchor="start" dominant-baseline="alphabetic" xml:space="preserve">Frontend</text></g><g><path fill="white" stroke="black" paint-order="fill stroke markers" d=" M 493.57846040789843 76.448751444 A 22.391794062000002 22.391794062000002 0 1 1 493.57844921200234 76.42635965366995 M 468.17093650589845 54.05695738199999 L 477.21812602589847 46.51763278199999 M 468.17093650589845 54.05695738199999 L 477.21812602589847 61.596281981999994" stroke-miterlimit="10" stroke-width="2.5633703640000003" stroke-dasharray=""/></g><g><g/><text fill="black" stroke="none" font-family="sans-serif" font-size="11pt" font-style="normal" font-weight="normal" text-decoration="normal" x="439.8199995520752" y="115.200879888" text-anchor="start" dominant-baseline="alphabetic" xml:space="preserve">Backend</text></g><g><path fill="white" stroke="black" paint-order="fill stroke markers" d=" M 638.7102189138984 90.170322216 L 638.7102189138984 58.505158896 L 682.7398745778985 58.505158896 L 682.7398745778985 90.170322216" stroke-miterlimit="10" stroke-width="2.5633703640000003" stroke-dasharray=""/><path fill="white" stroke="black" paint-order="fill stroke markers" d=" M 682.7398745778985 57.404417504399994 L 682.7387738456797 57.50393493047687 L 682.7354717590956 57.60344240489408 L 682.7299686483522 57.702929976987086 L 682.7222650637559 57.802387698081596 L 682.7123617756588 57.90180562248838 L 682.7002597743814 58.00117380849784 L 682.6859602701138 58.10048231937419 L 682.6694646927945 58.19972122434909 L 682.6507746919674 58.29888059961475 L 682.6298921366171 58.39795052931627 L 682.6068191149817 58.49692110654324 L 682.5815579343441 58.59578243432041 L 682.5541111208014 58.69452462659739 L 682.524481419012 58.79313780923724 L 682.4926717919215 58.89161212100387 L 682.4586854204659 58.989937714548155 L 682.4225257032543 59.08810475739269 L 682.384196256228 59.186103432915 L 682.3437009123 59.28392394132919 L 682.3010437209708 59.38155650066594 L 682.256228947924 59.478991347750664 L 682.2092610745997 59.576218739179865 L 682.1601447977459 59.67322895229542 L 682.1088850289494 59.77001228615685 L 682.0554868941445 59.86655906251143 L 681.9999557331 59.96285962676197 L 681.9422970988859 60.0589043489323 L 681.8825167573174 60.15468362463025 L 681.8206206863789 60.250187876008056 L 681.756615075626 60.345407552720175 L 681.6905063255664 60.440333132878266 L 681.62230104702 60.53495512400344 L 681.5520060604576 60.62926406397542 L 681.4796283953198 60.72325052197881 L 681.4051752893123 60.816905099446124 L 681.3286541876838 60.910218430997666 L 681.2500727424808 61.00318118537804 L 681.1694388117824 61.09578406638928 L 681.0867604589142 61.18801781382044 L 681.0020459516428 61.27987320437365 L 680.9153037613482 61.3713410525864 L 680.8265425621772 61.46241221175009 L 680.7357712301758 61.5530775748247 L 680.6429988424015 61.643328075349466 L 680.5482346760159 61.73315468834955 L 680.4514882073565 61.822548431238516 L 680.3527691109896 61.91150036471656 L 680.2520872587426 62.00000159366446 L 680.1494527187167 62.08804326803307 L 680.0448757542805 62.17561658372833 L 679.9383668230432 62.26271278349164 L 679.8299365758094 62.34932315777561 L 679.7195958555131 62.43543904561498 L 679.6073556961348 62.521051835492734 L 679.4932273215966 62.60615296620123 L 679.3772221446409 62.690733927698304 L 679.2593517656887 62.774786261958305 L 679.1396279716798 62.85830156381783 L 679.0180627348938 62.941271481816315 L 678.8946682117529 63.02368771903109 L 678.7694567416067 63.1055420339071 L 678.642440845498 63.186826241081086 L 678.5136332249104 63.26753221220006 L 678.3830467604987 63.34765187673417 L 678.2506945108005 63.42717722278372 L 678.1165897109304 63.50610029788039 L 677.9807457712568 63.58441320978242 L 677.8431762760603 63.66210812726389 L 677.7038949821758 63.739177280897806 L 677.5629158176167 63.81561296383302 L 677.420252880182 63.89140753256494 L 677.2759204360465 63.96655340769984 L 677.1299329183342 64.04104307471285 L 676.9823049256755 64.11486908469932 L 676.8330512207465 64.1880240551198 L 676.6821867287932 64.26050067053818 L 676.5297265361392 64.33229168335333 L 676.3756858886767 64.4033899145238 L 676.2200801903422 64.47378825428571 L 676.0629250015755 64.54347966286376 L 675.9042360377649 64.61245717117517 L 675.7440291676744 64.68071388152656 L 675.5823204118575 64.74824296830381 L 675.4191259410551 64.8150376786545 L 675.2544620745781 64.88109133316327 L 675.088345278676 64.9463973265197 L 674.92079216489 65.01094912817888 L 674.751819488392 65.07474028301444 L 674.5814441463086 65.13776441196404 L 674.4096831760321 65.20001521266732 L 674.2365537535164 65.2614864600961 L 674.0620731915595 65.32217200717683 L 673.8862589380723 65.3820657854054 L 673.7091285743334 65.44116180545389 L 673.5306998132316 65.49945415776952 L 673.3509904974946 65.55693701316567 L 673.170018597904 65.61360462340468 L 672.9878022114989 65.66945132177275 L 672.8043595597662 65.72447152364661 L 672.6197089868182 65.77865972705189 L 672.4338689575582 65.83201051321342 L 672.2468580558344 65.88451854709703 L 672.0586949825811 65.9361785779431 L 671.8693985539488 65.9869854397916 L 671.6789876994227 66.03693405199866 L 671.4874814599293 66.08601941974472 L 671.2948989859334 66.13423663453388 L 671.1012595355215 66.18158087468484 L 670.9065824724776 66.22804740581307 L 670.7108872643455 66.27363158130416 L 670.5141934804831 66.31832884277853 L 670.3165207901048 66.3621347205473 L 670.117888960315 66.40504483405921 L 669.9183178541311 66.44705489233864 L 669.7178274284975 66.48816069441477 L 669.5164377322894 66.52835812974169 L 669.314168904309 66.56764317860932 L 669.1110411712701 66.60601191254551 L 668.9070748457772 66.64346049470888 L 668.7022903242926 66.67998518027238 L 668.4967080850977 66.7155823167979 L 668.2903486862454 66.75024834460147 L 668.0832327635034 66.7839797971092 L 667.8753810282914 66.81677330120391 L 667.6668142656098 66.84862557756256 L 667.457553331961 66.87953344098403 L 667.2476191532639 66.90949380070775 L 667.0370327227618 66.9385036607227 L 666.8258150989217 66.96656012006707 L 666.6139874033304 66.9936603731183 L 666.4015708185808 67.01980170987368 L 666.1885865861543 67.04498151622128 L 665.9750560042967 67.0691972742015 L 665.7610004258883 67.09244656225869 L 665.5464412563084 67.11472705548341 L 665.3313999512955 67.13603652584493 L 665.1158980148005 67.15637284241396 L 664.8999569968377 67.1757339715758 L 664.6835984913288 67.19411797723365 L 664.4668441339442 67.21152302100226 L 664.2497155999389 67.22794736239179 L 664.0322346019855 67.24338935898176 L 663.8144228880025 67.25784746658539 L 663.5963022389797 67.27132023940396 L 663.3778944668002 67.28380633017143 L 663.1592214120594 67.29530449028911 L 662.9403049418804 67.3058135699506 L 662.721166947728 67.31533251825665 L 662.5018293432187 67.3238603833204 L 662.2823140619304 67.33139631236241 L 662.0626430552081 67.3379395517961 L 661.8428382899697 67.34348944730294 L 661.6229217465083 67.34804544389803 L 661.402915416295 67.3516070859855 L 661.1828412997796 67.3541740174041 L 660.9627214041903 67.35574598146285 L 660.7425777413332 67.35632282096664 L 660.5224323253913 67.35590447823199 L 660.3023071707224 67.35449099509283 L 660.0822242896589 67.35208251289632 L 659.8622056903052 67.34867927248864 L 659.6422733743382 67.344281614191 L 659.422449334806 67.33888997776559 L 659.2027555539294 67.33250490237154 L 658.9832140009033 67.32512702651107 L 658.7638466297003 67.31675708796561 L 658.5446753768746 67.30739592372207 L 658.3257221593689 67.29704446988903 L 658.1070088723222 67.28570376160329 L 657.8885573868813 67.27337493292619 L 657.6703895480126 67.26005921673035 L 657.4525271723181 67.24575794457628 L 657.2349920458539 67.23047254657928 L 657.0178059219513 67.21420455126642 L 656.8009905190418 67.19695558542367 L 656.5845675184848 67.17872737393323 L 656.3685585624003 67.15952173960108 L 656.1529852515038 67.13934060297463 L 655.9378691429465 67.11818598215072 L 655.7232317481604 67.09605999257383 L 655.5090945307057 67.07296484682446 L 655.2954789041261 67.04890285439795 L 655.082406229806 67.02387642147347 L 654.8698978148352 66.99788805067348 L 654.6579749098784 66.9709403408134 L 654.4466587070492 66.94303598664175 L 654.235970337792 66.91417777857069 L 654.0259308707681 66.884368602397 L 653.816561309749 66.85361143901343 L 653.6078825915165 66.82190936411071 L 653.3999155837686 66.7892655478699 L 653.1926810830325 66.75568325464543 L 652.9861998125858 66.72116584263863 L 652.7804924203834 66.68571676356193 L 652.5755794769932 66.6493395622937 L 652.3714814735387 66.61203787652377 L 652.1682188196501 66.57381543638961 L 651.9658118414234 66.5346760641034 L 651.7642807793878 66.49462367356972 L 651.5636457864816 66.4536622699943 L 651.3639269260369 66.4117959494833 L 651.1651441697733 66.36902889863394 L 650.9673173958007 66.32536539411564 L 650.7704663866317 66.28080980224246 L 650.5746108272033 66.23536657853647 L 650.3797703029079 66.18904026728217 L 650.1859642976359 66.14183550107207 L 649.9932121918262 66.09375700034346 L 649.8015332605286 66.04480957290635 L 649.6109466714768 65.99499811346269 L 649.4214714831705 65.9443276031169 L 649.2331266429711 65.89280310887783 L 649.0459309852054 65.84042978315193 L 648.8599032292831 65.78721286322815 L 648.6750619778248 65.73315767075412 L 648.4914257148018 65.67826961120406 L 648.3090128036873 65.62255417333817 L 648.1278414856204 65.56601692865381 L 647.9479298775817 65.50866353082833 L 647.7692959705824 65.45049971515373 L 647.5919576278642 65.3915312979631 L 647.4159325831135 65.331764176049 L 647.2412384386884 65.27120432607386 L 647.0678926638574 65.20985780397217 L 646.8959125930537 65.14773074434505 L 646.7253154241411 65.08482935984667 L 646.5561182166941 65.02115994056305 L 646.3883378902929 64.9567288533831 L 646.2219912228297 64.89154254136182 L 646.0570948488332 64.82560752307609 L 645.8936652578031 64.7589303919728 L 645.7317187925624 64.69151781570949 L 645.5712716476227 64.62337653548761 L 645.4123398675646 64.5545133653784 L 645.2549393454337 64.48493519164148 L 645.0990858211513 64.41464897203626 L 644.9447948799398 64.34366173512612 L 644.7920819507646 64.27198057957558 L 644.6409623047915 64.19961267344047 L 644.4914510538592 64.12656525345112 L 644.3435631489682 64.05284562428861 L 644.1973133787857 63.97846115785447 L 644.0527163681668 63.90341929253332 L 643.9097865766921 63.82772753244919 L 643.7685382972217 63.751393446714985 L 643.6289856544657 63.67442466867568 L 643.4911426035723 63.59682889514493 L 643.3550229287314 63.51861388563544 L 643.2206402417974 63.439787461582966 L 643.0880079809268 63.36035750556424 L 642.9571394092353 63.28033196050866 L 642.8280476134709 63.19971882890405 L 642.7007455027056 63.118526171996386 L 642.5752458070443 63.03676210898371 L 642.4515610763522 62.95443481620418 L 642.3297036789992 62.87155252631846 L 642.2096858006236 62.78812352748649 L 642.091519442913 62.70415616253861 L 641.9752164224047 62.619658828141354 L 641.8607883693041 62.534639973957745 L 641.748246726321 62.44910810180235 L 641.6376027475258 62.36307176479111 L 641.5288674972244 62.27653956648603 L 641.4220518488511 62.189520160034824 L 641.3171664838816 62.102022247305634 L 641.2142218907652 62.014054578016804 L 641.1132283638754 61.92562594886197 L 641.0141960024806 61.83674520263035 L 640.9171347097346 61.7474212273225 L 640.8220541916855 61.657662955261515 L 640.7289639563062 61.567479362199805 L 640.6378733125424 61.47687946642152 L 640.5487913693828 61.38587232784074 L 640.4617270349472 61.29446704709548 L 640.3766890155969 61.202672764637654 L 640.2936858150625 61.110498659819 L 640.2127257335951 61.017953949973204 L 640.1338168671356 60.92504788949412 L 640.0569671065044 60.83178976891037 L 639.982184136614 60.7381889139563 L 639.9094754356988 60.644254684639414 L 639.8388482745684 60.54999647430436 L 639.77030971588 60.455423708693615 L 639.7038666134324 60.36054584500494 L 639.6395256114804 60.26537237094564 L 639.5772931440706 60.16991280378381 L 639.517175434398 60.07417668939661 L 639.4591784941833 59.9781736013157 L 639.4033081230724 59.88191313976989 L 639.3495699080557 59.785404930725115 L 639.2979692229098 59.68865862492186 L 639.2485112276605 59.59168389691008 L 639.201200868066 59.494490444081755 L 639.1560428751227 59.3970879857012 L 639.1130417645925 59.299486261933055 L 639.0722018365503 59.20169503286838 L 639.0335271749552 59.103724077548584 L 638.9970216472409 59.00558319298756 L 638.9626889039299 58.907282193191975 L 638.9305323782679 58.80883090817989 L 638.9005552858805 58.710239182997775 L 638.8727606244522 58.611516876735976 L 638.8471511734258 58.51267386154286 L 638.8237294937252 58.41372002163757 L 638.8024979274987 58.31466525232164 L 638.7834585978853 58.215519458989455 L 638.7666134088022 58.11629255613773 L 638.7519640447541 58.01699446637406 L 638.7395119706653 57.917635119424666 L 638.7292584317328 57.818224451141454 L 638.7212044533019 57.7187724025084 L 638.7153508407639 57.6192889186475 L 638.711698179475 57.51978394782424 L 638.7102468346983 57.42026744045276 L 638.7109969515672 57.3207493481009 L 638.7139484550705 57.221239622494934 L 638.7191010500603 57.12174821452452 L 638.7264542212816 57.02228507324753 L 638.7360072334232 56.92286014489522 L 638.7477591311919 56.82348337187756 L 638.7617087394077 56.72416469178904 L 638.7778546631215 56.62491403641491 L 638.7961952877542 56.52574133073799 L 638.8167287792588 56.42665649194621 L 638.8394530843033 56.32766942844088 L 638.8643659304759 56.22879003884586 L 638.8914648265129 56.1300282110177 L 638.9207470625472 56.031393821056895 L 638.9522097103796 55.932896732320245 L 638.9858496237717 55.83454679443454 L 639.02166343876 55.73635384231161 L 639.0596475739931 55.63832769516483 L 639.0997982310887 55.54047815552725 L 639.1421113950149 55.442815008271275 L 639.1865828344905 55.34534801963025 L 639.2332081024086 55.24808693622182 L 639.2819825362812 55.15104148407327 L 639.3329012587056 55.054221367648935 L 639.385959177852 54.957636268879796 L 639.4411509879727 54.861295846195226 L 639.4984711699326 54.76520973355722 L 639.5579139917614 54.66938753949697 L 639.6194735092264 54.57383884615402 L 639.6831435664271 54.47857320831808 L 639.748917796411 54.38360015247356 L 639.8167896218098 54.288929175846896 L 639.8867522554974 54.19456974545685 L 639.9587987012688 54.10053129716784 L 640.0329217545398 54.00682323474632 L 640.1091140030662 53.913454928920444 L 640.1873678276872 53.820435716442994 L 640.2676754030854 53.7277748991577 L 640.35002869857 53.635481743069064 L 640.4344194788803 53.5435654774158 L 640.5208393050084 53.45203529374787 L 640.6092795350438 53.36090034500735 L 640.6997313250373 53.2701697446132 L 640.7921856298851 53.17985256554982 L 640.8866332042339 53.08995783945988 L 640.983064603405 53.00049455574105 L 641.0814701843385 52.911471660647166 L 641.1818401065588 52.82289805639355 L 641.2841643331569 52.73478260026681 L 641.3884326317957 52.64713410373914 L 641.4946345757321 52.55996133158715 L 641.6027595448602 52.4732730010154 L 641.7127967267733 52.387077780784715 L 641.8247351178447 52.30138429034529 L 641.9385635243289 52.21620109897476 L 642.0542705634797 52.13153672492127 L 642.1718446646898 52.047399634551674 L 642.2912740706472 51.963798241504904 L 642.4125468385107 51.88074090585058 L 642.5356508411045 51.79823593325307 L 642.660573768131 51.71629157414086 L 642.7873031274016 51.6349160228816 L 642.915826246086 51.55411741696258 L 643.0461302719795 51.47390383617708 L 643.1782021747879 51.394283301816316 L 643.3120287474311 51.315263775867386 L 643.4475966073634 51.23685316021703 L 643.5848921979117 51.159059295861475 L 643.7239017896313 51.081889962122325 L 643.864611481679 51.005352875868645 L 644.0070072032029 50.92945569074528 L 644.1510747147494 50.8542059964075 L 644.2967996096872 50.77961131776203 L 644.4441673156488 50.70567911421457 L 644.5931630959858 50.63241677892386 L 644.7437720512447 50.559831638062384 L 644.8959791206554 50.487930950083744 L 645.0497690836378 50.41672190499681 L 645.2051265613237 50.34621162364676 L 645.3620360180948 50.276407157002964 L 645.5204817631362 50.207315485453925 L 645.6804479520055 50.13894351810921 L 645.841918588217 50.071298092108584 L 646.0048775248418 50.00438597193828 L 646.169308466122 49.938213848754536 L 646.3351949691003 49.87278833971455 L 646.5025204452647 49.80811598731469 L 646.6712681622073 49.74420325873631 L 646.8414212452967 49.68105654519901 L 647.0129626793665 49.61868216132152 L 647.1858753104163 49.557086344490244 L 647.3601418473271 49.496275254235535 L 647.5357448635904 49.436254971615746 L 647.7126667990507 49.37703149860913 L 647.8908899616622 49.31861075751362 L 648.070396529257 49.260998590354646 L 648.251168551328 49.20420075830092 L 648.4331879508235 49.148222941088314 L 648.6164365259554 49.0930707364519 L 648.8008959520188 49.03874965956618 L 648.9865477832248 48.985265142493574 L 649.1733734545451 48.93262253364123 L 649.3613542835681 48.880827097226145 L 649.5504714723676 48.82988401274882 L 649.7407061093824 48.779798374475234 L 649.9320391713072 48.73057519092748 L 650.1244515249954 48.6822193843829 L 650.3179239293718 48.634735790381846 L 650.5124370373572 48.58812915724415 L 650.7079713978031 48.54240414559428 L 650.9045074574364 48.497565327895316 L 651.1020255628147 48.45361718799164 L 651.300505962292 48.41056412066064 L 651.499928807994 48.36841043117315 L 651.7002741578023 48.32716033486301 L 651.9015219773487 48.28681795670546 L 652.1036521420191 48.247387330904715 L 652.3066444389653 48.20887240049048 L 652.510478569127 48.17127701692371 L 652.7151341492608 48.13460493971143 L 652.9205907139795 48.0988598360308 L 653.1268277177977 48.06404528036239 L 653.3338245371868 48.030164754132784 L 653.5415604726375 47.997221645366345 L 653.7500147507293 47.96521924834651 L 653.959166526208 47.9341607632863 L 654.1689948840706 47.90404929600835 L 654.379478841656 47.87488785763429 L 654.5905973507438 47.846679364283666 L 654.8023292996592 47.819426636782296 L 655.0146535153835 47.793132400380216 L 655.2275487656723 47.76779928447917 L 655.4409937611779 47.74342982236962 L 655.6549671575785 47.72002645097748 L 655.869447557713 47.69759151062038 L 656.0844135137199 47.67612724477367 L 656.2998435291829 47.65563579984603 L 656.5157160612799 47.636119224964894 L 656.7320095229376 47.61757947177148 L 656.9487022849901 47.60001839422566 L 657.1657726783417 47.58343774842055 L 657.3831989961341 47.567839192406915 L 657.6009594959165 47.55322428602736 L 657.8190324018206 47.53959449076034 L 658.0373959067373 47.52695116957402 L 658.2560281744983 47.515295586789996 L 658.4749073420589 47.50462890795682 L 658.6940115216848 47.4949521997335 L 658.9133188031407 47.48626642978277 L 659.132807255881 47.47857246667442 L 659.3524549312434 47.47187107979833 L 659.5722398646435 47.4661629392876 L 659.792140077771 47.46144861595154 L 660.0121335807879 47.45772858121853 L 660.2321983745273 47.45500320708897 L 660.4523124526931 47.45327276609799 L 660.672453804061 47.45253743128824 L 660.8926004146791 47.4527972761926 L 661.1127302700701 47.45405227482679 L 661.3328213574316 47.45630230169199 L 661.5528516678386 47.4595471317874 L 661.7727991984431 47.4637864406327 L 661.9926419546755 47.46901980430055 L 662.2123579524434 47.475246699458935 L 662.4319252203301 47.48246650342354 L 662.6513218017916 47.49067849421997 L 662.8705257573529 47.499881850656 L 663.0895151668008 47.51007565240366 L 663.3082681313771 47.52125888009125 L 663.5267627759674 47.533430415405334 L 663.7449772512896 47.54658904120252 L 663.9628897360778 47.56073344163121 L 664.1804784392652 47.575862202263124 L 664.3977216021627 47.59197381023482 L 664.6145975006352 47.609066654398916 L 664.8310844472735 47.62713902548525 L 665.0471607935634 47.64618911627178 L 665.2628049320502 47.66621502176528 L 665.4779952984999 47.687214739391905 L 665.6927103740551 47.709186169197395 L 665.9069286873871 47.732127114057064 L 666.1206288168432 47.756035279895556 L 666.3337893925886 47.78090827591621 L 666.5463890987432 47.806743614840144 L 666.7584066755137 47.833538713155 L 666.969820921319 47.86129089137327 L 667.1806106949106 47.88999737430027 L 667.390754917487 47.91965529131163 L 667.600232574801 47.950261676640345 L 667.8090227192614 47.9818134696734 L 668.0171044720277 48.014307515257784 L 668.2244570250981 48.047740564016024 L 668.4310596433901 48.08210927267109 L 668.636891666814 48.11741020438076 L 668.841932512339 48.1536398290813 L 669.0461616760514 48.1907945238404 L 669.249558735205 48.228870573219574 L 669.4521033502634 48.2678641696456 L 669.653775266934 48.30777141379133 L 669.854554318193 48.34858831496561 L 670.0544204263026 48.39031079151233 L 670.2533536048187 48.43293467121861 L 670.4513339605891 48.476455691732 L 670.6483416957433 48.520869500986706 L 670.8443571096718 48.56617165763883 L 671.0393606009967 48.61235763151045 L 671.2333326695314 48.65942280404266 L 671.4262539182305 48.70736246875744 L 671.6181050551301 48.75617183172826 L 671.8088668952762 48.8058460120595 L 671.9985203626438 48.85638004237452 L 672.1870464920444 48.907768869312406 L 672.374426431022 48.96000735403328 L 672.5606414417388 49.01309027273221 L 672.745672902849 49.06701231716155 L 672.9295023113607 49.1217680951618 L 673.1121112844862 49.17735213120079 L 673.2934815614803 49.23375886692124 L 673.4735950054666 49.290982661696574 L 673.6524336052506 49.34901779319501 L 673.8299794771215 49.407858457951754 L 674.00621486664 49.467498771949366 L 674.181122150414 49.52793277120614 L 674.354683837861 49.58915441237252 L 674.5268825729568 49.65115757333541 L 674.6977011359713 49.71393605383038 L 674.8671224451906 49.777483576061684 L 675.0351295586252 49.841793785330076 L 675.2017056757034 49.9068602506682 L 675.3668341389524 49.97267646548376 L 675.5304984356636 50.03923584821011 L 675.6926821995437 50.10653174296445 L 675.8533692123514 50.17455742021338 L 676.0125434055193 50.24330607744587 L 676.1701888617608 50.31277083985348 L 676.3262898166618 50.38294476101786 L 676.4808306602565 50.45382082360537 L 676.6337959385896 50.525391940068815 L 676.7851703552607 50.59765095335619 L 676.9349387729542 50.67059063762638 L 677.0830862149533 50.744203698971745 L 677.229597866637 50.81848277614749 L 677.3744590769625 50.89342044130781 L 677.5176553599292 50.969009200748616 L 677.6591723960285 51.045241495656974 L 677.7989960336744 51.12210970286691 L 677.9371122906198 51.19960613562175 L 678.073507355354 51.277723044342814 L 678.2081675884843 51.35645261740432 L 678.3410795240995 51.435786981914575 L 678.472229871117 51.51571820450324 L 678.6016055146112 51.596238292114656 L 678.7291935171255 51.67733919280717 L 678.8549811199662 51.759012796558295 L 678.9789557444777 51.84125093607571 L 679.1011049933009 51.92404538761401 L 679.2214166516127 52.007387871797015 L 679.3398786883474 52.09127005444578 L 679.4564792574002 52.17568354741193 L 679.5712066988115 52.26061990941651 L 679.6840495399324 52.34607064689411 L 679.794996496573 52.432027214842186 L 679.9040364741302 52.51848101767557 L 680.011158568697 52.605423410086026 L 680.1163520681532 52.69284569790677 L 680.2196064532366 52.78073913898186 L 680.3209113985946 52.86909494404044 L 680.4202567738172 52.957904277575636 L 680.5176326444497 53.0471582587281 L 680.613029272986 53.136847962174095 L 680.7064371198429 53.22696441901801 L 680.7978468443135 53.31749861768927 L 680.8872493055015 53.408441504843445 L 680.9746355632354 53.49978398626761 L 681.0599968789621 53.59151692778973 L 681.1433247166212 53.68363115619211 L 681.2246107434985 53.77611746012866 L 681.303846831059 53.868966591046075 L 681.3810250557598 53.96216926410862 L 681.4561376998429 54.05571615912666 L 681.5291772521065 54.149597921488656 L 681.6001364086561 54.243805163096596 L 681.6690080736354 54.33832846330484 L 681.7357853599351 54.43315836986213 L 681.8004615898823 54.52828539985682 L 681.8630302959078 54.623700040665206 L 681.9234852211933 54.719392750902706 L 681.9818203202966 54.815353961378044 L 682.0380297597565 54.91157407605014 L 682.0921079186755 55.0080434729877 L 682.1440493892833 55.10475250533143 L 682.1938489774757 55.20169150225869 L 682.2415017033356 55.29885076995057 L 682.2870028016301 55.39622059256126 L 682.3303477222872 55.49379123318963 L 682.371532130851 55.591552934852956 L 682.4105519089152 55.68949592146251 L 682.4474031545341 55.78761039880126 L 682.482082182614 55.88588655550324 L 682.5145855252812 55.98431456403467 L 682.5449099322283 56.08288458167672 L 682.5730523710398 56.18158675150977 L 682.5990100274955 56.28041120339909 L 682.6227803058513 56.37934805498184 L 682.6443608290991 56.47838741265531 L 682.6637494392047 56.57751937256626 L 682.680944197323 56.67673402160132 L 682.6959433839928 56.77602143837825 L 682.7087454993078 56.87537169423813 L 682.7193492630672 56.974774854238156 L 682.7277536149033 57.074220978145156 L 682.7339577143881 57.173700121429626 L 682.7379609411167 57.27320233626013 L 682.7397628947698 57.3727176724981 M 682.7398745778985 89.0695808244 L 682.7387738456797 89.16909825047689 L 682.7354717590956 89.26860572489409 L 682.7299686483522 89.3680932969871 L 682.7222650637559 89.46755101808161 L 682.7123617756588 89.56696894248839 L 682.7002597743814 89.66633712849786 L 682.6859602701138 89.7656456393742 L 682.6694646927945 89.86488454434911 L 682.6507746919674 89.96404391961477 L 682.6298921366171 90.06311384931628 L 682.6068191149817 90.16208442654325 L 682.5815579343441 90.26094575432042 L 682.5541111208014 90.3596879465974 L 682.524481419012 90.45830112923726 L 682.4926717919215 90.55677544100388 L 682.4586854204659 90.65510103454817 L 682.4225257032543 90.7532680773927 L 682.384196256228 90.85126675291501 L 682.3437009123 90.9490872613292 L 682.3010437209708 91.04671982066594 L 682.256228947924 91.14415466775068 L 682.2092610745997 91.24138205917988 L 682.1601447977459 91.33839227229542 L 682.1088850289494 91.43517560615686 L 682.0554868941445 91.53172238251143 L 681.9999557331 91.62802294676199 L 681.9422970988859 91.72406766893232 L 681.8825167573174 91.81984694463027 L 681.8206206863789 91.91535119600807 L 681.756615075626 92.01057087272018 L 681.6905063255664 92.10549645287828 L 681.62230104702 92.20011844400345 L 681.5520060604576 92.29442738397543 L 681.4796283953198 92.38841384197882 L 681.4051752893123 92.48206841944614 L 681.3286541876838 92.57538175099768 L 681.2500727424808 92.66834450537806 L 681.1694388117824 92.76094738638929 L 681.0867604589142 92.85318113382046 L 681.0020459516428 92.94503652437366 L 680.9153037613482 93.0365043725864 L 680.8265425621772 93.1275755317501 L 680.7357712301758 93.2182408948247 L 680.6429988424015 93.30849139534948 L 680.5482346760159 93.39831800834956 L 680.4514882073565 93.48771175123852 L 680.3527691109896 93.57666368471656 L 680.2520872587426 93.66516491366447 L 680.1494527187167 93.75320658803308 L 680.0448757542805 93.84077990372833 L 679.9383668230432 93.92787610349166 L 679.8299365758094 94.01448647777562 L 679.7195958555131 94.10060236561499 L 679.6073556961348 94.18621515549275 L 679.4932273215966 94.27131628620124 L 679.3772221446409 94.35589724769832 L 679.2593517656887 94.43994958195832 L 679.1396279716798 94.52346488381785 L 679.0180627348938 94.60643480181633 L 678.8946682117529 94.68885103903109 L 678.7694567416067 94.77070535390712 L 678.642440845498 94.8519895610811 L 678.5136332249104 94.93269553220007 L 678.3830467604987 95.01281519673418 L 678.2506945108005 95.09234054278373 L 678.1165897109304 95.1712636178804 L 677.9807457712568 95.24957652978243 L 677.8431762760603 95.32727144726391 L 677.7038949821758 95.40434060089783 L 677.5629158176167 95.48077628383304 L 677.420252880182 95.55657085256495 L 677.2759204360465 95.63171672769985 L 677.1299329183342 95.70620639471286 L 676.9823049256755 95.78003240469934 L 676.8330512207465 95.8531873751198 L 676.6821867287932 95.92566399053818 L 676.5297265361392 95.99745500335334 L 676.3756858886767 96.06855323452382 L 676.2200801903422 96.13895157428573 L 676.0629250015755 96.20864298286378 L 675.9042360377649 96.27762049117517 L 675.7440291676744 96.34587720152658 L 675.5823204118575 96.41340628830382 L 675.4191259410551 96.48020099865451 L 675.2544620745781 96.54625465316329 L 675.088345278676 96.6115606465197 L 674.92079216489 96.67611244817888 L 674.751819488392 96.73990360301444 L 674.5814441463086 96.80292773196405 L 674.4096831760321 96.86517853266734 L 674.2365537535164 96.92664978009611 L 674.0620731915595 96.98733532717685 L 673.8862589380723 97.0472291054054 L 673.7091285743334 97.10632512545389 L 673.5306998132316 97.16461747776954 L 673.3509904974946 97.22210033316568 L 673.170018597904 97.27876794340469 L 672.9878022114989 97.33461464177277 L 672.8043595597662 97.38963484364662 L 672.6197089868182 97.4438230470519 L 672.4338689575582 97.49717383321342 L 672.2468580558344 97.54968186709704 L 672.0586949825811 97.60134189794312 L 671.8693985539488 97.6521487597916 L 671.6789876994227 97.70209737199868 L 671.4874814599293 97.75118273974472 L 671.2948989859334 97.79939995453388 L 671.1012595355215 97.84674419468486 L 670.9065824724776 97.89321072581308 L 670.7108872643455 97.93879490130416 L 670.5141934804831 97.98349216277855 L 670.3165207901048 98.02729804054732 L 670.117888960315 98.07020815405922 L 669.9183178541311 98.11221821233865 L 669.7178274284975 98.15332401441479 L 669.5164377322894 98.1935214497417 L 669.314168904309 98.23280649860932 L 669.1110411712701 98.27117523254553 L 668.9070748457772 98.30862381470888 L 668.7022903242926 98.34514850027239 L 668.4967080850977 98.38074563679791 L 668.2903486862454 98.41541166460149 L 668.0832327635034 98.4491431171092 L 667.8753810282914 98.48193662120391 L 667.6668142656098 98.51378889756256 L 667.457553331961 98.54469676098404 L 667.2476191532639 98.57465712070776 L 667.0370327227618 98.60366698072272 L 666.8258150989217 98.63172344006709 L 666.6139874033304 98.65882369311832 L 666.4015708185808 98.6849650298737 L 666.1885865861543 98.7101448362213 L 665.9750560042967 98.73436059420152 L 665.7610004258883 98.75760988225869 L 665.5464412563084 98.77989037548343 L 665.3313999512955 98.80119984584495 L 665.1158980148005 98.82153616241398 L 664.8999569968377 98.8408972915758 L 664.6835984913288 98.85928129723365 L 664.4668441339442 98.87668634100228 L 664.2497155999389 98.89311068239181 L 664.0322346019855 98.90855267898178 L 663.8144228880025 98.92301078658541 L 663.5963022389797 98.93648355940398 L 663.3778944668002 98.94896965017145 L 663.1592214120594 98.96046781028913 L 662.9403049418804 98.9709768899506 L 662.721166947728 98.98049583825666 L 662.5018293432187 98.9890237033204 L 662.2823140619304 98.99655963236242 L 662.0626430552081 99.0031028717961 L 661.8428382899697 99.00865276730295 L 661.6229217465083 99.01320876389804 L 661.402915416295 99.01677040598551 L 661.1828412997796 99.01933733740412 L 660.9627214041903 99.02090930146286 L 660.7425777413332 99.02148614096664 L 660.5224323253913 99.021067798232 L 660.3023071707224 99.01965431509285 L 660.0822242896589 99.01724583289632 L 659.8622056903052 99.01384259248866 L 659.6422733743382 99.00944493419102 L 659.422449334806 99.00405329776561 L 659.2027555539294 98.99766822237156 L 658.9832140009033 98.99029034651109 L 658.7638466297003 98.98192040796563 L 658.5446753768746 98.97255924372207 L 658.3257221593689 98.96220778988905 L 658.1070088723222 98.95086708160329 L 657.8885573868813 98.93853825292621 L 657.6703895480126 98.92522253673036 L 657.4525271723181 98.91092126457629 L 657.2349920458539 98.8956358665793 L 657.0178059219513 98.87936787126644 L 656.8009905190418 98.86211890542369 L 656.5845675184848 98.84389069393325 L 656.3685585624003 98.8246850596011 L 656.1529852515038 98.80450392297463 L 655.9378691429465 98.78334930215074 L 655.7232317481604 98.76122331257385 L 655.5090945307057 98.73812816682448 L 655.2954789041261 98.71406617439796 L 655.082406229806 98.6890397414735 L 654.8698978148352 98.6630513706735 L 654.6579749098784 98.6361036608134 L 654.4466587070492 98.60819930664177 L 654.235970337792 98.57934109857071 L 654.0259308707681 98.54953192239701 L 653.816561309749 98.51877475901345 L 653.6078825915165 98.48707268411073 L 653.3999155837686 98.45442886786992 L 653.1926810830325 98.42084657464544 L 652.9861998125858 98.38632916263863 L 652.7804924203834 98.35088008356193 L 652.5755794769932 98.31450288229371 L 652.3714814735387 98.27720119652378 L 652.1682188196501 98.23897875638961 L 651.9658118414234 98.1998393841034 L 651.7642807793878 98.15978699356974 L 651.5636457864816 98.1188255899943 L 651.3639269260369 98.07695926948332 L 651.1651441697733 98.03419221863396 L 650.9673173958007 97.99052871411565 L 650.7704663866317 97.94597312224248 L 650.5746108272033 97.90052989853648 L 650.3797703029079 97.85420358728217 L 650.1859642976359 97.80699882107207 L 649.9932121918262 97.75892032034346 L 649.8015332605286 97.70997289290635 L 649.6109466714768 97.66016143346269 L 649.4214714831705 97.60949092311692 L 649.2331266429711 97.55796642887785 L 649.0459309852054 97.50559310315195 L 648.8599032292831 97.45237618322817 L 648.6750619778248 97.39832099075414 L 648.4914257148018 97.34343293120408 L 648.3090128036873 97.28771749333818 L 648.1278414856204 97.23118024865381 L 647.9479298775817 97.17382685082835 L 647.7692959705824 97.11566303515374 L 647.5919576278642 97.0566946179631 L 647.4159325831135 96.99692749604901 L 647.2412384386884 96.93636764607388 L 647.0678926638574 96.87502112397219 L 646.8959125930537 96.81289406434506 L 646.7253154241411 96.74999267984667 L 646.5561182166941 96.68632326056307 L 646.3883378902929 96.62189217338312 L 646.2219912228297 96.55670586136183 L 646.0570948488332 96.4907708430761 L 645.8936652578031 96.4240937119728 L 645.7317187925624 96.3566811357095 L 645.5712716476227 96.28853985548761 L 645.4123398675646 96.21967668537842 L 645.2549393454337 96.1500985116415 L 645.0990858211513 96.07981229203628 L 644.9447948799398 96.00882505512612 L 644.7920819507646 95.93714389957559 L 644.6409623047915 95.86477599344049 L 644.4914510538592 95.79172857345112 L 644.3435631489682 95.71800894428863 L 644.1973133787857 95.64362447785447 L 644.0527163681668 95.56858261253333 L 643.9097865766921 95.4928908524492 L 643.7685382972217 95.41655676671499 L 643.6289856544657 95.33958798867569 L 643.4911426035723 95.26199221514494 L 643.3550229287314 95.18377720563545 L 643.2206402417974 95.10495078158299 L 643.0880079809268 95.02552082556426 L 642.9571394092353 94.94549528050867 L 642.8280476134709 94.86488214890406 L 642.7007455027056 94.7836894919964 L 642.5752458070443 94.70192542898371 L 642.4515610763522 94.61959813620419 L 642.3297036789992 94.53671584631847 L 642.2096858006236 94.4532868474865 L 642.091519442913 94.36931948253863 L 641.9752164224047 94.28482214814137 L 641.8607883693041 94.19980329395776 L 641.748246726321 94.11427142180236 L 641.6376027475258 94.02823508479112 L 641.5288674972244 93.94170288648604 L 641.4220518488511 93.85468348003484 L 641.3171664838816 93.76718556730565 L 641.2142218907652 93.67921789801682 L 641.1132283638754 93.59078926886198 L 641.0141960024806 93.50190852263036 L 640.9171347097346 93.41258454732251 L 640.8220541916855 93.32282627526152 L 640.7289639563062 93.23264268219981 L 640.6378733125424 93.14204278642153 L 640.5487913693828 93.05103564784075 L 640.4617270349472 92.9596303670955 L 640.3766890155969 92.86783608463767 L 640.2936858150625 92.77566197981902 L 640.2127257335951 92.68311726997321 L 640.1338168671356 92.59021120949413 L 640.0569671065044 92.49695308891037 L 639.982184136614 92.40335223395631 L 639.9094754356988 92.30941800463943 L 639.8388482745684 92.21515979430437 L 639.77030971588 92.12058702869363 L 639.7038666134324 92.02570916500495 L 639.6395256114804 91.93053569094566 L 639.5772931440706 91.83507612378382 L 639.517175434398 91.73934000939661 L 639.4591784941833 91.64333692131571 L 639.4033081230724 91.5470764597699 L 639.3495699080557 91.45056825072513 L 639.2979692229098 91.35382194492188 L 639.2485112276605 91.25684721691009 L 639.201200868066 91.15965376408177 L 639.1560428751227 91.06225130570121 L 639.1130417645925 90.96464958193306 L 639.0722018365503 90.86685835286839 L 639.0335271749552 90.7688873975486 L 638.9970216472409 90.67074651298756 L 638.9626889039299 90.57244551319198 L 638.9305323782679 90.4739942281799 L 638.9005552858805 90.37540250299779 L 638.8727606244522 90.276680196736 L 638.8471511734258 90.17783718154287 L 638.8237294937252 90.07888334163758 L 638.8024979274987 89.97982857232165 L 638.7834585978853 89.88068277898947 L 638.7666134088022 89.78145587613774 L 638.7519640447541 89.68215778637406 L 638.7395119706653 89.58279843942468 L 638.7292584317328 89.48338777114147 L 638.7212044533019 89.38393572250841 L 638.7153508407639 89.28445223864752 L 638.711698179475 89.18494726782424 L 638.7102468346983 89.08543076045278" stroke-miterlimit="10" stroke-width="2.5633703640000003" stroke-dasharray=""/></g><g><g/><text fill="black" stroke="none" font-family="sans-serif" font-size="11pt" font-style="normal" font-weight="normal" text-decoration="normal" x="625.7250467458985" y="115.200879888" text-anchor="start" dominant-baseline="alphabetic" xml:space="preserve">Database</text></g><g><path fill="white" stroke="black" paint-order="fill stroke markers" d=" M 772.8454915337774 74.3980551528 A 22.391794062000002 22.391794062000002 0 1 1 772.8454803378812 74.37566336246995 M 726.7802182277773 98.840545506 L 774.1271767157774 98.840545506" stroke-miterlimit="10" stroke-width="2.5633703640000003" stroke-dasharray=""/></g><g><g/><text fill="black" stroke="none" font-family="sans-serif" font-size="11pt" font-style="normal" font-weight="normal" text-decoration="normal" x="710.8036959458984" y="115.200879888" text-anchor="start" dominant-baseline="alphabetic" xml:space="preserve">FileSystem</text></g></g><g><path fill="white" stroke="black" paint-order="fill stroke markers" d=" M 67.8539214 127.263799248 L 82.9325706 127.263799248 L 82.9325706 169.484017008 L 67.8539214 169.484017008 L 67.8539214 127.263799248" stroke-miterlimit="10" stroke-width="1.2565541" stroke-dasharray=""/><path fill="white" stroke="black" paint-order="fill stroke markers" d=" M 281.4089643976563 169.484017008 L 296.48761359765626 169.484017008 L 296.48761359765626 759.059200728 L 281.4089643976563 759.059200728 L 281.4089643976563 169.484017008" stroke-miterlimit="10" stroke-width="1.2565541" stroke-dasharray=""/><path fill="white" stroke="black" paint-order="fill stroke markers" d=" M 463.6473417458985 211.704234768 L 478.72599094589845 211.704234768 L 478.72599094589845 694.221009168 L 463.6473417458985 694.221009168 L 463.6473417458985 211.704234768" stroke-miterlimit="10" stroke-width="1.2565541" stroke-dasharray=""/><path fill="white" stroke="black" paint-order="fill stroke markers" d=" M 653.1857221458985 401.6952146880001 L 668.2643713458984 401.6952146880001 L 668.2643713458984 652.000791408 L 653.1857221458985 652.000791408 L 653.1857221458985 401.6952146880001" stroke-miterlimit="10" stroke-width="1.2565541" stroke-dasharray=""/><g><g><rect fill="white" stroke="none" x="106.60063576824219" y="149.88177304799999" width="151.14026346117188" height="19.602243960000003"/></g><text fill="black" stroke="none" font-family="sans-serif" font-size="11pt" font-style="normal" font-weight="normal" text-decoration="normal" x="108.86243314824219" y="163.45255732799998" text-anchor="start" dominant-baseline="alphabetic" xml:space="preserve">Clicks delete button</text></g><g><path fill="none" stroke="black" paint-order="fill stroke markers" d=" M 82.9325706 169.484017008 L 268.9942098896563 169.484017008" stroke-miterlimit="10" stroke-width="1.2565541" stroke-dasharray=""/><g transform="translate(281.4089643976563,169.484017008) translate(-281.4089643976563,-169.484017008)"><path fill="black" stroke="none" paint-order="stroke fill markers" d=" M 268.8434233976563 163.201246508 L 281.4089643976563 169.484017008 L 268.8434233976563 175.766787508 Z"/></g></g><g><g><rect fill="white" stroke="none" x="314.3306818176563" y="192.10199080799998" width="131.4735917082422" height="19.602243960000003"/></g><text fill="black" stroke="none" font-family="sans-serif" font-size="11pt" font-style="normal" font-weight="normal" text-decoration="normal" x="316.5924791976563" y="205.67277508799998" text-anchor="start" dominant-baseline="alphabetic" xml:space="preserve">Delete document</text></g><g><path fill="none" stroke="black" paint-order="fill stroke markers" d=" M 296.48761359765626 211.704234768 L 451.2325872378985 211.704234768" stroke-miterlimit="10" stroke-width="1.2565541" stroke-dasharray=""/><g transform="translate(463.6473417458985,211.704234768) translate(-463.6473417458985,-211.704234768)"><path fill="black" stroke="none" paint-order="stroke fill markers" d=" M 451.0818007458985 205.421464268 L 463.6473417458985 211.704234768 L 451.0818007458985 217.987005268 Z"/></g></g><g><g><rect fill="white" stroke="none" x="360.03901387942386" y="275.034561408" width="40.05692758470703" height="19.602243960000003"/></g><text fill="black" stroke="none" font-family="sans-serif" font-size="11pt" font-style="normal" font-weight="normal" text-decoration="normal" x="362.3008112594239" y="288.60534568800006" text-anchor="start" dominant-baseline="alphabetic" xml:space="preserve">error</text></g><g><path fill="none" stroke="black" paint-order="fill stroke markers" d=" M 463.6473417458985 294.636805368 L 298.3724447476563 294.636805368" stroke-miterlimit="10" stroke-width="1.2565541" stroke-dasharray="6.03145968"/><g transform="translate(296.48761359765626,294.636805368) translate(-296.48761359765626,-294.636805368)"><path fill="none" stroke="black" paint-order="fill stroke markers" d=" M 309.4063007204754 288.8736692274245 L 297.9001980889327 294.636805368 L 309.4063007204754 300.3999415085755" stroke-miterlimit="10" stroke-width="1.2565541"/></g></g><g><g><rect fill="white" stroke="none" x="158.37264140647463" y="317.254779168" width="40.05692758470703" height="19.602243960000003"/></g><text fill="black" stroke="none" font-family="sans-serif" font-size="11pt" font-style="normal" font-weight="normal" text-decoration="normal" x="160.63443878647462" y="330.825563448" text-anchor="start" dominant-baseline="alphabetic" xml:space="preserve">error</text></g><g><path fill="none" stroke="black" paint-order="fill stroke markers" d=" M 281.4089643976563 336.85702312800004 L 77.27807715 336.85702312800004" stroke-miterlimit="10" stroke-width="1.2565541" stroke-dasharray="6.03145968"/><g transform="translate(75.393246,336.85702312800004) translate(-75.393246,-336.85702312800004)"><path fill="none" stroke="black" paint-order="fill stroke markers" d=" M 88.31193312281911 331.0938869874245 L 76.80583049127645 336.85702312800004 L 88.31193312281911 342.62015926857555" stroke-miterlimit="10" stroke-width="1.2565541"/></g></g><g><g><rect fill="white" stroke="none" x="496.5690591658984" y="382.09297072800007" width="138.77359476" height="19.602243960000003"/></g><text fill="black" stroke="none" font-family="sans-serif" font-size="11pt" font-style="normal" font-weight="normal" text-decoration="normal" x="498.8308565458984" y="395.66375500800007" text-anchor="start" dominant-baseline="alphabetic" xml:space="preserve">Database deletion</text></g><g><path fill="none" stroke="black" paint-order="fill stroke markers" d=" M 478.72599094589845 401.6952146880001 L 640.7709676378985 401.6952146880001" stroke-miterlimit="10" stroke-width="1.2565541" stroke-dasharray=""/><g transform="translate(653.1857221458985,401.6952146880001) translate(-653.1857221458985,-401.6952146880001)"><path fill="black" stroke="none" paint-order="stroke fill markers" d=" M 640.6201811458984 395.41244418800005 L 653.1857221458985 401.6952146880001 L 640.6201811458984 407.9779851880001 Z"/></g></g><g><g><rect fill="white" stroke="none" x="545.927392753545" y="465.0255413280001" width="40.05692758470703" height="19.602243960000003"/></g><text fill="black" stroke="none" font-family="sans-serif" font-size="11pt" font-style="normal" font-weight="normal" text-decoration="normal" x="548.1891901335449" y="478.59632560800014" text-anchor="start" dominant-baseline="alphabetic" xml:space="preserve">error</text></g><g><path fill="none" stroke="black" paint-order="fill stroke markers" d=" M 653.1857221458985 484.6277852880001 L 480.61082209589847 484.6277852880001" stroke-miterlimit="10" stroke-width="1.2565541" stroke-dasharray="6.03145968"/><g transform="translate(478.72599094589845,484.6277852880001) translate(-478.72599094589845,-484.6277852880001)"><path fill="none" stroke="black" paint-order="fill stroke markers" d=" M 491.64467806871755 478.8646491474246 L 480.1385754371749 484.6277852880001 L 491.64467806871755 490.3909214285756" stroke-miterlimit="10" stroke-width="1.2565541"/></g></g><g><g><rect fill="white" stroke="none" x="360.03901387942386" y="507.2457590880001" width="40.05692758470703" height="19.602243960000003"/></g><text fill="black" stroke="none" font-family="sans-serif" font-size="11pt" font-style="normal" font-weight="normal" text-decoration="normal" x="362.3008112594239" y="520.8165433680001" text-anchor="start" dominant-baseline="alphabetic" xml:space="preserve">error</text></g><g><path fill="none" stroke="black" paint-order="fill stroke markers" d=" M 463.6473417458985 526.8480030480001 L 298.3724447476563 526.8480030480001" stroke-miterlimit="10" stroke-width="1.2565541" stroke-dasharray="6.03145968"/><g transform="translate(296.48761359765626,526.8480030480001) translate(-296.48761359765626,-526.8480030480001)"><path fill="none" stroke="black" paint-order="fill stroke markers" d=" M 309.4063007204754 521.0848669074247 L 297.9001980889327 526.8480030480001 L 309.4063007204754 532.6111391885755" stroke-miterlimit="10" stroke-width="1.2565541"/></g></g><g><g><rect fill="white" stroke="none" x="158.37264140647463" y="549.4659768480001" width="40.05692758470703" height="19.602243960000003"/></g><text fill="black" stroke="none" font-family="sans-serif" font-size="11pt" font-style="normal" font-weight="normal" text-decoration="normal" x="160.63443878647462" y="563.0367611280001" text-anchor="start" dominant-baseline="alphabetic" xml:space="preserve">error</text></g><g><path fill="none" stroke="black" paint-order="fill stroke markers" d=" M 281.4089643976563 569.0682208080001 L 77.27807715 569.0682208080001" stroke-miterlimit="10" stroke-width="1.2565541" stroke-dasharray="6.03145968"/><g transform="translate(75.393246,569.0682208080001) translate(-75.393246,-569.0682208080001)"><path fill="none" stroke="black" paint-order="fill stroke markers" d=" M 88.31193312281911 563.3050846674247 L 76.80583049127645 569.0682208080001 L 88.31193312281911 574.8313569485755" stroke-miterlimit="10" stroke-width="1.2565541"/></g></g><g><g><rect fill="white" stroke="none" x="539.1023919906055" y="632.398547448" width="53.70692911058594" height="19.602243960000003"/></g><text fill="black" stroke="none" font-family="sans-serif" font-size="11pt" font-style="normal" font-weight="normal" text-decoration="normal" x="541.3641893706055" y="645.969331728" text-anchor="start" dominant-baseline="alphabetic" xml:space="preserve">results</text></g><g><path fill="none" stroke="black" paint-order="fill stroke markers" d=" M 653.1857221458985 652.000791408 L 480.61082209589847 652.000791408" stroke-miterlimit="10" stroke-width="1.2565541" stroke-dasharray="6.03145968"/><g transform="translate(478.72599094589845,652.000791408) translate(-478.72599094589845,-652.000791408)"><path fill="none" stroke="black" paint-order="fill stroke markers" d=" M 491.64467806871755 646.2376552674247 L 480.1385754371749 652.000791408 L 491.64467806871755 657.7639275485755" stroke-miterlimit="10" stroke-width="1.2565541"/></g></g><g><g><rect fill="white" stroke="none" x="353.2140131164844" y="674.618765208" width="53.70692911058594" height="19.602243960000003"/></g><text fill="black" stroke="none" font-family="sans-serif" font-size="11pt" font-style="normal" font-weight="normal" text-decoration="normal" x="355.4758104964844" y="688.189549488" text-anchor="start" dominant-baseline="alphabetic" xml:space="preserve">results</text></g><g><path fill="none" stroke="black" paint-order="fill stroke markers" d=" M 463.6473417458985 694.221009168 L 298.3724447476563 694.221009168" stroke-miterlimit="10" stroke-width="1.2565541" stroke-dasharray="6.03145968"/><g transform="translate(296.48761359765626,694.221009168) translate(-296.48761359765626,-694.221009168)"><path fill="none" stroke="black" paint-order="fill stroke markers" d=" M 309.4063007204754 688.4578730274246 L 297.9001980889327 694.221009168 L 309.4063007204754 699.9841453085754" stroke-miterlimit="10" stroke-width="1.2565541"/></g></g><g><g><rect fill="white" stroke="none" x="97.00597652" y="739.4569567679999" width="162.79025735765626" height="19.602243960000003"/></g><text fill="black" stroke="none" font-family="sans-serif" font-size="11pt" font-style="normal" font-weight="normal" text-decoration="normal" x="99.26777390000001" y="753.0277410479999" text-anchor="start" dominant-baseline="alphabetic" xml:space="preserve">Render list view page</text></g><g><path fill="none" stroke="black" paint-order="fill stroke markers" d=" M 281.4089643976563 759.059200728 L 77.27807715 759.059200728" stroke-miterlimit="10" stroke-width="1.2565541" stroke-dasharray="6.03145968"/><g transform="translate(75.393246,759.059200728) translate(-75.393246,-759.059200728)"><path fill="none" stroke="black" paint-order="fill stroke markers" d=" M 88.31193312281911 753.2960645874246 L 76.80583049127645 759.059200728 L 88.31193312281911 764.8223368685753" stroke-miterlimit="10" stroke-width="1.2565541"/></g></g><g><g/><path fill="none" stroke="black" paint-order="fill stroke markers" d=" M 22.6179738 234.32220856799998 L 523.9619385458984 234.32220856799998 L 523.9619385458984 359.47499692800005 L 22.6179738 359.47499692800005 L 22.6179738 234.32220856799998 Z" stroke-miterlimit="10" stroke-width="2.154092742857143" stroke-dasharray=""/><path fill="white" stroke="black" paint-order="fill stroke markers" d=" M 22.6179738 234.32220856799998 L 22.6179738 252.416587608 L 70.32527143706055 252.416587608 L 79.37246095706055 243.36939808799997 L 79.37246095706055 234.32220856799998 L 22.6179738 234.32220856799998" stroke-miterlimit="10" stroke-width="2.154092742857143" stroke-dasharray=""/><text fill="black" stroke="none" font-family="sans-serif" font-size="8.8pt" font-style="normal" font-weight="bold" text-decoration="normal" x="37.696623" y="246.38512792799997" text-anchor="start" dominant-baseline="alphabetic" xml:space="preserve">alt</text><text fill="black" stroke="none" font-family="sans-serif" font-size="8.8pt" font-style="normal" font-weight="bold" text-decoration="normal" x="94.45111015706055" y="246.38512792799997" text-anchor="start" dominant-baseline="alphabetic" xml:space="preserve">[user role is not privileged]</text></g><g><g/><path fill="none" stroke="black" paint-order="fill stroke markers" d=" M 22.6179738 424.3131884880001 L 713.5003189458985 424.3131884880001 L 713.5003189458985 716.838982968 L 22.6179738 716.838982968 L 22.6179738 424.3131884880001 Z" stroke-miterlimit="10" stroke-width="2.154092742857143" stroke-dasharray=""/><path fill="white" stroke="black" paint-order="fill stroke markers" d=" M 22.6179738 424.3131884880001 L 22.6179738 442.4075675280001 L 70.32527143706055 442.4075675280001 L 79.37246095706055 433.3603780080001 L 79.37246095706055 424.3131884880001 L 22.6179738 424.3131884880001" stroke-miterlimit="10" stroke-width="2.154092742857143" stroke-dasharray=""/><text fill="black" stroke="none" font-family="sans-serif" font-size="8.8pt" font-style="normal" font-weight="bold" text-decoration="normal" x="37.696623" y="436.37610784800006" text-anchor="start" dominant-baseline="alphabetic" xml:space="preserve">alt</text><text fill="black" stroke="none" font-family="sans-serif" font-size="8.8pt" font-style="normal" font-weight="bold" text-decoration="normal" x="94.45111015706055" y="436.37610784800006" text-anchor="start" dominant-baseline="alphabetic" xml:space="preserve">[database deletion constraints are not met]</text><g><path fill="none" stroke="black" paint-order="fill stroke markers" d=" M 22.6179738 591.686194608 L 713.5003189458985 591.686194608" stroke-miterlimit="10" stroke-width="2.154092742857143" stroke-dasharray="3.7696623000000002"/></g><g/><text fill="black" stroke="none" font-family="sans-serif" font-size="8.8pt" font-style="normal" font-weight="bold" text-decoration="normal" x="94.45111015706055" y="603.7491139680001" text-anchor="start" dominant-baseline="alphabetic" xml:space="preserve">[database deletion constraints are met]</text></g><g/></g><g/><g/><g/><g/><g/></g></svg>