<svg version="1.1" xmlns="http://www.w3.org/2000/svg" xmlns:xlink="http://www.w3.org/1999/xlink" width="943" height="1632"><defs/><g><g/><g/><g/><g/><g/><g/><g/><g/><g/><g/><g/><g/><g/><g/><g/><g/><g/><g/><g/><g/><g/><g/><g/><g><rect fill="white" stroke="none" x="0" y="0" width="943" height="1632"/></g><g><text fill="black" stroke="none" font-family="sans-serif" font-size="16.5pt" font-style="normal" font-weight="normal" text-decoration="normal" x="395.6117634370605" y="22.6179738" text-anchor="start" dominant-baseline="alphabetic" xml:space="preserve">Update Model</text></g><g/><g><path fill="none" stroke="black" paint-order="fill stroke markers" d=" M 105.5505444 119.724474648 L 105.5505444 1632.112989408" stroke-miterlimit="10" stroke-width="1.2565541" stroke-dasharray="11.598960923076923,5.0262164"/><path fill="none" stroke="black" paint-order="fill stroke markers" d=" M 294.4722560988281 119.724474648 L 294.4722560988281 1632.112989408" stroke-miterlimit="10" stroke-width="1.2565541" stroke-dasharray="11.598960923076923,5.0262164"/><path fill="none" stroke="black" paint-order="fill stroke markers" d=" M 522.4106303953124 119.724474648 L 522.4106303953124 1632.112989408" stroke-miterlimit="10" stroke-width="1.2565541" stroke-dasharray="11.598960923076923,5.0262164"/><path fill="none" stroke="black" paint-order="fill stroke markers" d=" M 733.6156825482421 119.724474648 L 733.6156825482421 1632.112989408" stroke-miterlimit="10" stroke-width="1.2565541" stroke-dasharray="11.598960923076923,5.0262164"/><path fill="none" stroke="black" paint-order="fill stroke markers" d=" M 823.344333274121 119.724474648 L 823.344333274121 1632.112989408" stroke-miterlimit="10" stroke-width="1.2565541" stroke-dasharray="11.598960923076923,5.0262164"/></g><g><g><path fill="white" stroke="black" paint-order="fill stroke markers" d=" M 114.14537444400001 55.941788532 A 8.594830044 8.594830044 0 1 1 114.14537014658535 55.93319370338846 M 105.5505444 64.536618576 L 105.5505444 82.93257059999999 M 94.69391697600001 71.171224224 L 116.407171824 71.171224224 M 105.5505444 82.93257059999999 L 94.69391697600001 100.122230688 M 105.5505444 82.93257059999999 L 116.407171824 100.122230688" stroke-miterlimit="10" stroke-width="2.5633703640000003" stroke-dasharray=""/></g><g><g/><text fill="black" stroke="none" font-family="sans-serif" font-size="11pt" font-style="normal" font-weight="normal" text-decoration="normal" x="88.82554401853028" y="115.200879888" text-anchor="start" dominant-baseline="alphabetic" xml:space="preserve">User</text></g><g><path fill="white" stroke="black" paint-order="fill stroke markers" d=" M 324.4033747608281 76.448751444 A 22.391794062000002 22.391794062000002 0 1 1 324.40336356493196 76.42635965366995 M 265.82282261882807 52.775272199999996 L 265.82282261882807 100.122230688 M 264.5411374368281 76.448751444 L 279.61978663682805 76.448751444" stroke-miterlimit="10" stroke-width="2.5633703640000003" stroke-dasharray=""/></g><g><g/><text fill="black" stroke="none" font-family="sans-serif" font-size="11pt" font-style="normal" font-weight="normal" text-decoration="normal" x="262.0889209853027" y="115.200879888" text-anchor="start" dominant-baseline="alphabetic" xml:space="preserve">Frontend</text></g><g><path fill="white" stroke="black" paint-order="fill stroke markers" d=" M 544.8024244573124 76.448751444 A 22.391794062000002 22.391794062000002 0 1 1 544.8024132614163 76.42635965366995 M 519.3949005553125 54.05695738199999 L 528.4420900753124 46.51763278199999 M 519.3949005553125 54.05695738199999 L 528.4420900753124 61.596281981999994" stroke-miterlimit="10" stroke-width="2.5633703640000003" stroke-dasharray=""/></g><g><g/><text fill="black" stroke="none" font-family="sans-serif" font-size="11pt" font-style="normal" font-weight="normal" text-decoration="normal" x="491.04396360148917" y="115.200879888" text-anchor="start" dominant-baseline="alphabetic" xml:space="preserve">Backend</text></g><g><path fill="white" stroke="black" paint-order="fill stroke markers" d=" M 711.6008547162421 90.170322216 L 711.6008547162421 58.505158896 L 755.6305103802422 58.505158896 L 755.6305103802422 90.170322216" stroke-miterlimit="10" stroke-width="2.5633703640000003" stroke-dasharray=""/><path fill="white" stroke="black" paint-order="fill stroke markers" d=" M 755.6305103802422 57.404417504399994 L 755.6294096480234 57.50393493047687 L 755.6261075614393 57.60344240489408 L 755.6206044506959 57.702929976987086 L 755.6129008660996 57.802387698081596 L 755.6029975780025 57.90180562248838 L 755.5908955767251 58.00117380849784 L 755.5765960724575 58.10048231937419 L 755.5601004951382 58.19972122434909 L 755.5414104943111 58.29888059961475 L 755.5205279389608 58.39795052931627 L 755.4974549173254 58.49692110654324 L 755.4721937366878 58.59578243432041 L 755.4447469231451 58.69452462659739 L 755.4151172213557 58.79313780923724 L 755.3833075942651 58.89161212100387 L 755.3493212228096 58.989937714548155 L 755.313161505598 59.08810475739269 L 755.2748320585717 59.186103432915 L 755.2343367146437 59.28392394132919 L 755.1916795233145 59.38155650066594 L 755.1468647502677 59.478991347750664 L 755.0998968769434 59.576218739179865 L 755.0507806000896 59.67322895229542 L 754.9995208312931 59.77001228615685 L 754.9461226964881 59.86655906251143 L 754.8905915354437 59.96285962676197 L 754.8329329012296 60.0589043489323 L 754.7731525596611 60.15468362463025 L 754.7112564887226 60.250187876008056 L 754.6472508779697 60.345407552720175 L 754.5811421279101 60.440333132878266 L 754.5129368493637 60.53495512400344 L 754.4426418628013 60.62926406397542 L 754.3702641976635 60.72325052197881 L 754.295811091656 60.816905099446124 L 754.2192899900275 60.910218430997666 L 754.1407085448245 61.00318118537804 L 754.060074614126 61.09578406638928 L 753.9773962612579 61.18801781382044 L 753.8926817539865 61.27987320437365 L 753.8059395636919 61.3713410525864 L 753.7171783645209 61.46241221175009 L 753.6264070325195 61.5530775748247 L 753.5336346447452 61.643328075349466 L 753.4388704783596 61.73315468834955 L 753.3421240097002 61.822548431238516 L 753.2434049133333 61.91150036471656 L 753.1427230610863 62.00000159366446 L 753.0400885210604 62.08804326803307 L 752.9355115566242 62.17561658372833 L 752.8290026253869 62.26271278349164 L 752.7205723781531 62.34932315777561 L 752.6102316578568 62.43543904561498 L 752.4979914984785 62.521051835492734 L 752.3838631239403 62.60615296620123 L 752.2678579469846 62.690733927698304 L 752.1499875680324 62.774786261958305 L 752.0302637740235 62.85830156381783 L 751.9086985372375 62.941271481816315 L 751.7853040140966 63.02368771903109 L 751.6600925439504 63.1055420339071 L 751.5330766478417 63.186826241081086 L 751.4042690272541 63.26753221220006 L 751.2736825628424 63.34765187673417 L 751.1413303131442 63.42717722278372 L 751.0072255132741 63.50610029788039 L 750.8713815736005 63.58441320978242 L 750.733812078404 63.66210812726389 L 750.5945307845195 63.739177280897806 L 750.4535516199604 63.81561296383302 L 750.3108886825257 63.89140753256494 L 750.1665562383902 63.96655340769984 L 750.0205687206779 64.04104307471285 L 749.8729407280192 64.11486908469932 L 749.7236870230902 64.1880240551198 L 749.5728225311369 64.26050067053818 L 749.4203623384828 64.33229168335333 L 749.2663216910204 64.4033899145238 L 749.1107159926859 64.47378825428571 L 748.9535608039192 64.54347966286376 L 748.7948718401086 64.61245717117517 L 748.6346649700181 64.68071388152656 L 748.4729562142012 64.74824296830381 L 748.3097617433988 64.8150376786545 L 748.1450978769218 64.88109133316327 L 747.9789810810197 64.9463973265197 L 747.8114279672337 65.01094912817888 L 747.6424552907357 65.07474028301444 L 747.4720799486523 65.13776441196404 L 747.3003189783758 65.20001521266732 L 747.1271895558601 65.2614864600961 L 746.9527089939032 65.32217200717683 L 746.776894740416 65.3820657854054 L 746.5997643766771 65.44116180545389 L 746.4213356155753 65.49945415776952 L 746.2416262998383 65.55693701316567 L 746.0606544002477 65.61360462340468 L 745.8784380138426 65.66945132177275 L 745.6949953621099 65.72447152364661 L 745.5103447891619 65.77865972705189 L 745.3245047599019 65.83201051321342 L 745.1374938581781 65.88451854709703 L 744.9493307849248 65.9361785779431 L 744.7600343562925 65.9869854397916 L 744.5696235017664 66.03693405199866 L 744.378117262273 66.08601941974472 L 744.1855347882771 66.13423663453388 L 743.9918953378652 66.18158087468484 L 743.7972182748213 66.22804740581307 L 743.6015230666892 66.27363158130416 L 743.4048292828268 66.31832884277853 L 743.2071565924485 66.3621347205473 L 743.0085247626587 66.40504483405921 L 742.8089536564748 66.44705489233864 L 742.6084632308412 66.48816069441477 L 742.4070735346331 66.52835812974169 L 742.2048047066527 66.56764317860932 L 742.0016769736138 66.60601191254551 L 741.7977106481209 66.64346049470888 L 741.5929261266363 66.67998518027238 L 741.3873438874414 66.7155823167979 L 741.180984488589 66.75024834460147 L 740.973868565847 66.7839797971092 L 740.7660168306351 66.81677330120391 L 740.5574500679535 66.84862557756256 L 740.3481891343047 66.87953344098403 L 740.1382549556076 66.90949380070775 L 739.9276685251054 66.9385036607227 L 739.7164509012654 66.96656012006707 L 739.5046232056741 66.9936603731183 L 739.2922066209245 67.01980170987368 L 739.079222388498 67.04498151622128 L 738.8656918066404 67.0691972742015 L 738.651636228232 67.09244656225869 L 738.4370770586521 67.11472705548341 L 738.2220357536391 67.13603652584493 L 738.0065338171441 67.15637284241396 L 737.7905927991814 67.1757339715758 L 737.5742342936725 67.19411797723365 L 737.3574799362879 67.21152302100226 L 737.1403514022826 67.22794736239179 L 736.9228704043292 67.24338935898176 L 736.7050586903462 67.25784746658539 L 736.4869380413234 67.27132023940396 L 736.2685302691439 67.28380633017143 L 736.0498572144031 67.29530449028911 L 735.8309407442241 67.3058135699506 L 735.6118027500717 67.31533251825665 L 735.3924651455624 67.3238603833204 L 735.1729498642741 67.33139631236241 L 734.9532788575518 67.3379395517961 L 734.7334740923134 67.34348944730294 L 734.513557548852 67.34804544389803 L 734.2935512186386 67.3516070859855 L 734.0734771021233 67.3541740174041 L 733.853357206534 67.35574598146285 L 733.6332135436769 67.35632282096664 L 733.413068127735 67.35590447823199 L 733.1929429730661 67.35449099509283 L 732.9728600920026 67.35208251289632 L 732.7528414926489 67.34867927248864 L 732.5329091766819 67.344281614191 L 732.3130851371496 67.33888997776559 L 732.0933913562731 67.33250490237154 L 731.873849803247 67.32512702651107 L 731.654482432044 67.31675708796561 L 731.4353111792183 67.30739592372207 L 731.2163579617126 67.29704446988903 L 730.9976446746659 67.28570376160329 L 730.779193189225 67.27337493292619 L 730.5610253503563 67.26005921673035 L 730.3431629746618 67.24575794457628 L 730.1256278481976 67.23047254657928 L 729.908441724295 67.21420455126642 L 729.6916263213855 67.19695558542367 L 729.4752033208285 67.17872737393323 L 729.259194364744 67.15952173960108 L 729.0436210538475 67.13934060297463 L 728.8285049452902 67.11818598215072 L 728.6138675505041 67.09605999257383 L 728.3997303330494 67.07296484682446 L 728.1861147064698 67.04890285439795 L 727.9730420321497 67.02387642147347 L 727.7605336171789 66.99788805067348 L 727.5486107122221 66.9709403408134 L 727.3372945093929 66.94303598664175 L 727.1266061401357 66.91417777857069 L 726.9165666731118 66.884368602397 L 726.7071971120927 66.85361143901343 L 726.4985183938602 66.82190936411071 L 726.2905513861123 66.7892655478699 L 726.0833168853762 66.75568325464543 L 725.8768356149295 66.72116584263863 L 725.6711282227271 66.68571676356193 L 725.4662152793369 66.6493395622937 L 725.2621172758824 66.61203787652377 L 725.0588546219938 66.57381543638961 L 724.8564476437671 66.5346760641034 L 724.6549165817315 66.49462367356972 L 724.4542815888253 66.4536622699943 L 724.2545627283806 66.4117959494833 L 724.055779972117 66.36902889863394 L 723.8579531981444 66.32536539411564 L 723.6611021889754 66.28080980224246 L 723.465246629547 66.23536657853647 L 723.2704061052516 66.18904026728217 L 723.0766000999796 66.14183550107207 L 722.8838479941699 66.09375700034346 L 722.6921690628723 66.04480957290635 L 722.5015824738205 65.99499811346269 L 722.3121072855142 65.9443276031169 L 722.1237624453148 65.89280310887783 L 721.936566787549 65.84042978315193 L 721.7505390316268 65.78721286322815 L 721.5656977801685 65.73315767075412 L 721.3820615171455 65.67826961120406 L 721.199648606031 65.62255417333817 L 721.0184772879641 65.56601692865381 L 720.8385656799254 65.50866353082833 L 720.6599317729261 65.45049971515373 L 720.4825934302079 65.3915312979631 L 720.3065683854572 65.331764176049 L 720.131874241032 65.27120432607386 L 719.9585284662011 65.20985780397217 L 719.7865483953974 65.14773074434505 L 719.6159512264848 65.08482935984667 L 719.4467540190378 65.02115994056305 L 719.2789736926366 64.9567288533831 L 719.1126270251734 64.89154254136182 L 718.9477306511769 64.82560752307609 L 718.7843010601468 64.7589303919728 L 718.6223545949061 64.69151781570949 L 718.4619074499664 64.62337653548761 L 718.3029756699083 64.5545133653784 L 718.1455751477774 64.48493519164148 L 717.989721623495 64.41464897203626 L 717.8354306822835 64.34366173512612 L 717.6827177531082 64.27198057957558 L 717.5315981071352 64.19961267344047 L 717.3820868562029 64.12656525345112 L 717.2341989513119 64.05284562428861 L 717.0879491811294 63.97846115785447 L 716.9433521705105 63.90341929253332 L 716.8004223790358 63.82772753244919 L 716.6591740995653 63.751393446714985 L 716.5196214568094 63.67442466867568 L 716.381778405916 63.59682889514493 L 716.2456587310751 63.51861388563544 L 716.111276044141 63.439787461582966 L 715.9786437832705 63.36035750556424 L 715.847775211579 63.28033196050866 L 715.7186834158146 63.19971882890405 L 715.5913813050493 63.118526171996386 L 715.465881609388 63.03676210898371 L 715.3421968786959 62.95443481620418 L 715.2203394813429 62.87155252631846 L 715.1003216029673 62.78812352748649 L 714.9821552452566 62.70415616253861 L 714.8658522247484 62.619658828141354 L 714.7514241716478 62.534639973957745 L 714.6388825286647 62.44910810180235 L 714.5282385498695 62.36307176479111 L 714.4195032995681 62.27653956648603 L 714.3126876511948 62.189520160034824 L 714.2078022862253 62.102022247305634 L 714.1048576931089 62.014054578016804 L 714.003864166219 61.92562594886197 L 713.9048318048243 61.83674520263035 L 713.8077705120783 61.7474212273225 L 713.7126899940292 61.657662955261515 L 713.6195997586499 61.567479362199805 L 713.5285091148861 61.47687946642152 L 713.4394271717265 61.38587232784074 L 713.3523628372909 61.29446704709548 L 713.2673248179406 61.202672764637654 L 713.1843216174062 61.110498659819 L 713.1033615359388 61.017953949973204 L 713.0244526694793 60.92504788949412 L 712.9476029088481 60.83178976891037 L 712.8728199389577 60.7381889139563 L 712.8001112380425 60.644254684639414 L 712.7294840769121 60.54999647430436 L 712.6609455182237 60.455423708693615 L 712.5945024157761 60.36054584500494 L 712.5301614138241 60.26537237094564 L 712.4679289464143 60.16991280378381 L 712.4078112367417 60.07417668939661 L 712.349814296527 59.9781736013157 L 712.2939439254161 59.88191313976989 L 712.2402057103994 59.785404930725115 L 712.1886050252535 59.68865862492186 L 712.1391470300042 59.59168389691008 L 712.0918366704097 59.494490444081755 L 712.0466786774664 59.3970879857012 L 712.0036775669362 59.299486261933055 L 711.962837638894 59.20169503286838 L 711.9241629772989 59.103724077548584 L 711.8876574495846 59.00558319298756 L 711.8533247062736 58.907282193191975 L 711.8211681806116 58.80883090817989 L 711.7911910882242 58.710239182997775 L 711.7633964267959 58.611516876735976 L 711.7377869757695 58.51267386154286 L 711.7143652960689 58.41372002163757 L 711.6931337298424 58.31466525232164 L 711.674094400229 58.215519458989455 L 711.6572492111459 58.11629255613773 L 711.6425998470978 58.01699446637406 L 711.630147773009 57.917635119424666 L 711.6198942340765 57.818224451141454 L 711.6118402556456 57.7187724025084 L 711.6059866431076 57.6192889186475 L 711.6023339818187 57.51978394782424 L 711.600882637042 57.42026744045276 L 711.6016327539108 57.3207493481009 L 711.6045842574142 57.221239622494934 L 711.609736852404 57.12174821452452 L 711.6170900236253 57.02228507324753 L 711.6266430357668 56.92286014489522 L 711.6383949335356 56.82348337187756 L 711.6523445417514 56.72416469178904 L 711.6684904654652 56.62491403641491 L 711.6868310900979 56.52574133073799 L 711.7073645816025 56.42665649194621 L 711.730088886647 56.32766942844088 L 711.7550017328196 56.22879003884586 L 711.7821006288566 56.1300282110177 L 711.8113828648909 56.031393821056895 L 711.8428455127233 55.932896732320245 L 711.8764854261154 55.83454679443454 L 711.9122992411037 55.73635384231161 L 711.9502833763368 55.63832769516483 L 711.9904340334324 55.54047815552725 L 712.0327471973586 55.442815008271275 L 712.0772186368342 55.34534801963025 L 712.1238439047523 55.24808693622182 L 712.1726183386249 55.15104148407327 L 712.2235370610493 55.054221367648935 L 712.2765949801957 54.957636268879796 L 712.3317867903164 54.861295846195226 L 712.3891069722763 54.76520973355722 L 712.4485497941051 54.66938753949697 L 712.5101093115701 54.57383884615402 L 712.5737793687708 54.47857320831808 L 712.6395535987547 54.38360015247356 L 712.7074254241535 54.288929175846896 L 712.7773880578411 54.19456974545685 L 712.8494345036125 54.10053129716784 L 712.9235575568835 54.00682323474632 L 712.9997498054099 53.913454928920444 L 713.0780036300309 53.820435716442994 L 713.1583112054291 53.7277748991577 L 713.2406645009137 53.635481743069064 L 713.325055281224 53.5435654774158 L 713.4114751073521 53.45203529374787 L 713.4999153373875 53.36090034500735 L 713.590367127381 53.2701697446132 L 713.6828214322288 53.17985256554982 L 713.7772690065776 53.08995783945988 L 713.8737004057487 53.00049455574105 L 713.9721059866822 52.911471660647166 L 714.0724759089024 52.82289805639355 L 714.1748001355006 52.73478260026681 L 714.2790684341394 52.64713410373914 L 714.3852703780758 52.55996133158715 L 714.4933953472039 52.4732730010154 L 714.603432529117 52.387077780784715 L 714.7153709201884 52.30138429034529 L 714.8291993266726 52.21620109897476 L 714.9449063658234 52.13153672492127 L 715.0624804670335 52.047399634551674 L 715.1819098729909 51.963798241504904 L 715.3031826408544 51.88074090585058 L 715.4262866434482 51.79823593325307 L 715.5512095704747 51.71629157414086 L 715.6779389297453 51.6349160228816 L 715.8064620484297 51.55411741696258 L 715.9367660743231 51.47390383617708 L 716.0688379771316 51.394283301816316 L 716.2026645497748 51.315263775867386 L 716.3382324097071 51.23685316021703 L 716.4755280002554 51.159059295861475 L 716.614537591975 51.081889962122325 L 716.7552472840227 51.005352875868645 L 716.8976430055466 50.92945569074528 L 717.0417105170931 50.8542059964075 L 717.1874354120309 50.77961131776203 L 717.3348031179925 50.70567911421457 L 717.4837988983295 50.63241677892386 L 717.6344078535884 50.559831638062384 L 717.7866149229991 50.487930950083744 L 717.9404048859815 50.41672190499681 L 718.0957623636674 50.34621162364676 L 718.2526718204385 50.276407157002964 L 718.4111175654799 50.207315485453925 L 718.5710837543492 50.13894351810921 L 718.7325543905607 50.071298092108584 L 718.8955133271855 50.00438597193828 L 719.0599442684656 49.938213848754536 L 719.225830771444 49.87278833971455 L 719.3931562476084 49.80811598731469 L 719.561903964551 49.74420325873631 L 719.7320570476404 49.68105654519901 L 719.9035984817102 49.61868216132152 L 720.07651111276 49.557086344490244 L 720.2507776496708 49.496275254235535 L 720.4263806659341 49.436254971615746 L 720.6033026013944 49.37703149860913 L 720.7815257640059 49.31861075751362 L 720.9610323316007 49.260998590354646 L 721.1418043536717 49.20420075830092 L 721.3238237531672 49.148222941088314 L 721.507072328299 49.0930707364519 L 721.6915317543625 49.03874965956618 L 721.8771835855684 48.985265142493574 L 722.0640092568888 48.93262253364123 L 722.2519900859118 48.880827097226145 L 722.4411072747113 48.82988401274882 L 722.631341911726 48.779798374475234 L 722.8226749736509 48.73057519092748 L 723.0150873273391 48.6822193843829 L 723.2085597317155 48.634735790381846 L 723.4030728397009 48.58812915724415 L 723.5986072001468 48.54240414559428 L 723.79514325978 48.497565327895316 L 723.9926613651584 48.45361718799164 L 724.1911417646357 48.41056412066064 L 724.3905646103377 48.36841043117315 L 724.590909960146 48.32716033486301 L 724.7921577796924 48.28681795670546 L 724.9942879443628 48.247387330904715 L 725.197280241309 48.20887240049048 L 725.4011143714707 48.17127701692371 L 725.6057699516045 48.13460493971143 L 725.8112265163232 48.0988598360308 L 726.0174635201414 48.06404528036239 L 726.2244603395305 48.030164754132784 L 726.4321962749812 47.997221645366345 L 726.640650553073 47.96521924834651 L 726.8498023285517 47.9341607632863 L 727.0596306864143 47.90404929600835 L 727.2701146439997 47.87488785763429 L 727.4812331530875 47.846679364283666 L 727.6929651020029 47.819426636782296 L 727.9052893177272 47.793132400380216 L 728.118184568016 47.76779928447917 L 728.3316295635216 47.74342982236962 L 728.5456029599222 47.72002645097748 L 728.7600833600567 47.69759151062038 L 728.9750493160636 47.67612724477367 L 729.1904793315266 47.65563579984603 L 729.4063518636236 47.636119224964894 L 729.6226453252813 47.61757947177148 L 729.8393380873338 47.60001839422566 L 730.0564084806854 47.58343774842055 L 730.2738347984778 47.567839192406915 L 730.4915952982602 47.55322428602736 L 730.7096682041642 47.53959449076034 L 730.928031709081 47.52695116957402 L 731.146663976842 47.515295586789996 L 731.3655431444026 47.50462890795682 L 731.5846473240285 47.4949521997335 L 731.8039546054844 47.48626642978277 L 732.0234430582246 47.47857246667442 L 732.2430907335871 47.47187107979833 L 732.4628756669872 47.4661629392876 L 732.6827758801147 47.46144861595154 L 732.9027693831316 47.45772858121853 L 733.122834176871 47.45500320708897 L 733.3429482550368 47.45327276609799 L 733.5630896064047 47.45253743128824 L 733.7832362170228 47.4527972761926 L 734.0033660724138 47.45405227482679 L 734.2234571597753 47.45630230169199 L 734.4434874701823 47.4595471317874 L 734.6634350007868 47.4637864406327 L 734.8832777570192 47.46901980430055 L 735.1029937547871 47.475246699458935 L 735.3225610226738 47.48246650342354 L 735.5419576041353 47.49067849421997 L 735.7611615596966 47.499881850656 L 735.9801509691445 47.51007565240366 L 736.1989039337208 47.52125888009125 L 736.4173985783111 47.533430415405334 L 736.6356130536333 47.54658904120252 L 736.8535255384215 47.56073344163121 L 737.0711142416089 47.575862202263124 L 737.2883574045064 47.59197381023482 L 737.5052333029789 47.609066654398916 L 737.7217202496172 47.62713902548525 L 737.9377965959071 47.64618911627178 L 738.1534407343939 47.66621502176528 L 738.3686311008436 47.687214739391905 L 738.5833461763988 47.709186169197395 L 738.7975644897308 47.732127114057064 L 739.0112646191869 47.756035279895556 L 739.2244251949323 47.78090827591621 L 739.4370249010869 47.806743614840144 L 739.6490424778574 47.833538713155 L 739.8604567236627 47.86129089137327 L 740.0712464972543 47.88999737430027 L 740.2813907198307 47.91965529131163 L 740.4908683771447 47.950261676640345 L 740.6996585216051 47.9818134696734 L 740.9077402743713 48.014307515257784 L 741.1150928274418 48.047740564016024 L 741.3216954457338 48.08210927267109 L 741.5275274691577 48.11741020438076 L 741.7325683146827 48.1536398290813 L 741.9367974783951 48.1907945238404 L 742.1401945375487 48.228870573219574 L 742.3427391526071 48.2678641696456 L 742.5444110692777 48.30777141379133 L 742.7451901205367 48.34858831496561 L 742.9450562286463 48.39031079151233 L 743.1439894071624 48.43293467121861 L 743.3419697629328 48.476455691732 L 743.538977498087 48.520869500986706 L 743.7349929120155 48.56617165763883 L 743.9299964033404 48.61235763151045 L 744.1239684718751 48.65942280404266 L 744.3168897205742 48.70736246875744 L 744.5087408574738 48.75617183172826 L 744.6995026976199 48.8058460120595 L 744.8891561649875 48.85638004237452 L 745.0776822943881 48.907768869312406 L 745.2650622333657 48.96000735403328 L 745.4512772440825 49.01309027273221 L 745.6363087051927 49.06701231716155 L 745.8201381137044 49.1217680951618 L 746.0027470868299 49.17735213120079 L 746.184117363824 49.23375886692124 L 746.3642308078103 49.290982661696574 L 746.5430694075943 49.34901779319501 L 746.7206152794652 49.407858457951754 L 746.8968506689837 49.467498771949366 L 747.0717579527577 49.52793277120614 L 747.2453196402047 49.58915441237252 L 747.4175183753005 49.65115757333541 L 747.588336938315 49.71393605383038 L 747.7577582475343 49.777483576061684 L 747.9257653609689 49.841793785330076 L 748.092341478047 49.9068602506682 L 748.2574699412961 49.97267646548376 L 748.4211342380073 50.03923584821011 L 748.5833180018874 50.10653174296445 L 748.7440050146951 50.17455742021338 L 748.903179207863 50.24330607744587 L 749.0608246641045 50.31277083985348 L 749.2169256190055 50.38294476101786 L 749.3714664626002 50.45382082360537 L 749.5244317409333 50.525391940068815 L 749.6758061576044 50.59765095335619 L 749.8255745752979 50.67059063762638 L 749.973722017297 50.744203698971745 L 750.1202336689807 50.81848277614749 L 750.2650948793062 50.89342044130781 L 750.4082911622729 50.969009200748616 L 750.5498081983721 51.045241495656974 L 750.6896318360181 51.12210970286691 L 750.8277480929635 51.19960613562175 L 750.9641431576977 51.277723044342814 L 751.098803390828 51.35645261740432 L 751.2317153264432 51.435786981914575 L 751.3628656734606 51.51571820450324 L 751.4922413169548 51.596238292114656 L 751.6198293194692 51.67733919280717 L 751.7456169223099 51.759012796558295 L 751.8695915468214 51.84125093607571 L 751.9917407956445 51.92404538761401 L 752.1120524539564 52.007387871797015 L 752.2305144906911 52.09127005444578 L 752.3471150597439 52.17568354741193 L 752.4618425011552 52.26061990941651 L 752.5746853422761 52.34607064689411 L 752.6856322989167 52.432027214842186 L 752.7946722764739 52.51848101767557 L 752.9017943710408 52.605423410086026 L 753.0069878704969 52.69284569790677 L 753.1102422555803 52.78073913898186 L 753.2115472009383 52.86909494404044 L 753.3108925761609 52.957904277575636 L 753.4082684467934 53.0471582587281 L 753.5036650753296 53.136847962174095 L 753.5970729221866 53.22696441901801 L 753.6884826466572 53.31749861768927 L 753.7778851078452 53.408441504843445 L 753.8652713655791 53.49978398626761 L 753.9506326813058 53.59151692778973 L 754.0339605189649 53.68363115619211 L 754.1152465458422 53.77611746012866 L 754.1944826334027 53.868966591046075 L 754.2716608581035 53.96216926410862 L 754.3467735021866 54.05571615912666 L 754.4198130544502 54.149597921488656 L 754.4907722109998 54.243805163096596 L 754.5596438759791 54.33832846330484 L 754.6264211622788 54.43315836986213 L 754.691097392226 54.52828539985682 L 754.7536660982515 54.623700040665206 L 754.814121023537 54.719392750902706 L 754.8724561226403 54.815353961378044 L 754.9286655621002 54.91157407605014 L 754.9827437210192 55.0080434729877 L 755.034685191627 55.10475250533143 L 755.0844847798194 55.20169150225869 L 755.1321375056793 55.29885076995057 L 755.1776386039738 55.39622059256126 L 755.2209835246309 55.49379123318963 L 755.2621679331947 55.591552934852956 L 755.3011877112589 55.68949592146251 L 755.3380389568778 55.78761039880126 L 755.3727179849577 55.88588655550324 L 755.4052213276249 55.98431456403467 L 755.435545734572 56.08288458167672 L 755.4636881733835 56.18158675150977 L 755.4896458298392 56.28041120339909 L 755.513416108195 56.37934805498184 L 755.5349966314428 56.47838741265531 L 755.5543852415484 56.57751937256626 L 755.5715799996667 56.67673402160132 L 755.5865791863365 56.77602143837825 L 755.5993813016515 56.87537169423813 L 755.6099850654109 56.974774854238156 L 755.618389417247 57.074220978145156 L 755.6245935167318 57.173700121429626 L 755.6285967434604 57.27320233626013 L 755.6303986971135 57.3727176724981 M 755.6305103802422 89.0695808244 L 755.6294096480234 89.16909825047689 L 755.6261075614393 89.26860572489409 L 755.6206044506959 89.3680932969871 L 755.6129008660996 89.46755101808161 L 755.6029975780025 89.56696894248839 L 755.5908955767251 89.66633712849786 L 755.5765960724575 89.7656456393742 L 755.5601004951382 89.86488454434911 L 755.5414104943111 89.96404391961477 L 755.5205279389608 90.06311384931628 L 755.4974549173254 90.16208442654325 L 755.4721937366878 90.26094575432042 L 755.4447469231451 90.3596879465974 L 755.4151172213557 90.45830112923726 L 755.3833075942651 90.55677544100388 L 755.3493212228096 90.65510103454817 L 755.313161505598 90.7532680773927 L 755.2748320585717 90.85126675291501 L 755.2343367146437 90.9490872613292 L 755.1916795233145 91.04671982066594 L 755.1468647502677 91.14415466775068 L 755.0998968769434 91.24138205917988 L 755.0507806000896 91.33839227229542 L 754.9995208312931 91.43517560615686 L 754.9461226964881 91.53172238251143 L 754.8905915354437 91.62802294676199 L 754.8329329012296 91.72406766893232 L 754.7731525596611 91.81984694463027 L 754.7112564887226 91.91535119600807 L 754.6472508779697 92.01057087272018 L 754.5811421279101 92.10549645287828 L 754.5129368493637 92.20011844400345 L 754.4426418628013 92.29442738397543 L 754.3702641976635 92.38841384197882 L 754.295811091656 92.48206841944614 L 754.2192899900275 92.57538175099768 L 754.1407085448245 92.66834450537806 L 754.060074614126 92.76094738638929 L 753.9773962612579 92.85318113382046 L 753.8926817539865 92.94503652437366 L 753.8059395636919 93.0365043725864 L 753.7171783645209 93.1275755317501 L 753.6264070325195 93.2182408948247 L 753.5336346447452 93.30849139534948 L 753.4388704783596 93.39831800834956 L 753.3421240097002 93.48771175123852 L 753.2434049133333 93.57666368471656 L 753.1427230610863 93.66516491366447 L 753.0400885210604 93.75320658803308 L 752.9355115566242 93.84077990372833 L 752.8290026253869 93.92787610349166 L 752.7205723781531 94.01448647777562 L 752.6102316578568 94.10060236561499 L 752.4979914984785 94.18621515549275 L 752.3838631239403 94.27131628620124 L 752.2678579469846 94.35589724769832 L 752.1499875680324 94.43994958195832 L 752.0302637740235 94.52346488381785 L 751.9086985372375 94.60643480181633 L 751.7853040140966 94.68885103903109 L 751.6600925439504 94.77070535390712 L 751.5330766478417 94.8519895610811 L 751.4042690272541 94.93269553220007 L 751.2736825628424 95.01281519673418 L 751.1413303131442 95.09234054278373 L 751.0072255132741 95.1712636178804 L 750.8713815736005 95.24957652978243 L 750.733812078404 95.32727144726391 L 750.5945307845195 95.40434060089783 L 750.4535516199604 95.48077628383304 L 750.3108886825257 95.55657085256495 L 750.1665562383902 95.63171672769985 L 750.0205687206779 95.70620639471286 L 749.8729407280192 95.78003240469934 L 749.7236870230902 95.8531873751198 L 749.5728225311369 95.92566399053818 L 749.4203623384828 95.99745500335334 L 749.2663216910204 96.06855323452382 L 749.1107159926859 96.13895157428573 L 748.9535608039192 96.20864298286378 L 748.7948718401086 96.27762049117517 L 748.6346649700181 96.34587720152658 L 748.4729562142012 96.41340628830382 L 748.3097617433988 96.48020099865451 L 748.1450978769218 96.54625465316329 L 747.9789810810197 96.6115606465197 L 747.8114279672337 96.67611244817888 L 747.6424552907357 96.73990360301444 L 747.4720799486523 96.80292773196405 L 747.3003189783758 96.86517853266734 L 747.1271895558601 96.92664978009611 L 746.9527089939032 96.98733532717685 L 746.776894740416 97.0472291054054 L 746.5997643766771 97.10632512545389 L 746.4213356155753 97.16461747776954 L 746.2416262998383 97.22210033316568 L 746.0606544002477 97.27876794340469 L 745.8784380138426 97.33461464177277 L 745.6949953621099 97.38963484364662 L 745.5103447891619 97.4438230470519 L 745.3245047599019 97.49717383321342 L 745.1374938581781 97.54968186709704 L 744.9493307849248 97.60134189794312 L 744.7600343562925 97.6521487597916 L 744.5696235017664 97.70209737199868 L 744.378117262273 97.75118273974472 L 744.1855347882771 97.79939995453388 L 743.9918953378652 97.84674419468486 L 743.7972182748213 97.89321072581308 L 743.6015230666892 97.93879490130416 L 743.4048292828268 97.98349216277855 L 743.2071565924485 98.02729804054732 L 743.0085247626587 98.07020815405922 L 742.8089536564748 98.11221821233865 L 742.6084632308412 98.15332401441479 L 742.4070735346331 98.1935214497417 L 742.2048047066527 98.23280649860932 L 742.0016769736138 98.27117523254553 L 741.7977106481209 98.30862381470888 L 741.5929261266363 98.34514850027239 L 741.3873438874414 98.38074563679791 L 741.180984488589 98.41541166460149 L 740.973868565847 98.4491431171092 L 740.7660168306351 98.48193662120391 L 740.5574500679535 98.51378889756256 L 740.3481891343047 98.54469676098404 L 740.1382549556076 98.57465712070776 L 739.9276685251054 98.60366698072272 L 739.7164509012654 98.63172344006709 L 739.5046232056741 98.65882369311832 L 739.2922066209245 98.6849650298737 L 739.079222388498 98.7101448362213 L 738.8656918066404 98.73436059420152 L 738.651636228232 98.75760988225869 L 738.4370770586521 98.77989037548343 L 738.2220357536391 98.80119984584495 L 738.0065338171441 98.82153616241398 L 737.7905927991814 98.8408972915758 L 737.5742342936725 98.85928129723365 L 737.3574799362879 98.87668634100228 L 737.1403514022826 98.89311068239181 L 736.9228704043292 98.90855267898178 L 736.7050586903462 98.92301078658541 L 736.4869380413234 98.93648355940398 L 736.2685302691439 98.94896965017145 L 736.0498572144031 98.96046781028913 L 735.8309407442241 98.9709768899506 L 735.6118027500717 98.98049583825666 L 735.3924651455624 98.9890237033204 L 735.1729498642741 98.99655963236242 L 734.9532788575518 99.0031028717961 L 734.7334740923134 99.00865276730295 L 734.513557548852 99.01320876389804 L 734.2935512186386 99.01677040598551 L 734.0734771021233 99.01933733740412 L 733.853357206534 99.02090930146286 L 733.6332135436769 99.02148614096664 L 733.413068127735 99.021067798232 L 733.1929429730661 99.01965431509285 L 732.9728600920026 99.01724583289632 L 732.7528414926489 99.01384259248866 L 732.5329091766819 99.00944493419102 L 732.3130851371496 99.00405329776561 L 732.0933913562731 98.99766822237156 L 731.873849803247 98.99029034651109 L 731.654482432044 98.98192040796563 L 731.4353111792183 98.97255924372207 L 731.2163579617126 98.96220778988905 L 730.9976446746659 98.95086708160329 L 730.779193189225 98.93853825292621 L 730.5610253503563 98.92522253673036 L 730.3431629746618 98.91092126457629 L 730.1256278481976 98.8956358665793 L 729.908441724295 98.87936787126644 L 729.6916263213855 98.86211890542369 L 729.4752033208285 98.84389069393325 L 729.259194364744 98.8246850596011 L 729.0436210538475 98.80450392297463 L 728.8285049452902 98.78334930215074 L 728.6138675505041 98.76122331257385 L 728.3997303330494 98.73812816682448 L 728.1861147064698 98.71406617439796 L 727.9730420321497 98.6890397414735 L 727.7605336171789 98.6630513706735 L 727.5486107122221 98.6361036608134 L 727.3372945093929 98.60819930664177 L 727.1266061401357 98.57934109857071 L 726.9165666731118 98.54953192239701 L 726.7071971120927 98.51877475901345 L 726.4985183938602 98.48707268411073 L 726.2905513861123 98.45442886786992 L 726.0833168853762 98.42084657464544 L 725.8768356149295 98.38632916263863 L 725.6711282227271 98.35088008356193 L 725.4662152793369 98.31450288229371 L 725.2621172758824 98.27720119652378 L 725.0588546219938 98.23897875638961 L 724.8564476437671 98.1998393841034 L 724.6549165817315 98.15978699356974 L 724.4542815888253 98.1188255899943 L 724.2545627283806 98.07695926948332 L 724.055779972117 98.03419221863396 L 723.8579531981444 97.99052871411565 L 723.6611021889754 97.94597312224248 L 723.465246629547 97.90052989853648 L 723.2704061052516 97.85420358728217 L 723.0766000999796 97.80699882107207 L 722.8838479941699 97.75892032034346 L 722.6921690628723 97.70997289290635 L 722.5015824738205 97.66016143346269 L 722.3121072855142 97.60949092311692 L 722.1237624453148 97.55796642887785 L 721.936566787549 97.50559310315195 L 721.7505390316268 97.45237618322817 L 721.5656977801685 97.39832099075414 L 721.3820615171455 97.34343293120408 L 721.199648606031 97.28771749333818 L 721.0184772879641 97.23118024865381 L 720.8385656799254 97.17382685082835 L 720.6599317729261 97.11566303515374 L 720.4825934302079 97.0566946179631 L 720.3065683854572 96.99692749604901 L 720.131874241032 96.93636764607388 L 719.9585284662011 96.87502112397219 L 719.7865483953974 96.81289406434506 L 719.6159512264848 96.74999267984667 L 719.4467540190378 96.68632326056307 L 719.2789736926366 96.62189217338312 L 719.1126270251734 96.55670586136183 L 718.9477306511769 96.4907708430761 L 718.7843010601468 96.4240937119728 L 718.6223545949061 96.3566811357095 L 718.4619074499664 96.28853985548761 L 718.3029756699083 96.21967668537842 L 718.1455751477774 96.1500985116415 L 717.989721623495 96.07981229203628 L 717.8354306822835 96.00882505512612 L 717.6827177531082 95.93714389957559 L 717.5315981071352 95.86477599344049 L 717.3820868562029 95.79172857345112 L 717.2341989513119 95.71800894428863 L 717.0879491811294 95.64362447785447 L 716.9433521705105 95.56858261253333 L 716.8004223790358 95.4928908524492 L 716.6591740995653 95.41655676671499 L 716.5196214568094 95.33958798867569 L 716.381778405916 95.26199221514494 L 716.2456587310751 95.18377720563545 L 716.111276044141 95.10495078158299 L 715.9786437832705 95.02552082556426 L 715.847775211579 94.94549528050867 L 715.7186834158146 94.86488214890406 L 715.5913813050493 94.7836894919964 L 715.465881609388 94.70192542898371 L 715.3421968786959 94.61959813620419 L 715.2203394813429 94.53671584631847 L 715.1003216029673 94.4532868474865 L 714.9821552452566 94.36931948253863 L 714.8658522247484 94.28482214814137 L 714.7514241716478 94.19980329395776 L 714.6388825286647 94.11427142180236 L 714.5282385498695 94.02823508479112 L 714.4195032995681 93.94170288648604 L 714.3126876511948 93.85468348003484 L 714.2078022862253 93.76718556730565 L 714.1048576931089 93.67921789801682 L 714.003864166219 93.59078926886198 L 713.9048318048243 93.50190852263036 L 713.8077705120783 93.41258454732251 L 713.7126899940292 93.32282627526152 L 713.6195997586499 93.23264268219981 L 713.5285091148861 93.14204278642153 L 713.4394271717265 93.05103564784075 L 713.3523628372909 92.9596303670955 L 713.2673248179406 92.86783608463767 L 713.1843216174062 92.77566197981902 L 713.1033615359388 92.68311726997321 L 713.0244526694793 92.59021120949413 L 712.9476029088481 92.49695308891037 L 712.8728199389577 92.40335223395631 L 712.8001112380425 92.30941800463943 L 712.7294840769121 92.21515979430437 L 712.6609455182237 92.12058702869363 L 712.5945024157761 92.02570916500495 L 712.5301614138241 91.93053569094566 L 712.4679289464143 91.83507612378382 L 712.4078112367417 91.73934000939661 L 712.349814296527 91.64333692131571 L 712.2939439254161 91.5470764597699 L 712.2402057103994 91.45056825072513 L 712.1886050252535 91.35382194492188 L 712.1391470300042 91.25684721691009 L 712.0918366704097 91.15965376408177 L 712.0466786774664 91.06225130570121 L 712.0036775669362 90.96464958193306 L 711.962837638894 90.86685835286839 L 711.9241629772989 90.7688873975486 L 711.8876574495846 90.67074651298756 L 711.8533247062736 90.57244551319198 L 711.8211681806116 90.4739942281799 L 711.7911910882242 90.37540250299779 L 711.7633964267959 90.276680196736 L 711.7377869757695 90.17783718154287 L 711.7143652960689 90.07888334163758 L 711.6931337298424 89.97982857232165 L 711.674094400229 89.88068277898947 L 711.6572492111459 89.78145587613774 L 711.6425998470978 89.68215778637406 L 711.630147773009 89.58279843942468 L 711.6198942340765 89.48338777114147 L 711.6118402556456 89.38393572250841 L 711.6059866431076 89.28445223864752 L 711.6023339818187 89.18494726782424 L 711.600882637042 89.08543076045278" stroke-miterlimit="10" stroke-width="2.5633703640000003" stroke-dasharray=""/></g><g><g/><text fill="black" stroke="none" font-family="sans-serif" font-size="11pt" font-style="normal" font-weight="normal" text-decoration="normal" x="698.6156825482421" y="115.200879888" text-anchor="start" dominant-baseline="alphabetic" xml:space="preserve">Database</text></g><g><path fill="white" stroke="black" paint-order="fill stroke markers" d=" M 845.7361273361211 74.3980551528 A 22.391794062000002 22.391794062000002 0 1 1 845.7361161402249 74.37566336246995 M 799.670854030121 98.840545506 L 847.0178125181211 98.840545506" stroke-miterlimit="10" stroke-width="2.5633703640000003" stroke-dasharray=""/></g><g><g/><text fill="black" stroke="none" font-family="sans-serif" font-size="11pt" font-style="normal" font-weight="normal" text-decoration="normal" x="783.6943317482421" y="115.200879888" text-anchor="start" dominant-baseline="alphabetic" xml:space="preserve">FileSystem</text></g></g><g><path fill="white" stroke="black" paint-order="fill stroke markers" d=" M 98.0112198 127.263799248 L 113.08986900000001 127.263799248 L 113.08986900000001 169.484017008 L 98.0112198 169.484017008 L 98.0112198 127.263799248" stroke-miterlimit="10" stroke-width="1.2565541" stroke-dasharray=""/><path fill="white" stroke="black" paint-order="fill stroke markers" d=" M 286.9329314988281 250.90872268799998 L 302.0115806988281 250.90872268799998 L 302.0115806988281 462.0098114880001 L 286.9329314988281 462.0098114880001 L 286.9329314988281 250.90872268799998" stroke-miterlimit="10" stroke-width="1.2565541" stroke-dasharray=""/><path fill="white" stroke="black" paint-order="fill stroke markers" d=" M 514.8713057953124 293.128940448 L 529.9499549953124 293.128940448 L 529.9499549953124 419.78959372800006 L 514.8713057953124 419.78959372800006 L 514.8713057953124 293.128940448" stroke-miterlimit="10" stroke-width="1.2565541" stroke-dasharray=""/><path fill="white" stroke="black" paint-order="fill stroke markers" d=" M 726.0763579482422 335.349158208 L 741.1550071482421 335.349158208 L 741.1550071482421 377.56937596800003 L 726.0763579482422 377.56937596800003 L 726.0763579482422 335.349158208" stroke-miterlimit="10" stroke-width="1.2565541" stroke-dasharray=""/><path fill="white" stroke="black" paint-order="fill stroke markers" d=" M 98.0112198 484.6277852880001 L 113.08986900000001 484.6277852880001 L 113.08986900000001 736.441226928 L 98.0112198 736.441226928 L 98.0112198 484.6277852880001" stroke-miterlimit="10" stroke-width="1.2565541" stroke-dasharray=""/><path fill="white" stroke="black" paint-order="fill stroke markers" d=" M 286.9329314988281 526.8480030480001 L 302.0115806988281 526.8480030480001 L 302.0115806988281 694.221009168 L 286.9329314988281 694.221009168 L 286.9329314988281 526.8480030480001" stroke-miterlimit="10" stroke-width="1.2565541" stroke-dasharray=""/><path fill="white" stroke="black" paint-order="fill stroke markers" d=" M 286.9329314988281 777.153579768 L 302.0115806988281 777.153579768 L 302.0115806988281 819.373797528 L 286.9329314988281 819.373797528 L 286.9329314988281 777.153579768" stroke-miterlimit="10" stroke-width="1.2565541" stroke-dasharray=""/><path fill="white" stroke="black" paint-order="fill stroke markers" d=" M 286.9329314988281 860.086150368 L 302.0115806988281 860.086150368 L 302.0115806988281 1534.1017696079998 L 286.9329314988281 1534.1017696079998 L 286.9329314988281 860.086150368" stroke-miterlimit="10" stroke-width="1.2565541" stroke-dasharray=""/><path fill="white" stroke="black" paint-order="fill stroke markers" d=" M 514.8713057953124 902.3063681279999 L 529.9499549953124 902.3063681279999 L 529.9499549953124 1534.1017696079998 L 514.8713057953124 1534.1017696079998 L 514.8713057953124 902.3063681279999" stroke-miterlimit="10" stroke-width="1.2565541" stroke-dasharray=""/><path fill="white" stroke="black" paint-order="fill stroke markers" d=" M 726.0763579482422 944.5265858879999 L 741.1550071482421 944.5265858879999 L 741.1550071482421 1534.1017696079998 L 726.0763579482422 1534.1017696079998 L 726.0763579482422 944.5265858879999" stroke-miterlimit="10" stroke-width="1.2565541" stroke-dasharray=""/><path fill="white" stroke="black" paint-order="fill stroke markers" d=" M 815.805008674121 1319.9849509679998 L 830.883657874121 1319.9849509679998 L 830.883657874121 1362.2051687279998 L 815.805008674121 1362.2051687279998 L 815.805008674121 1319.9849509679998" stroke-miterlimit="10" stroke-width="1.2565541" stroke-dasharray=""/><g><g><rect fill="white" stroke="none" x="143.11926364353516" y="149.88177304799999" width="121.32359781175781" height="19.602243960000003"/></g><text fill="black" stroke="none" font-family="sans-serif" font-size="11pt" font-style="normal" font-weight="normal" text-decoration="normal" x="145.38106102353515" y="163.45255732799998" text-anchor="start" dominant-baseline="alphabetic" xml:space="preserve">Clicks edit page</text></g><g><path fill="none" stroke="black" paint-order="fill stroke markers" d=" M 113.08986900000001 169.484017008 L 282.0575015908281 169.484017008" stroke-miterlimit="10" stroke-width="1.2565541" stroke-dasharray=""/><g transform="translate(294.4722560988281,169.484017008) translate(-294.4722560988281,-169.484017008)"><path fill="black" stroke="none" paint-order="stroke fill markers" d=" M 281.9067150988281 163.201246508 L 294.4722560988281 169.484017008 L 281.9067150988281 175.766787508 Z"/></g></g><g><g><rect fill="white" stroke="none" x="319.85464891882805" y="273.52669648799997" width="177.17358865648438" height="19.602243960000003"/></g><text fill="black" stroke="none" font-family="sans-serif" font-size="11pt" font-style="normal" font-weight="normal" text-decoration="normal" x="322.11644629882807" y="287.09748076799997" text-anchor="start" dominant-baseline="alphabetic" xml:space="preserve">Query dependent fields</text></g><g><path fill="none" stroke="black" paint-order="fill stroke markers" d=" M 302.0115806988281 293.128940448 L 502.45655128731244 293.128940448" stroke-miterlimit="10" stroke-width="1.2565541" stroke-dasharray=""/><g transform="translate(514.8713057953124,293.128940448) translate(-514.8713057953124,-293.128940448)"><path fill="black" stroke="none" paint-order="stroke fill markers" d=" M 502.3057647953124 286.84616994799995 L 514.8713057953124 293.128940448 L 502.3057647953124 299.411710948 Z"/></g></g><g><g><rect fill="white" stroke="none" x="567.2346926794238" y="315.746914248" width="121.55692758470703" height="19.602243960000003"/></g><text fill="black" stroke="none" font-family="sans-serif" font-size="11pt" font-style="normal" font-weight="normal" text-decoration="normal" x="569.4964900594238" y="329.31769852800005" text-anchor="start" dominant-baseline="alphabetic" xml:space="preserve">Database query</text></g><g><path fill="none" stroke="black" paint-order="fill stroke markers" d=" M 529.9499549953124 335.349158208 L 713.6616034402422 335.349158208" stroke-miterlimit="10" stroke-width="1.2565541" stroke-dasharray=""/><g transform="translate(726.0763579482422,335.349158208) translate(-726.0763579482422,-335.349158208)"><path fill="black" stroke="none" paint-order="stroke fill markers" d=" M 713.5108169482421 329.066387708 L 726.0763579482422 335.349158208 L 713.5108169482421 341.63192870800003 Z"/></g></g><g><g><rect fill="white" stroke="none" x="601.1596919164843" y="357.967132008" width="53.70692911058594" height="19.602243960000003"/></g><text fill="black" stroke="none" font-family="sans-serif" font-size="11pt" font-style="normal" font-weight="normal" text-decoration="normal" x="603.4214892964843" y="371.537916288" text-anchor="start" dominant-baseline="alphabetic" xml:space="preserve">results</text></g><g><path fill="none" stroke="black" paint-order="fill stroke markers" d=" M 726.0763579482422 377.56937596800003 L 531.8347861453124 377.56937596800003" stroke-miterlimit="10" stroke-width="1.2565541" stroke-dasharray="6.03145968"/><g transform="translate(529.9499549953124,377.56937596800003) translate(-529.9499549953124,-377.56937596800003)"><path fill="none" stroke="black" paint-order="fill stroke markers" d=" M 542.8686421181316 371.8062398274245 L 531.3625394865888 377.56937596800003 L 542.8686421181316 383.33251210857554" stroke-miterlimit="10" stroke-width="1.2565541"/></g></g><g><g><rect fill="white" stroke="none" x="381.58797869177727" y="400.18734976800005" width="53.70692911058594" height="19.602243960000003"/></g><text fill="black" stroke="none" font-family="sans-serif" font-size="11pt" font-style="normal" font-weight="normal" text-decoration="normal" x="383.8497760717773" y="413.7581340480001" text-anchor="start" dominant-baseline="alphabetic" xml:space="preserve">results</text></g><g><path fill="none" stroke="black" paint-order="fill stroke markers" d=" M 514.8713057953124 419.78959372800006 L 303.8964118488281 419.78959372800006" stroke-miterlimit="10" stroke-width="1.2565541" stroke-dasharray="6.03145968"/><g transform="translate(302.0115806988281,419.78959372800006) translate(-302.0115806988281,-419.78959372800006)"><path fill="none" stroke="black" paint-order="fill stroke markers" d=" M 314.9302678216472 414.02645758742455 L 303.42416519010453 419.78959372800006 L 314.9302678216472 425.55272986857557" stroke-miterlimit="10" stroke-width="1.2565541"/></g></g><g><g><rect fill="white" stroke="none" x="130.7716085076465" y="442.4075675280001" width="130.94025888353517" height="19.602243960000003"/></g><text fill="black" stroke="none" font-family="sans-serif" font-size="11pt" font-style="normal" font-weight="normal" text-decoration="normal" x="133.0334058876465" y="455.97835180800007" text-anchor="start" dominant-baseline="alphabetic" xml:space="preserve">Render edit page</text></g><g><path fill="none" stroke="black" paint-order="fill stroke markers" d=" M 286.9329314988281 462.0098114880001 L 107.43537555 462.0098114880001" stroke-miterlimit="10" stroke-width="1.2565541" stroke-dasharray=""/><g transform="translate(105.5505444,462.0098114880001) translate(-105.5505444,-462.0098114880001)"><path fill="none" stroke="black" paint-order="fill stroke markers" d=" M 118.46923152281911 456.24667534742457 L 106.96312889127645 462.0098114880001 L 118.46923152281911 467.7729476285756" stroke-miterlimit="10" stroke-width="1.2565541"/></g></g><g><g><rect fill="white" stroke="none" x="151.59960134353517" y="507.2457590880001" width="96.82359781175781" height="19.602243960000003"/></g><text fill="black" stroke="none" font-family="sans-serif" font-size="11pt" font-style="normal" font-weight="normal" text-decoration="normal" x="153.86139872353516" y="520.8165433680001" text-anchor="start" dominant-baseline="alphabetic" xml:space="preserve">Fill out fields</text></g><g><path fill="none" stroke="black" paint-order="fill stroke markers" d=" M 113.08986900000001 526.8480030480001 L 274.5181769908281 526.8480030480001" stroke-miterlimit="10" stroke-width="1.2565541" stroke-dasharray=""/><g transform="translate(286.9329314988281,526.8480030480001) translate(-286.9329314988281,-526.8480030480001)"><path fill="black" stroke="none" paint-order="stroke fill markers" d=" M 274.3673904988281 520.5652325480002 L 286.9329314988281 526.8480030480001 L 274.3673904988281 533.1307735480001 Z"/></g></g><g><g><rect fill="white" stroke="none" x="319.85464891882805" y="549.4659768480001" width="107.64026346117187" height="19.602243960000003"/></g><text fill="black" stroke="none" font-family="sans-serif" font-size="11pt" font-style="normal" font-weight="normal" text-decoration="normal" x="322.11644629882807" y="563.0367611280001" text-anchor="start" dominant-baseline="alphabetic" xml:space="preserve">Validate fields</text></g><g><path fill="none" stroke="black" paint-order="fill stroke markers" d=" M 302.0115806988281 569.0682208080001 L 362.3261774988281 569.0682208080001 L 362.3261774988281 588.6704647680001 L 314.42633520682807 588.6704647680001" stroke-miterlimit="10" stroke-width="1.2565541" stroke-dasharray=""/><g transform="translate(302.0115806988281,588.6704647680001) translate(-302.0115806988281,-588.6704647680001)"><path fill="black" stroke="none" paint-order="stroke fill markers" d=" M 314.5771216988281 582.3876942680001 L 302.0115806988281 588.6704647680001 L 314.5771216988281 594.9532352680001 Z"/></g></g><g><g><rect fill="white" stroke="none" x="179.98293645706056" y="652.000791408" width="40.05692758470703" height="19.602243960000003"/></g><text fill="black" stroke="none" font-family="sans-serif" font-size="11pt" font-style="normal" font-weight="normal" text-decoration="normal" x="182.24473383706055" y="665.571575688" text-anchor="start" dominant-baseline="alphabetic" xml:space="preserve">error</text></g><g><path fill="none" stroke="black" paint-order="fill stroke markers" d=" M 286.9329314988281 671.6030353680001 L 114.97470015 671.6030353680001" stroke-miterlimit="10" stroke-width="1.2565541" stroke-dasharray=""/><g transform="translate(113.08986900000001,671.6030353680001) translate(-113.08986900000001,-671.6030353680001)"><path fill="none" stroke="black" paint-order="fill stroke markers" d=" M 126.00855612281912 665.8398992274247 L 114.50245349127646 671.6030353680001 L 126.00855612281912 677.3661715085755" stroke-miterlimit="10" stroke-width="1.2565541"/></g></g><g><g><rect fill="white" stroke="none" x="134.70259952" y="716.838982968" width="138.15692605882813" height="19.602243960000003"/></g><text fill="black" stroke="none" font-family="sans-serif" font-size="11pt" font-style="normal" font-weight="normal" text-decoration="normal" x="136.9643969" y="730.409767248" text-anchor="start" dominant-baseline="alphabetic" xml:space="preserve">User clicks submit</text></g><g><path fill="none" stroke="black" paint-order="fill stroke markers" d=" M 113.08986900000001 736.441226928 L 282.0575015908281 736.441226928" stroke-miterlimit="10" stroke-width="1.2565541" stroke-dasharray=""/><g transform="translate(294.4722560988281,736.441226928) translate(-294.4722560988281,-736.441226928)"><path fill="black" stroke="none" paint-order="stroke fill markers" d=" M 281.9067150988281 730.158456428 L 294.4722560988281 736.441226928 L 281.9067150988281 742.723997428 Z"/></g></g><g><g><rect fill="white" stroke="none" x="176.21327415706057" y="799.771553568" width="40.05692758470703" height="19.602243960000003"/></g><text fill="black" stroke="none" font-family="sans-serif" font-size="11pt" font-style="normal" font-weight="normal" text-decoration="normal" x="178.47507153706056" y="813.3423378479999" text-anchor="start" dominant-baseline="alphabetic" xml:space="preserve">error</text></g><g><path fill="none" stroke="black" paint-order="fill stroke markers" d=" M 286.9329314988281 819.373797528 L 107.43537555 819.373797528" stroke-miterlimit="10" stroke-width="1.2565541" stroke-dasharray=""/><g transform="translate(105.5505444,819.373797528) translate(-105.5505444,-819.373797528)"><path fill="none" stroke="black" paint-order="fill stroke markers" d=" M 118.46923152281911 813.6106613874246 L 106.96312889127645 819.373797528 L 118.46923152281911 825.1369336685754" stroke-miterlimit="10" stroke-width="1.2565541"/></g></g><g><g><rect fill="white" stroke="none" x="334.92964586707023" y="882.7041241679999" width="147.02359476" height="19.602243960000003"/></g><text fill="black" stroke="none" font-family="sans-serif" font-size="11pt" font-style="normal" font-weight="normal" text-decoration="normal" x="337.19144324707025" y="896.2749084479999" text-anchor="start" dominant-baseline="alphabetic" xml:space="preserve">Update information</text></g><g><path fill="none" stroke="black" paint-order="fill stroke markers" d=" M 302.0115806988281 902.3063681279999 L 502.45655128731244 902.3063681279999" stroke-miterlimit="10" stroke-width="1.2565541" stroke-dasharray=""/><g transform="translate(514.8713057953124,902.3063681279999) translate(-514.8713057953124,-902.3063681279999)"><path fill="black" stroke="none" paint-order="stroke fill markers" d=" M 502.3057647953124 896.023597628 L 514.8713057953124 902.3063681279999 L 502.3057647953124 908.5891386279999 Z"/></g></g><g><g><rect fill="white" stroke="none" x="554.5013590917773" y="924.9243419279999" width="147.02359476" height="19.602243960000003"/></g><text fill="black" stroke="none" font-family="sans-serif" font-size="11pt" font-style="normal" font-weight="normal" text-decoration="normal" x="556.7631564717773" y="938.4951262079999" text-anchor="start" dominant-baseline="alphabetic" xml:space="preserve">Update information</text></g><g><path fill="none" stroke="black" paint-order="fill stroke markers" d=" M 529.9499549953124 944.5265858879999 L 713.6616034402422 944.5265858879999" stroke-miterlimit="10" stroke-width="1.2565541" stroke-dasharray=""/><g transform="translate(726.0763579482422,944.5265858879999) translate(-726.0763579482422,-944.5265858879999)"><path fill="black" stroke="none" paint-order="stroke fill markers" d=" M 713.5108169482421 938.2438153879999 L 726.0763579482422 944.5265858879999 L 713.5108169482421 950.8093563879999 Z"/></g></g><g><g><rect fill="white" stroke="none" x="607.9846926794238" y="1007.856912528" width="40.05692758470703" height="19.602243960000003"/></g><text fill="black" stroke="none" font-family="sans-serif" font-size="11pt" font-style="normal" font-weight="normal" text-decoration="normal" x="610.2464900594238" y="1021.427696808" text-anchor="start" dominant-baseline="alphabetic" xml:space="preserve">error</text></g><g><path fill="none" stroke="black" paint-order="fill stroke markers" d=" M 726.0763579482422 1027.459156488 L 531.8347861453124 1027.459156488" stroke-miterlimit="10" stroke-width="1.2565541" stroke-dasharray="6.03145968"/><g transform="translate(529.9499549953124,1027.459156488) translate(-529.9499549953124,-1027.459156488)"><path fill="none" stroke="black" paint-order="fill stroke markers" d=" M 542.8686421181316 1021.6960203474246 L 531.3625394865888 1027.459156488 L 542.8686421181316 1033.2222926285754" stroke-miterlimit="10" stroke-width="1.2565541"/></g></g><g><g><rect fill="white" stroke="none" x="388.4129794547167" y="1050.077130288" width="40.05692758470703" height="19.602243960000003"/></g><text fill="black" stroke="none" font-family="sans-serif" font-size="11pt" font-style="normal" font-weight="normal" text-decoration="normal" x="390.67477683471674" y="1063.647914568" text-anchor="start" dominant-baseline="alphabetic" xml:space="preserve">error</text></g><g><path fill="none" stroke="black" paint-order="fill stroke markers" d=" M 514.8713057953124 1069.679374248 L 303.8964118488281 1069.679374248" stroke-miterlimit="10" stroke-width="1.2565541" stroke-dasharray="6.03145968"/><g transform="translate(302.0115806988281,1069.679374248) translate(-302.0115806988281,-1069.679374248)"><path fill="none" stroke="black" paint-order="fill stroke markers" d=" M 314.9302678216472 1063.9162381074245 L 303.42416519010453 1069.679374248 L 314.9302678216472 1075.4425103885753" stroke-miterlimit="10" stroke-width="1.2565541"/></g></g><g><g><rect fill="white" stroke="none" x="176.21327415706057" y="1092.297348048" width="40.05692758470703" height="19.602243960000003"/></g><text fill="black" stroke="none" font-family="sans-serif" font-size="11pt" font-style="normal" font-weight="normal" text-decoration="normal" x="178.47507153706056" y="1105.868132328" text-anchor="start" dominant-baseline="alphabetic" xml:space="preserve">error</text></g><g><path fill="none" stroke="black" paint-order="fill stroke markers" d=" M 286.9329314988281 1111.899592008 L 107.43537555 1111.899592008" stroke-miterlimit="10" stroke-width="1.2565541" stroke-dasharray=""/><g transform="translate(105.5505444,1111.899592008) translate(-105.5505444,-1111.899592008)"><path fill="none" stroke="black" paint-order="fill stroke markers" d=" M 118.46923152281911 1106.1364558674245 L 106.96312889127645 1111.899592008 L 118.46923152281911 1117.6627281485753" stroke-miterlimit="10" stroke-width="1.2565541"/></g></g><g><g><rect fill="white" stroke="none" x="335.20464739294914" y="1215.942271488" width="146.4735917082422" height="19.602243960000003"/></g><text fill="black" stroke="none" font-family="sans-serif" font-size="11pt" font-style="normal" font-weight="normal" text-decoration="normal" x="337.46644477294916" y="1229.513055768" text-anchor="start" dominant-baseline="alphabetic" xml:space="preserve">Submit attachment</text></g><g><path fill="none" stroke="black" paint-order="fill stroke markers" d=" M 302.0115806988281 1235.5445154479999 L 502.45655128731244 1235.5445154479999" stroke-miterlimit="10" stroke-width="1.2565541" stroke-dasharray=""/><g transform="translate(514.8713057953124,1235.5445154479999) translate(-514.8713057953124,-1235.5445154479999)"><path fill="black" stroke="none" paint-order="stroke fill markers" d=" M 502.3057647953124 1229.261744948 L 514.8713057953124 1235.5445154479999 L 502.3057647953124 1241.8272859479998 Z"/></g></g><g><g><rect fill="white" stroke="none" x="547.7930232153125" y="1258.162489248" width="160.4402665129297" height="19.602243960000003"/></g><text fill="black" stroke="none" font-family="sans-serif" font-size="11pt" font-style="normal" font-weight="normal" text-decoration="normal" x="550.0548205953124" y="1271.733273528" text-anchor="start" dominant-baseline="alphabetic" xml:space="preserve">Update file metadata</text></g><g><path fill="none" stroke="black" paint-order="fill stroke markers" d=" M 529.9499549953124 1277.7647332079998 L 713.6616034402422 1277.7647332079998" stroke-miterlimit="10" stroke-width="1.2565541" stroke-dasharray=""/><g transform="translate(726.0763579482422,1277.7647332079998) translate(-726.0763579482422,-1277.7647332079998)"><path fill="black" stroke="none" paint-order="stroke fill markers" d=" M 713.5108169482421 1271.4819627079999 L 726.0763579482422 1277.7647332079998 L 713.5108169482421 1284.0475037079998 Z"/></g></g><g><g><rect fill="white" stroke="none" x="611.9846926794238" y="1300.382707008" width="32.05692758470703" height="19.602243960000003"/></g><text fill="black" stroke="none" font-family="sans-serif" font-size="11pt" font-style="normal" font-weight="normal" text-decoration="normal" x="614.2464900594238" y="1313.953491288" text-anchor="start" dominant-baseline="alphabetic" xml:space="preserve">info</text></g><g><path fill="none" stroke="black" paint-order="fill stroke markers" d=" M 726.0763579482422 1319.9849509679998 L 531.8347861453124 1319.9849509679998" stroke-miterlimit="10" stroke-width="1.2565541" stroke-dasharray="6.03145968"/><g transform="translate(529.9499549953124,1319.9849509679998) translate(-529.9499549953124,-1319.9849509679998)"><path fill="none" stroke="black" paint-order="fill stroke markers" d=" M 542.8686421181316 1314.2218148274244 L 531.3625394865888 1319.9849509679998 L 542.8686421181316 1325.7480871085752" stroke-miterlimit="10" stroke-width="1.2565541"/></g></g><g><g><rect fill="white" stroke="none" x="644.9073504856005" y="1342.6029247679999" width="55.940262698232424" height="19.602243960000003"/></g><text fill="black" stroke="none" font-family="sans-serif" font-size="11pt" font-style="normal" font-weight="normal" text-decoration="normal" x="647.1691478656005" y="1356.1737090479999" text-anchor="start" dominant-baseline="alphabetic" xml:space="preserve">Upload</text></g><g><path fill="none" stroke="black" paint-order="fill stroke markers" d=" M 529.9499549953124 1362.2051687279998 L 803.390254166121 1362.2051687279998" stroke-miterlimit="10" stroke-width="1.2565541" stroke-dasharray=""/><g transform="translate(815.805008674121,1362.2051687279998) translate(-815.805008674121,-1362.2051687279998)"><path fill="black" stroke="none" paint-order="stroke fill markers" d=" M 803.239467674121 1355.9223982279998 L 815.805008674121 1362.2051687279998 L 803.239467674121 1368.4879392279997 Z"/></g></g><g><g><rect fill="white" stroke="none" x="611.9846926794238" y="1407.441116328" width="32.05692758470703" height="19.602243960000003"/></g><text fill="black" stroke="none" font-family="sans-serif" font-size="11pt" font-style="normal" font-weight="normal" text-decoration="normal" x="614.2464900594238" y="1421.011900608" text-anchor="start" dominant-baseline="alphabetic" xml:space="preserve">info</text></g><g><path fill="none" stroke="black" paint-order="fill stroke markers" d=" M 726.0763579482422 1427.0433602879998 L 531.8347861453124 1427.0433602879998" stroke-miterlimit="10" stroke-width="1.2565541" stroke-dasharray="6.03145968"/><g transform="translate(529.9499549953124,1427.0433602879998) translate(-529.9499549953124,-1427.0433602879998)"><path fill="none" stroke="black" paint-order="fill stroke markers" d=" M 542.8686421181316 1421.2802241474244 L 531.3625394865888 1427.0433602879998 L 542.8686421181316 1432.8064964285752" stroke-miterlimit="10" stroke-width="1.2565541"/></g></g><g><g><rect fill="white" stroke="none" x="392.4129794547167" y="1449.6613340879999" width="32.05692758470703" height="19.602243960000003"/></g><text fill="black" stroke="none" font-family="sans-serif" font-size="11pt" font-style="normal" font-weight="normal" text-decoration="normal" x="394.67477683471674" y="1463.2321183679999" text-anchor="start" dominant-baseline="alphabetic" xml:space="preserve">info</text></g><g><path fill="none" stroke="black" paint-order="fill stroke markers" d=" M 514.8713057953124 1469.2635780479998 L 303.8964118488281 1469.2635780479998" stroke-miterlimit="10" stroke-width="1.2565541" stroke-dasharray="6.03145968"/><g transform="translate(302.0115806988281,1469.2635780479998) translate(-302.0115806988281,-1469.2635780479998)"><path fill="none" stroke="black" paint-order="fill stroke markers" d=" M 314.9302678216472 1463.5004419074244 L 303.42416519010453 1469.2635780479998 L 314.9302678216472 1475.0267141885752" stroke-miterlimit="10" stroke-width="1.2565541"/></g></g><g><g><rect fill="white" stroke="none" x="140.38827339412111" y="1491.8815518479998" width="111.70692911058593" height="19.602243960000003"/></g><text fill="black" stroke="none" font-family="sans-serif" font-size="11pt" font-style="normal" font-weight="normal" text-decoration="normal" x="142.6500707741211" y="1505.4523361279998" text-anchor="start" dominant-baseline="alphabetic" xml:space="preserve">Call view page</text></g><g><path fill="none" stroke="black" paint-order="fill stroke markers" d=" M 286.9329314988281 1511.4837958079997 L 107.43537555 1511.4837958079997" stroke-miterlimit="10" stroke-width="1.2565541" stroke-dasharray=""/><g transform="translate(105.5505444,1511.4837958079997) translate(-105.5505444,-1511.4837958079997)"><path fill="none" stroke="black" paint-order="fill stroke markers" d=" M 118.46923152281911 1505.7206596674243 L 106.96312889127645 1511.4837958079997 L 118.46923152281911 1517.2469319485751" stroke-miterlimit="10" stroke-width="1.2565541"/></g></g><g><g/><path fill="none" stroke="black" paint-order="fill stroke markers" d=" M 15.078649200000001 192.10199080799998 L 913.8162284741211 192.10199080799998 L 913.8162284741211 1579.337717208 L 15.078649200000001 1579.337717208 L 15.078649200000001 192.10199080799998 Z" stroke-miterlimit="10" stroke-width="2.154092742857143" stroke-dasharray=""/><path fill="white" stroke="black" paint-order="fill stroke markers" d=" M 15.078649200000001 192.10199080799998 L 15.078649200000001 210.196369848 L 73.78594683706055 210.196369848 L 82.83313635706055 201.14918032799997 L 82.83313635706055 192.10199080799998 L 15.078649200000001 192.10199080799998" stroke-miterlimit="10" stroke-width="2.154092742857143" stroke-dasharray=""/><text fill="black" stroke="none" font-family="sans-serif" font-size="8.8pt" font-style="normal" font-weight="bold" text-decoration="normal" x="30.157298400000002" y="204.16491016799998" text-anchor="start" dominant-baseline="alphabetic" xml:space="preserve">loop</text><text fill="black" stroke="none" font-family="sans-serif" font-size="8.8pt" font-style="normal" font-weight="bold" text-decoration="normal" x="97.91178555706055" y="204.16491016799998" text-anchor="start" dominant-baseline="alphabetic" xml:space="preserve">[while invalid]</text></g><g><g/><path fill="none" stroke="black" paint-order="fill stroke markers" d=" M 52.7752722 232.81434364799998 L 786.3909547482422 232.81434364799998 L 786.3909547482422 484.6277852880001 L 52.7752722 484.6277852880001 L 52.7752722 232.81434364799998 Z" stroke-miterlimit="10" stroke-width="2.154092742857143" stroke-dasharray=""/><path fill="white" stroke="black" paint-order="fill stroke markers" d=" M 52.7752722 232.81434364799998 L 52.7752722 250.90872268799998 L 100.48256983706055 250.90872268799998 L 109.52975935706056 241.86153316799997 L 109.52975935706056 232.81434364799998 L 52.7752722 232.81434364799998" stroke-miterlimit="10" stroke-width="2.154092742857143" stroke-dasharray=""/><text fill="black" stroke="none" font-family="sans-serif" font-size="8.8pt" font-style="normal" font-weight="bold" text-decoration="normal" x="67.8539214" y="244.87726300799997" text-anchor="start" dominant-baseline="alphabetic" xml:space="preserve">alt</text><text fill="black" stroke="none" font-family="sans-serif" font-size="8.8pt" font-style="normal" font-weight="bold" text-decoration="normal" x="124.60840855706056" y="244.87726300799997" text-anchor="start" dominant-baseline="alphabetic" xml:space="preserve">[hasDependentField]</text></g><g><g/><path fill="none" stroke="black" paint-order="fill stroke markers" d=" M 45.2359476 611.2884385680001 L 347.2475282988281 611.2884385680001 L 347.2475282988281 694.221009168 L 45.2359476 694.221009168 L 45.2359476 611.2884385680001 Z" stroke-miterlimit="10" stroke-width="2.154092742857143" stroke-dasharray=""/><path fill="white" stroke="black" paint-order="fill stroke markers" d=" M 45.2359476 611.2884385680001 L 45.2359476 629.3828176080001 L 92.94324523706055 629.3828176080001 L 101.99043475706056 620.335628088 L 101.99043475706056 611.2884385680001 L 45.2359476 611.2884385680001" stroke-miterlimit="10" stroke-width="2.154092742857143" stroke-dasharray=""/><text fill="black" stroke="none" font-family="sans-serif" font-size="8.8pt" font-style="normal" font-weight="bold" text-decoration="normal" x="60.314596800000004" y="623.3513579280001" text-anchor="start" dominant-baseline="alphabetic" xml:space="preserve">alt</text><text fill="black" stroke="none" font-family="sans-serif" font-size="8.8pt" font-style="normal" font-weight="bold" text-decoration="normal" x="117.06908395706056" y="623.3513579280001" text-anchor="start" dominant-baseline="alphabetic" xml:space="preserve">[hasError]</text></g><g><g/><path fill="none" stroke="black" paint-order="fill stroke markers" d=" M 37.696623 759.059200728 L 898.737579274121 759.059200728 L 898.737579274121 1556.7197434079999 L 37.696623 1556.7197434079999 L 37.696623 759.059200728 Z" stroke-miterlimit="10" stroke-width="2.154092742857143" stroke-dasharray=""/><path fill="white" stroke="black" paint-order="fill stroke markers" d=" M 37.696623 759.059200728 L 37.696623 777.153579768 L 85.40392063706055 777.153579768 L 94.45111015706055 768.1063902479999 L 94.45111015706055 759.059200728 L 37.696623 759.059200728" stroke-miterlimit="10" stroke-width="2.154092742857143" stroke-dasharray=""/><text fill="black" stroke="none" font-family="sans-serif" font-size="8.8pt" font-style="normal" font-weight="bold" text-decoration="normal" x="52.7752722" y="771.122120088" text-anchor="start" dominant-baseline="alphabetic" xml:space="preserve">alt</text><text fill="black" stroke="none" font-family="sans-serif" font-size="8.8pt" font-style="normal" font-weight="bold" text-decoration="normal" x="109.52975935706056" y="771.122120088" text-anchor="start" dominant-baseline="alphabetic" xml:space="preserve">[hasError]</text><g><path fill="none" stroke="black" paint-order="fill stroke markers" d=" M 37.696623 841.9917713279999 L 898.737579274121 841.9917713279999" stroke-miterlimit="10" stroke-width="2.154092742857143" stroke-dasharray="3.7696623000000002"/></g><g/><text fill="black" stroke="none" font-family="sans-serif" font-size="8.8pt" font-style="normal" font-weight="bold" text-decoration="normal" x="109.52975935706056" y="854.0546906879999" text-anchor="start" dominant-baseline="alphabetic" xml:space="preserve">[!hasError]</text></g><g/><g><g/><path fill="none" stroke="black" paint-order="fill stroke markers" d=" M 52.7752722 967.1445596879998 L 883.658930074121 967.1445596879998 L 883.658930074121 1534.1017696079998 L 52.7752722 1534.1017696079998 L 52.7752722 967.1445596879998 Z" stroke-miterlimit="10" stroke-width="2.154092742857143" stroke-dasharray=""/><path fill="white" stroke="black" paint-order="fill stroke markers" d=" M 52.7752722 967.1445596879998 L 52.7752722 985.2389387279999 L 100.48256983706055 985.2389387279999 L 109.52975935706056 976.1917492079998 L 109.52975935706056 967.1445596879998 L 52.7752722 967.1445596879998" stroke-miterlimit="10" stroke-width="2.154092742857143" stroke-dasharray=""/><text fill="black" stroke="none" font-family="sans-serif" font-size="8.8pt" font-style="normal" font-weight="bold" text-decoration="normal" x="67.8539214" y="979.2074790479999" text-anchor="start" dominant-baseline="alphabetic" xml:space="preserve">alt</text><text fill="black" stroke="none" font-family="sans-serif" font-size="8.8pt" font-style="normal" font-weight="bold" text-decoration="normal" x="124.60840855706056" y="979.2074790479999" text-anchor="start" dominant-baseline="alphabetic" xml:space="preserve">[hasDatabaseError]</text><g><path fill="none" stroke="black" paint-order="fill stroke markers" d=" M 52.7752722 1134.517565808 L 883.658930074121 1134.517565808" stroke-miterlimit="10" stroke-width="2.154092742857143" stroke-dasharray="3.7696623000000002"/></g><g/><text fill="black" stroke="none" font-family="sans-serif" font-size="8.8pt" font-style="normal" font-weight="bold" text-decoration="normal" x="124.60840855706056" y="1146.580485168" text-anchor="start" dominant-baseline="alphabetic" xml:space="preserve">[!hasDatabaseError]</text></g><g/><g><g/><path fill="none" stroke="black" paint-order="fill stroke markers" d=" M 241.69698389882808 1175.229918648 L 868.5802808741211 1175.229918648 L 868.5802808741211 1384.8231425279998 L 241.69698389882808 1384.8231425279998 L 241.69698389882808 1175.229918648 Z" stroke-miterlimit="10" stroke-width="2.154092742857143" stroke-dasharray=""/><path fill="white" stroke="black" paint-order="fill stroke markers" d=" M 241.69698389882808 1175.229918648 L 241.69698389882808 1193.324297688 L 289.40428153588863 1193.324297688 L 298.45147105588865 1184.277108168 L 298.45147105588865 1175.229918648 L 241.69698389882808 1175.229918648" stroke-miterlimit="10" stroke-width="2.154092742857143" stroke-dasharray=""/><text fill="black" stroke="none" font-family="sans-serif" font-size="8.8pt" font-style="normal" font-weight="bold" text-decoration="normal" x="256.77563309882805" y="1187.292838008" text-anchor="start" dominant-baseline="alphabetic" xml:space="preserve">alt</text><text fill="black" stroke="none" font-family="sans-serif" font-size="8.8pt" font-style="normal" font-weight="bold" text-decoration="normal" x="313.5301202558886" y="1187.292838008" text-anchor="start" dominant-baseline="alphabetic" xml:space="preserve">[hasAttachments]</text></g></g><g/><g/><g/><g/><g/></g></svg>