<svg version="1.1" xmlns="http://www.w3.org/2000/svg" xmlns:xlink="http://www.w3.org/1999/xlink" width="912" height="581"><defs/><g><g/><g/><g/><g/><g/><g/><g/><g/><g><rect fill="white" stroke="none" x="0" y="0" width="912" height="581"/></g><g><text fill="black" stroke="none" font-family="sans-serif" font-size="16.5pt" font-style="normal" font-weight="normal" text-decoration="normal" x="393.64651637646483" y="22.6179738" text-anchor="start" dominant-baseline="alphabetic" xml:space="preserve">View Model</text></g><g/><g><path fill="none" stroke="black" paint-order="fill stroke markers" d=" M 75.393246 119.724474648 L 75.393246 581.1311401680001" stroke-miterlimit="10" stroke-width="1.2565541" stroke-dasharray="11.598960923076923,5.0262164"/><path fill="none" stroke="black" paint-order="fill stroke markers" d=" M 288.9482889976563 119.724474648 L 288.9482889976563 581.1311401680001" stroke-miterlimit="10" stroke-width="1.2565541" stroke-dasharray="11.598960923076923,5.0262164"/><path fill="none" stroke="black" paint-order="fill stroke markers" d=" M 603.3366755011718 119.724474648 L 603.3366755011718 581.1311401680001" stroke-miterlimit="10" stroke-width="1.2565541" stroke-dasharray="11.598960923076923,5.0262164"/><path fill="none" stroke="black" paint-order="fill stroke markers" d=" M 775.6583887258789 119.724474648 L 775.6583887258789 581.1311401680001" stroke-miterlimit="10" stroke-width="1.2565541" stroke-dasharray="11.598960923076923,5.0262164"/><path fill="none" stroke="black" paint-order="fill stroke markers" d=" M 865.3870394517578 119.724474648 L 865.3870394517578 581.1311401680001" stroke-miterlimit="10" stroke-width="1.2565541" stroke-dasharray="11.598960923076923,5.0262164"/></g><g><g><path fill="white" stroke="black" paint-order="fill stroke markers" d=" M 83.98807604400001 55.941788532 A 8.594830044 8.594830044 0 1 1 83.98807174658535 55.93319370338846 M 75.393246 64.536618576 L 75.393246 82.93257059999999 M 64.53661857600001 71.171224224 L 86.249873424 71.171224224 M 75.393246 82.93257059999999 L 64.53661857600001 100.122230688 M 75.393246 82.93257059999999 L 86.249873424 100.122230688" stroke-miterlimit="10" stroke-width="2.5633703640000003" stroke-dasharray=""/></g><g><g/><text fill="black" stroke="none" font-family="sans-serif" font-size="11pt" font-style="normal" font-weight="normal" text-decoration="normal" x="58.66824561853028" y="115.200879888" text-anchor="start" dominant-baseline="alphabetic" xml:space="preserve">User</text></g><g><path fill="white" stroke="black" paint-order="fill stroke markers" d=" M 318.8794076596563 76.448751444 A 22.391794062000002 22.391794062000002 0 1 1 318.87939646376014 76.42635965366995 M 260.29885551765625 52.775272199999996 L 260.29885551765625 100.122230688 M 259.01717033565626 76.448751444 L 274.09581953565623 76.448751444" stroke-miterlimit="10" stroke-width="2.5633703640000003" stroke-dasharray=""/></g><g><g/><text fill="black" stroke="none" font-family="sans-serif" font-size="11pt" font-style="normal" font-weight="normal" text-decoration="normal" x="256.5649538841309" y="115.200879888" text-anchor="start" dominant-baseline="alphabetic" xml:space="preserve">Frontend</text></g><g><path fill="white" stroke="black" paint-order="fill stroke markers" d=" M 625.7284695631719 76.448751444 A 22.391794062000002 22.391794062000002 0 1 1 625.7284583672757 76.42635965366995 M 600.3209456611719 54.05695738199999 L 609.3681351811719 46.51763278199999 M 600.3209456611719 54.05695738199999 L 609.3681351811719 61.596281981999994" stroke-miterlimit="10" stroke-width="2.5633703640000003" stroke-dasharray=""/></g><g><g/><text fill="black" stroke="none" font-family="sans-serif" font-size="11pt" font-style="normal" font-weight="normal" text-decoration="normal" x="571.9700087073486" y="115.200879888" text-anchor="start" dominant-baseline="alphabetic" xml:space="preserve">Backend</text></g><g><path fill="white" stroke="black" paint-order="fill stroke markers" d=" M 753.6435608938789 90.170322216 L 753.6435608938789 58.505158896 L 797.673216557879 58.505158896 L 797.673216557879 90.170322216" stroke-miterlimit="10" stroke-width="2.5633703640000003" stroke-dasharray=""/><path fill="white" stroke="black" paint-order="fill stroke markers" d=" M 797.673216557879 57.404417504399994 L 797.6721158256602 57.50393493047687 L 797.6688137390761 57.60344240489408 L 797.6633106283326 57.702929976987086 L 797.6556070437364 57.802387698081596 L 797.6457037556393 57.90180562248838 L 797.6336017543618 58.00117380849784 L 797.6193022500943 58.10048231937419 L 797.6028066727749 58.19972122434909 L 797.5841166719479 58.29888059961475 L 797.5632341165975 58.39795052931627 L 797.5401610949622 58.49692110654324 L 797.5148999143246 58.59578243432041 L 797.4874531007819 58.69452462659739 L 797.4578233989924 58.79313780923724 L 797.4260137719019 58.89161212100387 L 797.3920274004464 58.989937714548155 L 797.3558676832348 59.08810475739269 L 797.3175382362085 59.186103432915 L 797.2770428922805 59.28392394132919 L 797.2343857009513 59.38155650066594 L 797.1895709279045 59.478991347750664 L 797.1426030545801 59.576218739179865 L 797.0934867777264 59.67322895229542 L 797.0422270089299 59.77001228615685 L 796.9888288741249 59.86655906251143 L 796.9332977130805 59.96285962676197 L 796.8756390788664 60.0589043489323 L 796.8158587372978 60.15468362463025 L 796.7539626663594 60.250187876008056 L 796.6899570556064 60.345407552720175 L 796.6238483055469 60.440333132878266 L 796.5556430270004 60.53495512400344 L 796.4853480404381 60.62926406397542 L 796.4129703753002 60.72325052197881 L 796.3385172692928 60.816905099446124 L 796.2619961676643 60.910218430997666 L 796.1834147224613 61.00318118537804 L 796.1027807917628 61.09578406638928 L 796.0201024388947 61.18801781382044 L 795.9353879316233 61.27987320437365 L 795.8486457413287 61.3713410525864 L 795.7598845421577 61.46241221175009 L 795.6691132101563 61.5530775748247 L 795.576340822382 61.643328075349466 L 795.4815766559964 61.73315468834955 L 795.384830187337 61.822548431238516 L 795.28611109097 61.91150036471656 L 795.185429238723 62.00000159366446 L 795.0827946986972 62.08804326803307 L 794.978217734261 62.17561658372833 L 794.8717088030237 62.26271278349164 L 794.7632785557898 62.34932315777561 L 794.6529378354936 62.43543904561498 L 794.5406976761153 62.521051835492734 L 794.426569301577 62.60615296620123 L 794.3105641246214 62.690733927698304 L 794.1926937456692 62.774786261958305 L 794.0729699516603 62.85830156381783 L 793.9514047148742 62.941271481816315 L 793.8280101917334 63.02368771903109 L 793.7027987215872 63.1055420339071 L 793.5757828254784 63.186826241081086 L 793.4469752048909 63.26753221220006 L 793.3163887404792 63.34765187673417 L 793.184036490781 63.42717722278372 L 793.0499316909109 63.50610029788039 L 792.9140877512373 63.58441320978242 L 792.7765182560407 63.66210812726389 L 792.6372369621563 63.739177280897806 L 792.4962577975972 63.81561296383302 L 792.3535948601625 63.89140753256494 L 792.209262416027 63.96655340769984 L 792.0632748983147 64.04104307471285 L 791.915646905656 64.11486908469932 L 791.766393200727 64.1880240551198 L 791.6155287087737 64.26050067053818 L 791.4630685161196 64.33229168335333 L 791.3090278686572 64.4033899145238 L 791.1534221703226 64.47378825428571 L 790.996266981556 64.54347966286376 L 790.8375780177454 64.61245717117517 L 790.6773711476549 64.68071388152656 L 790.515662391838 64.74824296830381 L 790.3524679210356 64.8150376786545 L 790.1878040545586 64.88109133316327 L 790.0216872586565 64.9463973265197 L 789.8541341448705 65.01094912817888 L 789.6851614683725 65.07474028301444 L 789.5147861262891 65.13776441196404 L 789.3430251560126 65.20001521266732 L 789.1698957334969 65.2614864600961 L 788.99541517154 65.32217200717683 L 788.8196009180527 65.3820657854054 L 788.6424705543138 65.44116180545389 L 788.4640417932121 65.49945415776952 L 788.2843324774751 65.55693701316567 L 788.1033605778845 65.61360462340468 L 787.9211441914794 65.66945132177275 L 787.7377015397467 65.72447152364661 L 787.5530509667987 65.77865972705189 L 787.3672109375386 65.83201051321342 L 787.1802000358149 65.88451854709703 L 786.9920369625615 65.9361785779431 L 786.8027405339293 65.9869854397916 L 786.6123296794032 66.03693405199866 L 786.4208234399098 66.08601941974472 L 786.2282409659139 66.13423663453388 L 786.034601515502 66.18158087468484 L 785.839924452458 66.22804740581307 L 785.644229244326 66.27363158130416 L 785.4475354604635 66.31832884277853 L 785.2498627700853 66.3621347205473 L 785.0512309402955 66.40504483405921 L 784.8516598341116 66.44705489233864 L 784.6511694084779 66.48816069441477 L 784.4497797122699 66.52835812974169 L 784.2475108842895 66.56764317860932 L 784.0443831512506 66.60601191254551 L 783.8404168257576 66.64346049470888 L 783.635632304273 66.67998518027238 L 783.4300500650781 66.7155823167979 L 783.2236906662258 66.75024834460147 L 783.0165747434838 66.7839797971092 L 782.8087230082718 66.81677330120391 L 782.6001562455903 66.84862557756256 L 782.3908953119414 66.87953344098403 L 782.1809611332444 66.90949380070775 L 781.9703747027422 66.9385036607227 L 781.7591570789021 66.96656012006707 L 781.5473293833109 66.9936603731183 L 781.3349127985613 67.01980170987368 L 781.1219285661348 67.04498151622128 L 780.9083979842771 67.0691972742015 L 780.6943424058687 67.09244656225869 L 780.4797832362889 67.11472705548341 L 780.2647419312759 67.13603652584493 L 780.0492399947809 67.15637284241396 L 779.8332989768181 67.1757339715758 L 779.6169404713092 67.19411797723365 L 779.4001861139246 67.21152302100226 L 779.1830575799194 67.22794736239179 L 778.9655765819659 67.24338935898176 L 778.7477648679829 67.25784746658539 L 778.5296442189601 67.27132023940396 L 778.3112364467806 67.28380633017143 L 778.0925633920399 67.29530449028911 L 777.8736469218609 67.3058135699506 L 777.6545089277084 67.31533251825665 L 777.4351713231991 67.3238603833204 L 777.2156560419108 67.33139631236241 L 776.9959850351886 67.3379395517961 L 776.7761802699501 67.34348944730294 L 776.5562637264887 67.34804544389803 L 776.3362573962754 67.3516070859855 L 776.1161832797601 67.3541740174041 L 775.8960633841708 67.35574598146285 L 775.6759197213137 67.35632282096664 L 775.4557743053717 67.35590447823199 L 775.2356491507029 67.35449099509283 L 775.0155662696394 67.35208251289632 L 774.7955476702857 67.34867927248864 L 774.5756153543186 67.344281614191 L 774.3557913147864 67.33888997776559 L 774.1360975339098 67.33250490237154 L 773.9165559808838 67.32512702651107 L 773.6971886096808 67.31675708796561 L 773.478017356855 67.30739592372207 L 773.2590641393493 67.29704446988903 L 773.0403508523027 67.28570376160329 L 772.8218993668618 67.27337493292619 L 772.6037315279931 67.26005921673035 L 772.3858691522986 67.24575794457628 L 772.1683340258344 67.23047254657928 L 771.9511479019318 67.21420455126642 L 771.7343324990222 67.19695558542367 L 771.5179094984653 67.17872737393323 L 771.3019005423807 67.15952173960108 L 771.0863272314842 67.13934060297463 L 770.871211122927 67.11818598215072 L 770.6565737281409 67.09605999257383 L 770.4424365106862 67.07296484682446 L 770.2288208841065 67.04890285439795 L 770.0157482097865 67.02387642147347 L 769.8032397948157 66.99788805067348 L 769.5913168898588 66.9709403408134 L 769.3800006870297 66.94303598664175 L 769.1693123177724 66.91417777857069 L 768.9592728507486 66.884368602397 L 768.7499032897294 66.85361143901343 L 768.541224571497 66.82190936411071 L 768.333257563749 66.7892655478699 L 768.126023063013 66.75568325464543 L 767.9195417925663 66.72116584263863 L 767.7138344003639 66.68571676356193 L 767.5089214569737 66.6493395622937 L 767.3048234535191 66.61203787652377 L 767.1015607996305 66.57381543638961 L 766.8991538214038 66.5346760641034 L 766.6976227593683 66.49462367356972 L 766.4969877664621 66.4536622699943 L 766.2972689060174 66.4117959494833 L 766.0984861497537 66.36902889863394 L 765.9006593757812 66.32536539411564 L 765.7038083666122 66.28080980224246 L 765.5079528071838 66.23536657853647 L 765.3131122828884 66.18904026728217 L 765.1193062776164 66.14183550107207 L 764.9265541718066 66.09375700034346 L 764.734875240509 66.04480957290635 L 764.5442886514572 65.99499811346269 L 764.354813463151 65.9443276031169 L 764.1664686229516 65.89280310887783 L 763.9792729651858 65.84042978315193 L 763.7932452092635 65.78721286322815 L 763.6084039578053 65.73315767075412 L 763.4247676947823 65.67826961120406 L 763.2423547836678 65.62255417333817 L 763.0611834656008 65.56601692865381 L 762.8812718575622 65.50866353082833 L 762.7026379505629 65.45049971515373 L 762.5252996078447 65.3915312979631 L 762.349274563094 65.331764176049 L 762.1745804186688 65.27120432607386 L 762.0012346438378 65.20985780397217 L 761.8292545730342 65.14773074434505 L 761.6586574041215 65.08482935984667 L 761.4894601966746 65.02115994056305 L 761.3216798702733 64.9567288533831 L 761.1553332028102 64.89154254136182 L 760.9904368288137 64.82560752307609 L 760.8270072377836 64.7589303919728 L 760.6650607725429 64.69151781570949 L 760.5046136276031 64.62337653548761 L 760.345681847545 64.5545133653784 L 760.1882813254142 64.48493519164148 L 760.0324278011318 64.41464897203626 L 759.8781368599202 64.34366173512612 L 759.725423930745 64.27198057957558 L 759.574304284772 64.19961267344047 L 759.4247930338397 64.12656525345112 L 759.2769051289487 64.05284562428861 L 759.1306553587661 63.97846115785447 L 758.9860583481473 63.90341929253332 L 758.8431285566726 63.82772753244919 L 758.7018802772021 63.751393446714985 L 758.5623276344462 63.67442466867568 L 758.4244845835527 63.59682889514493 L 758.2883649087119 63.51861388563544 L 758.1539822217778 63.439787461582966 L 758.0213499609073 63.36035750556424 L 757.8904813892158 63.28033196050866 L 757.7613895934513 63.19971882890405 L 757.634087482686 63.118526171996386 L 757.5085877870248 63.03676210898371 L 757.3849030563326 62.95443481620418 L 757.2630456589796 62.87155252631846 L 757.143027780604 62.78812352748649 L 757.0248614228934 62.70415616253861 L 756.9085584023852 62.619658828141354 L 756.7941303492846 62.534639973957745 L 756.6815887063015 62.44910810180235 L 756.5709447275062 62.36307176479111 L 756.4622094772049 62.27653956648603 L 756.3553938288316 62.189520160034824 L 756.250508463862 62.102022247305634 L 756.1475638707457 62.014054578016804 L 756.0465703438558 61.92562594886197 L 755.9475379824611 61.83674520263035 L 755.850476689715 61.7474212273225 L 755.755396171666 61.657662955261515 L 755.6623059362867 61.567479362199805 L 755.5712152925229 61.47687946642152 L 755.4821333493633 61.38587232784074 L 755.3950690149277 61.29446704709548 L 755.3100309955773 61.202672764637654 L 755.227027795043 61.110498659819 L 755.1460677135756 61.017953949973204 L 755.067158847116 60.92504788949412 L 754.9903090864849 60.83178976891037 L 754.9155261165945 60.7381889139563 L 754.8428174156793 60.644254684639414 L 754.7721902545488 60.54999647430436 L 754.7036516958605 60.455423708693615 L 754.6372085934129 60.36054584500494 L 754.5728675914609 60.26537237094564 L 754.5106351240511 60.16991280378381 L 754.4505174143785 60.07417668939661 L 754.3925204741638 59.9781736013157 L 754.3366501030529 59.88191313976989 L 754.2829118880362 59.785404930725115 L 754.2313112028903 59.68865862492186 L 754.181853207641 59.59168389691008 L 754.1345428480465 59.494490444081755 L 754.0893848551032 59.3970879857012 L 754.046383744573 59.299486261933055 L 754.0055438165308 59.20169503286838 L 753.9668691549357 59.103724077548584 L 753.9303636272214 59.00558319298756 L 753.8960308839104 58.907282193191975 L 753.8638743582484 58.80883090817989 L 753.833897265861 58.710239182997775 L 753.8061026044327 58.611516876735976 L 753.7804931534063 58.51267386154286 L 753.7570714737057 58.41372002163757 L 753.7358399074792 58.31466525232164 L 753.7168005778658 58.215519458989455 L 753.6999553887827 58.11629255613773 L 753.6853060247346 58.01699446637406 L 753.6728539506457 57.917635119424666 L 753.6626004117132 57.818224451141454 L 753.6545464332823 57.7187724025084 L 753.6486928207444 57.6192889186475 L 753.6450401594554 57.51978394782424 L 753.6435888146788 57.42026744045276 L 753.6443389315476 57.3207493481009 L 753.647290435051 57.221239622494934 L 753.6524430300408 57.12174821452452 L 753.6597962012621 57.02228507324753 L 753.6693492134036 56.92286014489522 L 753.6811011111723 56.82348337187756 L 753.6950507193882 56.72416469178904 L 753.711196643102 56.62491403641491 L 753.7295372677347 56.52574133073799 L 753.7500707592393 56.42665649194621 L 753.7727950642837 56.32766942844088 L 753.7977079104563 56.22879003884586 L 753.8248068064934 56.1300282110177 L 753.8540890425277 56.031393821056895 L 753.8855516903601 55.932896732320245 L 753.9191916037522 55.83454679443454 L 753.9550054187405 55.73635384231161 L 753.9929895539735 55.63832769516483 L 754.0331402110692 55.54047815552725 L 754.0754533749954 55.442815008271275 L 754.119924814471 55.34534801963025 L 754.1665500823891 55.24808693622182 L 754.2153245162617 55.15104148407327 L 754.2662432386861 55.054221367648935 L 754.3193011578325 54.957636268879796 L 754.3744929679532 54.861295846195226 L 754.4318131499131 54.76520973355722 L 754.4912559717419 54.66938753949697 L 754.5528154892069 54.57383884615402 L 754.6164855464076 54.47857320831808 L 754.6822597763914 54.38360015247356 L 754.7501316017903 54.288929175846896 L 754.8200942354779 54.19456974545685 L 754.8921406812493 54.10053129716784 L 754.9662637345202 54.00682323474632 L 755.0424559830467 53.913454928920444 L 755.1207098076677 53.820435716442994 L 755.2010173830658 53.7277748991577 L 755.2833706785505 53.635481743069064 L 755.3677614588607 53.5435654774158 L 755.4541812849889 53.45203529374787 L 755.5426215150243 53.36090034500735 L 755.6330733050178 53.2701697446132 L 755.7255276098656 53.17985256554982 L 755.8199751842144 53.08995783945988 L 755.9164065833854 53.00049455574105 L 756.014812164319 52.911471660647166 L 756.1151820865392 52.82289805639355 L 756.2175063131374 52.73478260026681 L 756.3217746117762 52.64713410373914 L 756.4279765557126 52.55996133158715 L 756.5361015248407 52.4732730010154 L 756.6461387067537 52.387077780784715 L 756.7580770978252 52.30138429034529 L 756.8719055043093 52.21620109897476 L 756.9876125434602 52.13153672492127 L 757.1051866446703 52.047399634551674 L 757.2246160506277 51.963798241504904 L 757.3458888184912 51.88074090585058 L 757.468992821085 51.79823593325307 L 757.5939157481115 51.71629157414086 L 757.7206451073821 51.6349160228816 L 757.8491682260665 51.55411741696258 L 757.9794722519599 51.47390383617708 L 758.1115441547684 51.394283301816316 L 758.2453707274116 51.315263775867386 L 758.3809385873438 51.23685316021703 L 758.5182341778922 51.159059295861475 L 758.6572437696118 51.081889962122325 L 758.7979534616595 51.005352875868645 L 758.9403491831833 50.92945569074528 L 759.0844166947298 50.8542059964075 L 759.2301415896677 50.77961131776203 L 759.3775092956292 50.70567911421457 L 759.5265050759663 50.63241677892386 L 759.6771140312252 50.559831638062384 L 759.8293211006359 50.487930950083744 L 759.9831110636183 50.41672190499681 L 760.1384685413042 50.34621162364676 L 760.2953779980753 50.276407157002964 L 760.4538237431167 50.207315485453925 L 760.6137899319859 50.13894351810921 L 760.7752605681975 50.071298092108584 L 760.9382195048223 50.00438597193828 L 761.1026504461024 49.938213848754536 L 761.2685369490807 49.87278833971455 L 761.4358624252452 49.80811598731469 L 761.6046101421878 49.74420325873631 L 761.7747632252772 49.68105654519901 L 761.946304659347 49.61868216132152 L 762.1192172903968 49.557086344490244 L 762.2934838273076 49.496275254235535 L 762.4690868435708 49.436254971615746 L 762.6460087790311 49.37703149860913 L 762.8242319416427 49.31861075751362 L 763.0037385092375 49.260998590354646 L 763.1845105313084 49.20420075830092 L 763.366529930804 49.148222941088314 L 763.5497785059358 49.0930707364519 L 763.7342379319992 49.03874965956618 L 763.9198897632052 48.985265142493574 L 764.1067154345255 48.93262253364123 L 764.2946962635485 48.880827097226145 L 764.483813452348 48.82988401274882 L 764.6740480893628 48.779798374475234 L 764.8653811512877 48.73057519092748 L 765.0577935049758 48.6822193843829 L 765.2512659093522 48.634735790381846 L 765.4457790173377 48.58812915724415 L 765.6413133777836 48.54240414559428 L 765.8378494374168 48.497565327895316 L 766.0353675427951 48.45361718799164 L 766.2338479422725 48.41056412066064 L 766.4332707879745 48.36841043117315 L 766.6336161377827 48.32716033486301 L 766.8348639573292 48.28681795670546 L 767.0369941219996 48.247387330904715 L 767.2399864189458 48.20887240049048 L 767.4438205491075 48.17127701692371 L 767.6484761292413 48.13460493971143 L 767.85393269396 48.0988598360308 L 768.0601696977782 48.06404528036239 L 768.2671665171673 48.030164754132784 L 768.4749024526179 47.997221645366345 L 768.6833567307098 47.96521924834651 L 768.8925085061885 47.9341607632863 L 769.102336864051 47.90404929600835 L 769.3128208216365 47.87488785763429 L 769.5239393307243 47.846679364283666 L 769.7356712796396 47.819426636782296 L 769.947995495364 47.793132400380216 L 770.1608907456528 47.76779928447917 L 770.3743357411583 47.74342982236962 L 770.588309137559 47.72002645097748 L 770.8027895376935 47.69759151062038 L 771.0177554937004 47.67612724477367 L 771.2331855091634 47.65563579984603 L 771.4490580412604 47.636119224964894 L 771.665351502918 47.61757947177148 L 771.8820442649705 47.60001839422566 L 772.0991146583222 47.58343774842055 L 772.3165409761145 47.567839192406915 L 772.534301475897 47.55322428602736 L 772.752374381801 47.53959449076034 L 772.9707378867178 47.52695116957402 L 773.1893701544788 47.515295586789996 L 773.4082493220394 47.50462890795682 L 773.6273535016653 47.4949521997335 L 773.8466607831211 47.48626642978277 L 774.0661492358614 47.47857246667442 L 774.2857969112239 47.47187107979833 L 774.505581844624 47.4661629392876 L 774.7254820577515 47.46144861595154 L 774.9454755607684 47.45772858121853 L 775.1655403545078 47.45500320708897 L 775.3856544326736 47.45327276609799 L 775.6057957840414 47.45253743128824 L 775.8259423946596 47.4527972761926 L 776.0460722500505 47.45405227482679 L 776.2661633374121 47.45630230169199 L 776.486193647819 47.4595471317874 L 776.7061411784235 47.4637864406327 L 776.925983934656 47.46901980430055 L 777.1456999324239 47.475246699458935 L 777.3652672003105 47.48246650342354 L 777.5846637817721 47.49067849421997 L 777.8038677373333 47.499881850656 L 778.0228571467812 47.51007565240366 L 778.2416101113575 47.52125888009125 L 778.4601047559479 47.533430415405334 L 778.67831923127 47.54658904120252 L 778.8962317160583 47.56073344163121 L 779.1138204192457 47.575862202263124 L 779.3310635821432 47.59197381023482 L 779.5479394806157 47.609066654398916 L 779.764426427254 47.62713902548525 L 779.9805027735439 47.64618911627178 L 780.1961469120307 47.66621502176528 L 780.4113372784803 47.687214739391905 L 780.6260523540356 47.709186169197395 L 780.8402706673676 47.732127114057064 L 781.0539707968237 47.756035279895556 L 781.2671313725691 47.78090827591621 L 781.4797310787237 47.806743614840144 L 781.6917486554942 47.833538713155 L 781.9031629012994 47.86129089137327 L 782.113952674891 47.88999737430027 L 782.3240968974675 47.91965529131163 L 782.5335745547815 47.950261676640345 L 782.7423646992419 47.9818134696734 L 782.9504464520081 48.014307515257784 L 783.1577990050786 48.047740564016024 L 783.3644016233706 48.08210927267109 L 783.5702336467945 48.11741020438076 L 783.7752744923195 48.1536398290813 L 783.9795036560319 48.1907945238404 L 784.1829007151855 48.228870573219574 L 784.3854453302439 48.2678641696456 L 784.5871172469144 48.30777141379133 L 784.7878962981735 48.34858831496561 L 784.9877624062831 48.39031079151233 L 785.1866955847992 48.43293467121861 L 785.3846759405695 48.476455691732 L 785.5816836757238 48.520869500986706 L 785.7776990896523 48.56617165763883 L 785.9727025809772 48.61235763151045 L 786.1666746495118 48.65942280404266 L 786.359595898211 48.70736246875744 L 786.5514470351105 48.75617183172826 L 786.7422088752567 48.8058460120595 L 786.9318623426243 48.85638004237452 L 787.1203884720248 48.907768869312406 L 787.3077684110025 48.96000735403328 L 787.4939834217192 49.01309027273221 L 787.6790148828295 49.06701231716155 L 787.8628442913412 49.1217680951618 L 788.0454532644667 49.17735213120079 L 788.2268235414608 49.23375886692124 L 788.406936985447 49.290982661696574 L 788.5857755852311 49.34901779319501 L 788.7633214571019 49.407858457951754 L 788.9395568466205 49.467498771949366 L 789.1144641303945 49.52793277120614 L 789.2880258178415 49.58915441237252 L 789.4602245529372 49.65115757333541 L 789.6310431159518 49.71393605383038 L 789.8004644251711 49.777483576061684 L 789.9684715386056 49.841793785330076 L 790.1350476556838 49.9068602506682 L 790.3001761189329 49.97267646548376 L 790.4638404156441 50.03923584821011 L 790.6260241795242 50.10653174296445 L 790.7867111923318 50.17455742021338 L 790.9458853854998 50.24330607744587 L 791.1035308417413 50.31277083985348 L 791.2596317966422 50.38294476101786 L 791.414172640237 50.45382082360537 L 791.5671379185701 50.525391940068815 L 791.7185123352411 50.59765095335619 L 791.8682807529347 50.67059063762638 L 792.0164281949337 50.744203698971745 L 792.1629398466175 50.81848277614749 L 792.3078010569429 50.89342044130781 L 792.4509973399097 50.969009200748616 L 792.5925143760089 51.045241495656974 L 792.7323380136548 51.12210970286691 L 792.8704542706002 51.19960613562175 L 793.0068493353344 51.277723044342814 L 793.1415095684648 51.35645261740432 L 793.27442150408 51.435786981914575 L 793.4055718510974 51.51571820450324 L 793.5349474945916 51.596238292114656 L 793.662535497106 51.67733919280717 L 793.7883230999466 51.759012796558295 L 793.9122977244582 51.84125093607571 L 794.0344469732813 51.92404538761401 L 794.1547586315932 52.007387871797015 L 794.2732206683279 52.09127005444578 L 794.3898212373807 52.17568354741193 L 794.5045486787919 52.26061990941651 L 794.6173915199129 52.34607064689411 L 794.7283384765535 52.432027214842186 L 794.8373784541106 52.51848101767557 L 794.9445005486775 52.605423410086026 L 795.0496940481337 52.69284569790677 L 795.152948433217 52.78073913898186 L 795.2542533785751 52.86909494404044 L 795.3535987537977 52.957904277575636 L 795.4509746244302 53.0471582587281 L 795.5463712529664 53.136847962174095 L 795.6397790998234 53.22696441901801 L 795.731188824294 53.31749861768927 L 795.820591285482 53.408441504843445 L 795.9079775432159 53.49978398626761 L 795.9933388589426 53.59151692778973 L 796.0766666966017 53.68363115619211 L 796.157952723479 53.77611746012866 L 796.2371888110395 53.868966591046075 L 796.3143670357402 53.96216926410862 L 796.3894796798234 54.05571615912666 L 796.462519232087 54.149597921488656 L 796.5334783886366 54.243805163096596 L 796.6023500536159 54.33832846330484 L 796.6691273399156 54.43315836986213 L 796.7338035698627 54.52828539985682 L 796.7963722758883 54.623700040665206 L 796.8568272011738 54.719392750902706 L 796.9151623002771 54.815353961378044 L 796.9713717397369 54.91157407605014 L 797.025449898656 55.0080434729877 L 797.0773913692638 55.10475250533143 L 797.1271909574562 55.20169150225869 L 797.1748436833161 55.29885076995057 L 797.2203447816106 55.39622059256126 L 797.2636897022677 55.49379123318963 L 797.3048741108315 55.591552934852956 L 797.3438938888956 55.68949592146251 L 797.3807451345145 55.78761039880126 L 797.4154241625945 55.88588655550324 L 797.4479275052616 55.98431456403467 L 797.4782519122087 56.08288458167672 L 797.5063943510203 56.18158675150977 L 797.532352007476 56.28041120339909 L 797.5561222858317 56.37934805498184 L 797.5777028090796 56.47838741265531 L 797.5970914191852 56.57751937256626 L 797.6142861773035 56.67673402160132 L 797.6292853639733 56.77602143837825 L 797.6420874792883 56.87537169423813 L 797.6526912430477 56.974774854238156 L 797.6610955948838 57.074220978145156 L 797.6672996943686 57.173700121429626 L 797.6713029210972 57.27320233626013 L 797.6731048747503 57.3727176724981 M 797.673216557879 89.0695808244 L 797.6721158256602 89.16909825047689 L 797.6688137390761 89.26860572489409 L 797.6633106283326 89.3680932969871 L 797.6556070437364 89.46755101808161 L 797.6457037556393 89.56696894248839 L 797.6336017543618 89.66633712849786 L 797.6193022500943 89.7656456393742 L 797.6028066727749 89.86488454434911 L 797.5841166719479 89.96404391961477 L 797.5632341165975 90.06311384931628 L 797.5401610949622 90.16208442654325 L 797.5148999143246 90.26094575432042 L 797.4874531007819 90.3596879465974 L 797.4578233989924 90.45830112923726 L 797.4260137719019 90.55677544100388 L 797.3920274004464 90.65510103454817 L 797.3558676832348 90.7532680773927 L 797.3175382362085 90.85126675291501 L 797.2770428922805 90.9490872613292 L 797.2343857009513 91.04671982066594 L 797.1895709279045 91.14415466775068 L 797.1426030545801 91.24138205917988 L 797.0934867777264 91.33839227229542 L 797.0422270089299 91.43517560615686 L 796.9888288741249 91.53172238251143 L 796.9332977130805 91.62802294676199 L 796.8756390788664 91.72406766893232 L 796.8158587372978 91.81984694463027 L 796.7539626663594 91.91535119600807 L 796.6899570556064 92.01057087272018 L 796.6238483055469 92.10549645287828 L 796.5556430270004 92.20011844400345 L 796.4853480404381 92.29442738397543 L 796.4129703753002 92.38841384197882 L 796.3385172692928 92.48206841944614 L 796.2619961676643 92.57538175099768 L 796.1834147224613 92.66834450537806 L 796.1027807917628 92.76094738638929 L 796.0201024388947 92.85318113382046 L 795.9353879316233 92.94503652437366 L 795.8486457413287 93.0365043725864 L 795.7598845421577 93.1275755317501 L 795.6691132101563 93.2182408948247 L 795.576340822382 93.30849139534948 L 795.4815766559964 93.39831800834956 L 795.384830187337 93.48771175123852 L 795.28611109097 93.57666368471656 L 795.185429238723 93.66516491366447 L 795.0827946986972 93.75320658803308 L 794.978217734261 93.84077990372833 L 794.8717088030237 93.92787610349166 L 794.7632785557898 94.01448647777562 L 794.6529378354936 94.10060236561499 L 794.5406976761153 94.18621515549275 L 794.426569301577 94.27131628620124 L 794.3105641246214 94.35589724769832 L 794.1926937456692 94.43994958195832 L 794.0729699516603 94.52346488381785 L 793.9514047148742 94.60643480181633 L 793.8280101917334 94.68885103903109 L 793.7027987215872 94.77070535390712 L 793.5757828254784 94.8519895610811 L 793.4469752048909 94.93269553220007 L 793.3163887404792 95.01281519673418 L 793.184036490781 95.09234054278373 L 793.0499316909109 95.1712636178804 L 792.9140877512373 95.24957652978243 L 792.7765182560407 95.32727144726391 L 792.6372369621563 95.40434060089783 L 792.4962577975972 95.48077628383304 L 792.3535948601625 95.55657085256495 L 792.209262416027 95.63171672769985 L 792.0632748983147 95.70620639471286 L 791.915646905656 95.78003240469934 L 791.766393200727 95.8531873751198 L 791.6155287087737 95.92566399053818 L 791.4630685161196 95.99745500335334 L 791.3090278686572 96.06855323452382 L 791.1534221703226 96.13895157428573 L 790.996266981556 96.20864298286378 L 790.8375780177454 96.27762049117517 L 790.6773711476549 96.34587720152658 L 790.515662391838 96.41340628830382 L 790.3524679210356 96.48020099865451 L 790.1878040545586 96.54625465316329 L 790.0216872586565 96.6115606465197 L 789.8541341448705 96.67611244817888 L 789.6851614683725 96.73990360301444 L 789.5147861262891 96.80292773196405 L 789.3430251560126 96.86517853266734 L 789.1698957334969 96.92664978009611 L 788.99541517154 96.98733532717685 L 788.8196009180527 97.0472291054054 L 788.6424705543138 97.10632512545389 L 788.4640417932121 97.16461747776954 L 788.2843324774751 97.22210033316568 L 788.1033605778845 97.27876794340469 L 787.9211441914794 97.33461464177277 L 787.7377015397467 97.38963484364662 L 787.5530509667987 97.4438230470519 L 787.3672109375386 97.49717383321342 L 787.1802000358149 97.54968186709704 L 786.9920369625615 97.60134189794312 L 786.8027405339293 97.6521487597916 L 786.6123296794032 97.70209737199868 L 786.4208234399098 97.75118273974472 L 786.2282409659139 97.79939995453388 L 786.034601515502 97.84674419468486 L 785.839924452458 97.89321072581308 L 785.644229244326 97.93879490130416 L 785.4475354604635 97.98349216277855 L 785.2498627700853 98.02729804054732 L 785.0512309402955 98.07020815405922 L 784.8516598341116 98.11221821233865 L 784.6511694084779 98.15332401441479 L 784.4497797122699 98.1935214497417 L 784.2475108842895 98.23280649860932 L 784.0443831512506 98.27117523254553 L 783.8404168257576 98.30862381470888 L 783.635632304273 98.34514850027239 L 783.4300500650781 98.38074563679791 L 783.2236906662258 98.41541166460149 L 783.0165747434838 98.4491431171092 L 782.8087230082718 98.48193662120391 L 782.6001562455903 98.51378889756256 L 782.3908953119414 98.54469676098404 L 782.1809611332444 98.57465712070776 L 781.9703747027422 98.60366698072272 L 781.7591570789021 98.63172344006709 L 781.5473293833109 98.65882369311832 L 781.3349127985613 98.6849650298737 L 781.1219285661348 98.7101448362213 L 780.9083979842771 98.73436059420152 L 780.6943424058687 98.75760988225869 L 780.4797832362889 98.77989037548343 L 780.2647419312759 98.80119984584495 L 780.0492399947809 98.82153616241398 L 779.8332989768181 98.8408972915758 L 779.6169404713092 98.85928129723365 L 779.4001861139246 98.87668634100228 L 779.1830575799194 98.89311068239181 L 778.9655765819659 98.90855267898178 L 778.7477648679829 98.92301078658541 L 778.5296442189601 98.93648355940398 L 778.3112364467806 98.94896965017145 L 778.0925633920399 98.96046781028913 L 777.8736469218609 98.9709768899506 L 777.6545089277084 98.98049583825666 L 777.4351713231991 98.9890237033204 L 777.2156560419108 98.99655963236242 L 776.9959850351886 99.0031028717961 L 776.7761802699501 99.00865276730295 L 776.5562637264887 99.01320876389804 L 776.3362573962754 99.01677040598551 L 776.1161832797601 99.01933733740412 L 775.8960633841708 99.02090930146286 L 775.6759197213137 99.02148614096664 L 775.4557743053717 99.021067798232 L 775.2356491507029 99.01965431509285 L 775.0155662696394 99.01724583289632 L 774.7955476702857 99.01384259248866 L 774.5756153543186 99.00944493419102 L 774.3557913147864 99.00405329776561 L 774.1360975339098 98.99766822237156 L 773.9165559808838 98.99029034651109 L 773.6971886096808 98.98192040796563 L 773.478017356855 98.97255924372207 L 773.2590641393493 98.96220778988905 L 773.0403508523027 98.95086708160329 L 772.8218993668618 98.93853825292621 L 772.6037315279931 98.92522253673036 L 772.3858691522986 98.91092126457629 L 772.1683340258344 98.8956358665793 L 771.9511479019318 98.87936787126644 L 771.7343324990222 98.86211890542369 L 771.5179094984653 98.84389069393325 L 771.3019005423807 98.8246850596011 L 771.0863272314842 98.80450392297463 L 770.871211122927 98.78334930215074 L 770.6565737281409 98.76122331257385 L 770.4424365106862 98.73812816682448 L 770.2288208841065 98.71406617439796 L 770.0157482097865 98.6890397414735 L 769.8032397948157 98.6630513706735 L 769.5913168898588 98.6361036608134 L 769.3800006870297 98.60819930664177 L 769.1693123177724 98.57934109857071 L 768.9592728507486 98.54953192239701 L 768.7499032897294 98.51877475901345 L 768.541224571497 98.48707268411073 L 768.333257563749 98.45442886786992 L 768.126023063013 98.42084657464544 L 767.9195417925663 98.38632916263863 L 767.7138344003639 98.35088008356193 L 767.5089214569737 98.31450288229371 L 767.3048234535191 98.27720119652378 L 767.1015607996305 98.23897875638961 L 766.8991538214038 98.1998393841034 L 766.6976227593683 98.15978699356974 L 766.4969877664621 98.1188255899943 L 766.2972689060174 98.07695926948332 L 766.0984861497537 98.03419221863396 L 765.9006593757812 97.99052871411565 L 765.7038083666122 97.94597312224248 L 765.5079528071838 97.90052989853648 L 765.3131122828884 97.85420358728217 L 765.1193062776164 97.80699882107207 L 764.9265541718066 97.75892032034346 L 764.734875240509 97.70997289290635 L 764.5442886514572 97.66016143346269 L 764.354813463151 97.60949092311692 L 764.1664686229516 97.55796642887785 L 763.9792729651858 97.50559310315195 L 763.7932452092635 97.45237618322817 L 763.6084039578053 97.39832099075414 L 763.4247676947823 97.34343293120408 L 763.2423547836678 97.28771749333818 L 763.0611834656008 97.23118024865381 L 762.8812718575622 97.17382685082835 L 762.7026379505629 97.11566303515374 L 762.5252996078447 97.0566946179631 L 762.349274563094 96.99692749604901 L 762.1745804186688 96.93636764607388 L 762.0012346438378 96.87502112397219 L 761.8292545730342 96.81289406434506 L 761.6586574041215 96.74999267984667 L 761.4894601966746 96.68632326056307 L 761.3216798702733 96.62189217338312 L 761.1553332028102 96.55670586136183 L 760.9904368288137 96.4907708430761 L 760.8270072377836 96.4240937119728 L 760.6650607725429 96.3566811357095 L 760.5046136276031 96.28853985548761 L 760.345681847545 96.21967668537842 L 760.1882813254142 96.1500985116415 L 760.0324278011318 96.07981229203628 L 759.8781368599202 96.00882505512612 L 759.725423930745 95.93714389957559 L 759.574304284772 95.86477599344049 L 759.4247930338397 95.79172857345112 L 759.2769051289487 95.71800894428863 L 759.1306553587661 95.64362447785447 L 758.9860583481473 95.56858261253333 L 758.8431285566726 95.4928908524492 L 758.7018802772021 95.41655676671499 L 758.5623276344462 95.33958798867569 L 758.4244845835527 95.26199221514494 L 758.2883649087119 95.18377720563545 L 758.1539822217778 95.10495078158299 L 758.0213499609073 95.02552082556426 L 757.8904813892158 94.94549528050867 L 757.7613895934513 94.86488214890406 L 757.634087482686 94.7836894919964 L 757.5085877870248 94.70192542898371 L 757.3849030563326 94.61959813620419 L 757.2630456589796 94.53671584631847 L 757.143027780604 94.4532868474865 L 757.0248614228934 94.36931948253863 L 756.9085584023852 94.28482214814137 L 756.7941303492846 94.19980329395776 L 756.6815887063015 94.11427142180236 L 756.5709447275062 94.02823508479112 L 756.4622094772049 93.94170288648604 L 756.3553938288316 93.85468348003484 L 756.250508463862 93.76718556730565 L 756.1475638707457 93.67921789801682 L 756.0465703438558 93.59078926886198 L 755.9475379824611 93.50190852263036 L 755.850476689715 93.41258454732251 L 755.755396171666 93.32282627526152 L 755.6623059362867 93.23264268219981 L 755.5712152925229 93.14204278642153 L 755.4821333493633 93.05103564784075 L 755.3950690149277 92.9596303670955 L 755.3100309955773 92.86783608463767 L 755.227027795043 92.77566197981902 L 755.1460677135756 92.68311726997321 L 755.067158847116 92.59021120949413 L 754.9903090864849 92.49695308891037 L 754.9155261165945 92.40335223395631 L 754.8428174156793 92.30941800463943 L 754.7721902545488 92.21515979430437 L 754.7036516958605 92.12058702869363 L 754.6372085934129 92.02570916500495 L 754.5728675914609 91.93053569094566 L 754.5106351240511 91.83507612378382 L 754.4505174143785 91.73934000939661 L 754.3925204741638 91.64333692131571 L 754.3366501030529 91.5470764597699 L 754.2829118880362 91.45056825072513 L 754.2313112028903 91.35382194492188 L 754.181853207641 91.25684721691009 L 754.1345428480465 91.15965376408177 L 754.0893848551032 91.06225130570121 L 754.046383744573 90.96464958193306 L 754.0055438165308 90.86685835286839 L 753.9668691549357 90.7688873975486 L 753.9303636272214 90.67074651298756 L 753.8960308839104 90.57244551319198 L 753.8638743582484 90.4739942281799 L 753.833897265861 90.37540250299779 L 753.8061026044327 90.276680196736 L 753.7804931534063 90.17783718154287 L 753.7570714737057 90.07888334163758 L 753.7358399074792 89.97982857232165 L 753.7168005778658 89.88068277898947 L 753.6999553887827 89.78145587613774 L 753.6853060247346 89.68215778637406 L 753.6728539506457 89.58279843942468 L 753.6626004117132 89.48338777114147 L 753.6545464332823 89.38393572250841 L 753.6486928207444 89.28445223864752 L 753.6450401594554 89.18494726782424 L 753.6435888146788 89.08543076045278" stroke-miterlimit="10" stroke-width="2.5633703640000003" stroke-dasharray=""/></g><g><g/><text fill="black" stroke="none" font-family="sans-serif" font-size="11pt" font-style="normal" font-weight="normal" text-decoration="normal" x="740.6583887258789" y="115.200879888" text-anchor="start" dominant-baseline="alphabetic" xml:space="preserve">Database</text></g><g><path fill="white" stroke="black" paint-order="fill stroke markers" d=" M 887.7788335137578 74.3980551528 A 22.391794062000002 22.391794062000002 0 1 1 887.7788223178617 74.37566336246995 M 841.7135602077577 98.840545506 L 889.0605186957579 98.840545506" stroke-miterlimit="10" stroke-width="2.5633703640000003" stroke-dasharray=""/></g><g><g/><text fill="black" stroke="none" font-family="sans-serif" font-size="11pt" font-style="normal" font-weight="normal" text-decoration="normal" x="825.7370379258789" y="115.200879888" text-anchor="start" dominant-baseline="alphabetic" xml:space="preserve">FileSystem</text></g></g><g><path fill="white" stroke="black" paint-order="fill stroke markers" d=" M 67.8539214 127.263799248 L 82.9325706 127.263799248 L 82.9325706 169.484017008 L 67.8539214 169.484017008 L 67.8539214 127.263799248" stroke-miterlimit="10" stroke-width="1.2565541" stroke-dasharray=""/><path fill="white" stroke="black" paint-order="fill stroke markers" d=" M 281.4089643976563 169.484017008 L 296.48761359765626 169.484017008 L 296.48761359765626 528.3558679680001 L 281.4089643976563 528.3558679680001 L 281.4089643976563 169.484017008" stroke-miterlimit="10" stroke-width="1.2565541" stroke-dasharray=""/><path fill="white" stroke="black" paint-order="fill stroke markers" d=" M 595.7973509011719 211.704234768 L 610.8760001011718 211.704234768 L 610.8760001011718 486.13565020800013 L 595.7973509011719 486.13565020800013 L 595.7973509011719 211.704234768" stroke-miterlimit="10" stroke-width="1.2565541" stroke-dasharray=""/><path fill="white" stroke="black" paint-order="fill stroke markers" d=" M 768.1190641258789 401.6952146880001 L 783.1977133258789 401.6952146880001 L 783.1977133258789 443.9154324480001 L 768.1190641258789 443.9154324480001 L 768.1190641258789 401.6952146880001" stroke-miterlimit="10" stroke-width="1.2565541" stroke-dasharray=""/><g><g><rect fill="white" stroke="none" x="118.70063805706054" y="149.88177304799999" width="126.94025888353515" height="19.602243960000003"/></g><text fill="black" stroke="none" font-family="sans-serif" font-size="11pt" font-style="normal" font-weight="normal" text-decoration="normal" x="120.96243543706055" y="163.45255732799998" text-anchor="start" dominant-baseline="alphabetic" xml:space="preserve">Clicks view page</text></g><g><path fill="none" stroke="black" paint-order="fill stroke markers" d=" M 82.9325706 169.484017008 L 268.9942098896563 169.484017008" stroke-miterlimit="10" stroke-width="1.2565541" stroke-dasharray=""/><g transform="translate(281.4089643976563,169.484017008) translate(-281.4089643976563,-169.484017008)"><path fill="black" stroke="none" paint-order="stroke fill markers" d=" M 268.8434233976563 163.201246508 L 281.4089643976563 169.484017008 L 268.8434233976563 175.766787508 Z"/></g></g><g><g><rect fill="white" stroke="none" x="314.3306818176562" y="192.10199080799998" width="263.6236008635156" height="19.602243960000003"/></g><text fill="black" stroke="none" font-family="sans-serif" font-size="11pt" font-style="normal" font-weight="normal" text-decoration="normal" x="316.59247919765625" y="205.67277508799998" text-anchor="start" dominant-baseline="alphabetic" xml:space="preserve">Query fields (with user role access)</text></g><g><path fill="none" stroke="black" paint-order="fill stroke markers" d=" M 296.48761359765626 211.704234768 L 583.3825963931719 211.704234768" stroke-miterlimit="10" stroke-width="1.2565541" stroke-dasharray=""/><g transform="translate(595.7973509011719,211.704234768) translate(-595.7973509011719,-211.704234768)"><path fill="black" stroke="none" paint-order="stroke fill markers" d=" M 583.2318099011718 205.421464268 L 595.7973509011719 211.704234768 L 583.2318099011718 217.987005268 Z"/></g></g><g><g><rect fill="white" stroke="none" x="426.1140184570605" y="275.034561408" width="40.05692758470703" height="19.602243960000003"/></g><text fill="black" stroke="none" font-family="sans-serif" font-size="11pt" font-style="normal" font-weight="normal" text-decoration="normal" x="428.37581583706054" y="288.60534568800006" text-anchor="start" dominant-baseline="alphabetic" xml:space="preserve">error</text></g><g><path fill="none" stroke="black" paint-order="fill stroke markers" d=" M 595.7973509011719 294.636805368 L 298.3724447476563 294.636805368" stroke-miterlimit="10" stroke-width="1.2565541" stroke-dasharray="6.03145968"/><g transform="translate(296.48761359765626,294.636805368) translate(-296.48761359765626,-294.636805368)"><path fill="none" stroke="black" paint-order="fill stroke markers" d=" M 309.4063007204754 288.8736692274245 L 297.9001980889327 294.636805368 L 309.4063007204754 300.3999415085755" stroke-miterlimit="10" stroke-width="1.2565541"/></g></g><g><g><rect fill="white" stroke="none" x="158.37264140647463" y="317.254779168" width="40.05692758470703" height="19.602243960000003"/></g><text fill="black" stroke="none" font-family="sans-serif" font-size="11pt" font-style="normal" font-weight="normal" text-decoration="normal" x="160.63443878647462" y="330.825563448" text-anchor="start" dominant-baseline="alphabetic" xml:space="preserve">error</text></g><g><path fill="none" stroke="black" paint-order="fill stroke markers" d=" M 281.4089643976563 336.85702312800004 L 77.27807715 336.85702312800004" stroke-miterlimit="10" stroke-width="1.2565541" stroke-dasharray="6.03145968"/><g transform="translate(75.393246,336.85702312800004) translate(-75.393246,-336.85702312800004)"><path fill="none" stroke="black" paint-order="fill stroke markers" d=" M 88.31193312281911 331.0938869874245 L 76.80583049127645 336.85702312800004 L 88.31193312281911 342.62015926857555" stroke-miterlimit="10" stroke-width="1.2565541"/></g></g><g><g><rect fill="white" stroke="none" x="628.7190683211719" y="382.09297072800007" width="121.55692758470703" height="19.602243960000003"/></g><text fill="black" stroke="none" font-family="sans-serif" font-size="11pt" font-style="normal" font-weight="normal" text-decoration="normal" x="630.9808657011719" y="395.66375500800007" text-anchor="start" dominant-baseline="alphabetic" xml:space="preserve">Database query</text></g><g><path fill="none" stroke="black" paint-order="fill stroke markers" d=" M 610.8760001011718 401.6952146880001 L 755.704309617879 401.6952146880001" stroke-miterlimit="10" stroke-width="1.2565541" stroke-dasharray=""/><g transform="translate(768.1190641258789,401.6952146880001) translate(-768.1190641258789,-401.6952146880001)"><path fill="black" stroke="none" paint-order="stroke fill markers" d=" M 755.5535231258789 395.41244418800005 L 768.1190641258789 401.6952146880001 L 755.5535231258789 407.9779851880001 Z"/></g></g><g><g><rect fill="white" stroke="none" x="662.6440675582325" y="424.3131884880001" width="53.70692911058594" height="19.602243960000003"/></g><text fill="black" stroke="none" font-family="sans-serif" font-size="11pt" font-style="normal" font-weight="normal" text-decoration="normal" x="664.9058649382324" y="437.88397276800015" text-anchor="start" dominant-baseline="alphabetic" xml:space="preserve">results</text></g><g><path fill="none" stroke="black" paint-order="fill stroke markers" d=" M 768.1190641258789 443.9154324480001 L 612.7608312511718 443.9154324480001" stroke-miterlimit="10" stroke-width="1.2565541" stroke-dasharray="6.03145968"/><g transform="translate(610.8760001011718,443.9154324480001) translate(-610.8760001011718,-443.9154324480001)"><path fill="none" stroke="black" paint-order="fill stroke markers" d=" M 623.794687223991 438.1522963074246 L 612.2885845924483 443.9154324480001 L 623.794687223991 449.6785685885756" stroke-miterlimit="10" stroke-width="1.2565541"/></g></g><g><g><rect fill="white" stroke="none" x="419.28901769412107" y="466.5334062480001" width="53.70692911058594" height="19.602243960000003"/></g><text fill="black" stroke="none" font-family="sans-serif" font-size="11pt" font-style="normal" font-weight="normal" text-decoration="normal" x="421.5508150741211" y="480.1041905280001" text-anchor="start" dominant-baseline="alphabetic" xml:space="preserve">results</text></g><g><path fill="none" stroke="black" paint-order="fill stroke markers" d=" M 595.7973509011719 486.13565020800013 L 298.3724447476563 486.13565020800013" stroke-miterlimit="10" stroke-width="1.2565541" stroke-dasharray="6.03145968"/><g transform="translate(296.48761359765626,486.13565020800013) translate(-296.48761359765626,-486.13565020800013)"><path fill="none" stroke="black" paint-order="fill stroke markers" d=" M 309.4063007204754 480.3725140674246 L 297.9001980889327 486.13565020800013 L 309.4063007204754 491.89878634857564" stroke-miterlimit="10" stroke-width="1.2565541"/></g></g><g><g><rect fill="white" stroke="none" x="97.00597652" y="508.7536240080001" width="162.79025735765626" height="19.602243960000003"/></g><text fill="black" stroke="none" font-family="sans-serif" font-size="11pt" font-style="normal" font-weight="normal" text-decoration="normal" x="99.26777390000001" y="522.3244082880001" text-anchor="start" dominant-baseline="alphabetic" xml:space="preserve">Render list view page</text></g><g><path fill="none" stroke="black" paint-order="fill stroke markers" d=" M 281.4089643976563 528.3558679680001 L 77.27807715 528.3558679680001" stroke-miterlimit="10" stroke-width="1.2565541" stroke-dasharray=""/><g transform="translate(75.393246,528.3558679680001) translate(-75.393246,-528.3558679680001)"><path fill="none" stroke="black" paint-order="fill stroke markers" d=" M 88.31193312281911 522.5927318274247 L 76.80583049127645 528.3558679680001 L 88.31193312281911 534.1190041085755" stroke-miterlimit="10" stroke-width="1.2565541"/></g></g><g><g/><path fill="none" stroke="black" paint-order="fill stroke markers" d=" M 22.6179738 234.32220856799998 L 656.1119477011719 234.32220856799998 L 656.1119477011719 359.47499692800005 L 22.6179738 359.47499692800005 L 22.6179738 234.32220856799998 Z" stroke-miterlimit="10" stroke-width="2.154092742857143" stroke-dasharray=""/><path fill="white" stroke="black" paint-order="fill stroke markers" d=" M 22.6179738 234.32220856799998 L 22.6179738 252.416587608 L 70.32527143706055 252.416587608 L 79.37246095706055 243.36939808799997 L 79.37246095706055 234.32220856799998 L 22.6179738 234.32220856799998" stroke-miterlimit="10" stroke-width="2.154092742857143" stroke-dasharray=""/><text fill="black" stroke="none" font-family="sans-serif" font-size="8.8pt" font-style="normal" font-weight="bold" text-decoration="normal" x="37.696623" y="246.38512792799997" text-anchor="start" dominant-baseline="alphabetic" xml:space="preserve">alt</text><text fill="black" stroke="none" font-family="sans-serif" font-size="8.8pt" font-style="normal" font-weight="bold" text-decoration="normal" x="94.45111015706055" y="246.38512792799997" text-anchor="start" dominant-baseline="alphabetic" xml:space="preserve">[user role is invalid]</text></g></g><g/><g/><g/><g/><g/></g></svg>